<?xml version="1.0" encoding="utf-8"?>
<!-- Generator: Adobe Illustrator 19.0.0, SVG Export Plug-In . SVG Version: 6.00 Build 0)  -->
<svg version="1.1" xmlns="http://www.w3.org/2000/svg" xmlns:xlink="http://www.w3.org/1999/xlink" x="0px" y="0px"
	 viewBox="0 0 512 512" enable-background="new 0 0 512 512" xml:space="preserve">
<g id="grid">
	<g id="svgGrid">
		<line fill="none" stroke="#B35047" x1="32" y1="0" x2="32" y2="512"/>
		<line fill="none" stroke="#B35047" x1="64" y1="0" x2="64" y2="512"/>
		<line fill="none" stroke="#B35047" x1="96" y1="0" x2="96" y2="512"/>
		<line fill="none" stroke="#B35047" x1="128" y1="0" x2="128" y2="512"/>
		<line fill="none" stroke="#B35047" x1="160" y1="0" x2="160" y2="512"/>
		<line fill="none" stroke="#B35047" x1="192" y1="0" x2="192" y2="512"/>
		<line fill="none" stroke="#B35047" x1="224" y1="0" x2="224" y2="512"/>
		<line fill="none" stroke="#B35047" x1="256" y1="0" x2="256" y2="512"/>
		<line fill="none" stroke="#B35047" x1="288" y1="0" x2="288" y2="512"/>
		<line fill="none" stroke="#B35047" x1="320" y1="0" x2="320" y2="512"/>
		<line fill="none" stroke="#B35047" x1="352" y1="0" x2="352" y2="512"/>
		<line fill="none" stroke="#B35047" x1="384" y1="0" x2="384" y2="512"/>
		<line fill="none" stroke="#B35047" x1="416" y1="0" x2="416" y2="512"/>
		<line fill="none" stroke="#B35047" x1="448" y1="0" x2="448" y2="512"/>
		<line fill="none" stroke="#B35047" x1="480" y1="0" x2="480" y2="512"/>
		<line fill="none" stroke="#B35047" x1="0" y1="32" x2="512" y2="32"/>
		<line fill="none" stroke="#B35047" x1="0" y1="64" x2="512" y2="64"/>
		<line fill="none" stroke="#B35047" x1="0" y1="96" x2="512" y2="96"/>
		<line fill="none" stroke="#B35047" x1="0" y1="128" x2="512" y2="128"/>
		<line fill="none" stroke="#B35047" x1="0" y1="160" x2="512" y2="160"/>
		<line fill="none" stroke="#B35047" x1="0" y1="192" x2="512" y2="192"/>
		<line fill="none" stroke="#B35047" x1="0" y1="224" x2="512" y2="224"/>
		<line fill="none" stroke="#B35047" x1="0" y1="256" x2="512" y2="256"/>
		<line fill="none" stroke="#B35047" x1="0" y1="288" x2="512" y2="288"/>
		<line fill="none" stroke="#B35047" x1="0" y1="320" x2="512" y2="320"/>
		<line fill="none" stroke="#B35047" x1="0" y1="352" x2="512" y2="352"/>
		<line fill="none" stroke="#B35047" x1="0" y1="384" x2="512" y2="384"/>
		<line fill="none" stroke="#B35047" x1="0" y1="416" x2="512" y2="416"/>
		<line fill="none" stroke="#B35047" x1="0" y1="448" x2="512" y2="448"/>
		<line fill="none" stroke="#B35047" x1="0" y1="480" x2="512" y2="480"/>
		<rect fill="none" stroke="#B35047" width="512" height="512"/>
	</g>
</g>
<g id="Layer_2" display="none">
	<path id="XMLID_1_" display="inline" opacity="0.8" d="M464,480H48c-26.4,0-48-21.6-48-48V176c0-26.4,21.6-48,48-48h416
		c26.4,0,48,21.6,48,48v256C512,458.4,490.4,480,464,480z"/>
	<path id="XMLID_5_" display="inline" opacity="0.8" d="M192,0h128c63.5,0,64,64,64,64v32h-64V64H192v32h-64V64
		C128,64,127.5,0,192,0z"/>
</g>
<g id="Layer_3" display="none">
	<path id="XMLID_3_" display="inline" fill="#FFFFFF" d="M0,224c0,0,72.5,32,256,32s256-32,256-32v32c0,0-72.5,32-256,32
		S0,256,0,256V224z"/>
	<path id="XMLID_4_" display="inline" fill="#FFFFFF" d="M224,304h64v32c0,0-0.2,32-32,32s-32-32-32-32V304z"/>
</g>
<g id="Layer_4" display="none">
	<rect id="XMLID_2_" y="256" display="inline" fill="#FFFFFF" width="512" height="32"/>
</g>
<g id="Layer_5" display="none">
	<path id="XMLID_7_" display="inline" d="M192,0h128c63.5,0,64,64,64,64v32h-64V64H192v32h-64V64C128,64,127.5,0,192,0z"/>
	<g id="XMLID_9_" display="inline">
		<path id="XMLID_10_" d="M0,432c0,26.4,21.6,48,48,48h416c26.4,0,48-21.6,48-48V288H0V432z"/>
		<path id="XMLID_11_" d="M464,128H48c-26.4,0-48,21.6-48,48v80h512v-80C512,149.6,490.4,128,464,128z"/>
	</g>
</g>
<g id="Layer_6">
	<path id="XMLID_13_" d="M192,0h128c63.5,0,64,64,64,64v32h-64V64H192v32h-64V64C128,64,127.5,0,192,0z"/>
	<path id="XMLID_8_" d="M464,128H48c-26.4,0-48,21.6-48,48v80h512v-80C512,149.6,490.4,128,464,128z"/>
</g>
<g id="Layer_7">
	<path id="XMLID_17_" d="M0,288v144c0,26.4,21.6,48,48,48h416c26.4,0,48-21.6,48-48V288H0z M304,352h-96v-32h96V352z"/>
</g>
</svg>
