<?xml version="1.0" encoding="utf-8"?>
<!-- Generator: Adobe Illustrator 19.0.0, SVG Export Plug-In . SVG Version: 6.00 Build 0)  -->
<svg version="1.1" id="Layer_1" xmlns="http://www.w3.org/2000/svg" xmlns:xlink="http://www.w3.org/1999/xlink" x="0px" y="0px"
	 viewBox="-223 25 512 512" style="enable-background:new -223 25 512 512;" xml:space="preserve">
<style type="text/css">
	.st0{fill:none;stroke:#B35047;}
</style>
<g id="svgGrid">
	<line class="st0" x1="-191" y1="25" x2="-191" y2="537"/>
	<line class="st0" x1="-159" y1="25" x2="-159" y2="537"/>
	<line class="st0" x1="-127" y1="25" x2="-127" y2="537"/>
	<line class="st0" x1="-95" y1="25" x2="-95" y2="537"/>
	<line class="st0" x1="-63" y1="25" x2="-63" y2="537"/>
	<line class="st0" x1="-31" y1="25" x2="-31" y2="537"/>
	<line class="st0" x1="1" y1="25" x2="1" y2="537"/>
	<line class="st0" x1="33" y1="25" x2="33" y2="537"/>
	<line class="st0" x1="65" y1="25" x2="65" y2="537"/>
	<line class="st0" x1="97" y1="25" x2="97" y2="537"/>
	<line class="st0" x1="129" y1="25" x2="129" y2="537"/>
	<line class="st0" x1="161" y1="25" x2="161" y2="537"/>
	<line class="st0" x1="193" y1="25" x2="193" y2="537"/>
	<line class="st0" x1="225" y1="25" x2="225" y2="537"/>
	<line class="st0" x1="257" y1="25" x2="257" y2="537"/>
	<line class="st0" x1="-223" y1="57" x2="289" y2="57"/>
	<line class="st0" x1="-223" y1="89" x2="289" y2="89"/>
	<line class="st0" x1="-223" y1="121" x2="289" y2="121"/>
	<line class="st0" x1="-223" y1="153" x2="289" y2="153"/>
	<line class="st0" x1="-223" y1="185" x2="289" y2="185"/>
	<line class="st0" x1="-223" y1="217" x2="289" y2="217"/>
	<line class="st0" x1="-223" y1="249" x2="289" y2="249"/>
	<line class="st0" x1="-223" y1="281" x2="289" y2="281"/>
	<line class="st0" x1="-223" y1="313" x2="289" y2="313"/>
	<line class="st0" x1="-223" y1="345" x2="289" y2="345"/>
	<line class="st0" x1="-223" y1="377" x2="289" y2="377"/>
	<line class="st0" x1="-223" y1="409" x2="289" y2="409"/>
	<line class="st0" x1="-223" y1="441" x2="289" y2="441"/>
	<line class="st0" x1="-223" y1="473" x2="289" y2="473"/>
	<line class="st0" x1="-223" y1="505" x2="289" y2="505"/>
	<rect x="-223" y="25" class="st0" width="512" height="512"/>
</g>
<g>
	<g>
		<path d="M-119.7,442.4L-119.7,442.4c2.8,1.4,5.8,2.1,8.7,2.1c7.2,0,14-4,17.5-10.8l76-152l32.3,86.1c2.7,7.3,9.5,12.2,17.2,12.6
			c7.7,0.4,15-3.8,18.5-10.8l76.5-153l15.9,39.7c2.9,7.3,9.8,12.1,17.7,12.3c7.8,0.2,15-4.3,18.2-11.4l80-176
			c4.5-9.8,0.1-21.4-9.7-25.8c-9.8-4.5-21.4-0.1-25.8,9.7l-61.1,134.4l-15-37.6c-2.9-7.1-9.6-11.9-17.3-12.2s-14.8,3.9-18.3,10.8
			l-76,152L3.3,226.4c-2.7-7.3-9.5-12.2-17.2-12.6c-7.8-0.4-15,3.8-18.5,10.8l-96,192C-133.3,425.9-129.4,437.6-119.7,442.4z
			 M-159,473V25h-64v512h512v-64H-159z"/>
	</g>
</g>
</svg>
