<?xml version="1.0" encoding="utf-8"?>
<svg version="1.1" xmlns="http://www.w3.org/2000/svg" xmlns:xlink="http://www.w3.org/1999/xlink" width="16" height="16" viewBox="0 0 16 16">
  <rect width="16" height="16" id="icon-bound" fill="none" />
  <path d="M9.414,12.586L4.828,8L9.414,3.414L8,2L2,8L8,14L9.414,12.586ZM7.172,8.172L7.172,7.828L7.422,7.578L7.422,8.422L7.172,8.172ZM7.672,8.672L7.672,7.328L7.922,7.078L7.922,8.922L7.672,8.672ZM8.172,9.172L8.172,6.828L8.422,6.578L8.422,9.422L8.172,9.172ZM8.672,9.672L8.672,6.328L8.922,6.078L8.922,9.922L8.672,9.672ZM9.172,10.172L9.172,5.828L9.422,5.578L9.422,10.422L9.172,10.172ZM9.672,10.672L9.672,5.328L9.922,5.078L9.922,7.906L9.828,8L9.922,8.094L9.922,10.922L9.672,10.672ZM10.172,7.656L10.172,4.828L10.422,4.578L10.422,7.406L10.172,7.656ZM10.172,11.172L10.172,8.344L10.422,8.594L10.422,11.422L10.172,11.172ZM10.672,7.156L10.672,4.328L10.922,4.078L10.922,6.906L10.672,7.156ZM10.672,11.672L10.672,8.844L10.922,9.094L10.922,11.922L10.672,11.672ZM11.172,6.656L11.172,3.828L11.422,3.578L11.422,6.406L11.172,6.656ZM11.172,12.172L11.172,9.344L11.422,9.594L11.422,12.422L11.172,12.172ZM11.672,6.156L11.672,3.328L11.922,3.078L11.922,5.906L11.672,6.156ZM11.672,12.672L11.672,9.844L11.922,10.094L11.922,12.922L11.672,12.672ZM12.172,5.656L12.172,2.828L12.422,2.578L12.422,5.406L12.172,5.656ZM12.172,13.172L12.172,10.344L12.422,10.594L12.422,13.422L12.172,13.172ZM12.672,5.156L12.672,2.328L12.922,2.078L12.922,4.906L12.672,5.156ZM12.672,13.672L12.672,10.844L12.922,11.094L12.922,13.922L12.672,13.672ZM13.172,4.656L13.172,2.172L13.422,2.422L13.422,4.406L13.172,4.656ZM13.172,13.828L13.172,11.344L13.422,11.594L13.422,13.578L13.172,13.828ZM13.672,4.156L13.672,2.672L13.914,2.914L13.914,3.914L13.672,4.156ZM13.672,13.328L13.672,11.844L13.914,12.086L13.914,13.086L13.672,13.328ZM14.164,3.664L14.164,3.164L14.414,3.414L14.164,3.664ZM14.164,12.836L14.164,12.336L14.414,12.586L14.164,12.836Z" />
</svg>
