<?xml version="1.0" encoding="utf-8"?>
<svg version="1.1" xmlns="http://www.w3.org/2000/svg" xmlns:xlink="http://www.w3.org/1999/xlink" width="16" height="16" viewBox="0 0 16 16">
  <rect width="16" height="16" id="icon-bound" fill="none" />
  <path d="M3.414,9.414L8,4.828L12.586,9.414L14,8L8,2L2,8L3.414,9.414ZM7.828,7.172L8.172,7.172L8.422,7.422L7.578,7.422L7.828,7.172ZM7.328,7.672L8.672,7.672L8.922,7.922L7.078,7.922L7.328,7.672ZM6.828,8.172L9.172,8.172L9.422,8.422L6.578,8.422L6.828,8.172ZM6.328,8.672L9.672,8.672L9.922,8.922L6.078,8.922L6.328,8.672ZM5.828,9.172L10.172,9.172L10.422,9.422L5.578,9.422L5.828,9.172ZM5.328,9.672L10.672,9.672L10.922,9.922L8.094,9.922L8,9.828L7.906,9.922L5.078,9.922L5.328,9.672ZM8.344,10.172L11.172,10.172L11.422,10.422L8.594,10.422L8.344,10.172ZM4.828,10.172L7.656,10.172L7.406,10.422L4.578,10.422L4.828,10.172ZM8.844,10.672L11.672,10.672L11.922,10.922L9.094,10.922L8.844,10.672ZM4.328,10.672L7.156,10.672L6.906,10.922L4.078,10.922L4.328,10.672ZM9.344,11.172L12.172,11.172L12.422,11.422L9.594,11.422L9.344,11.172ZM3.828,11.172L6.656,11.172L6.406,11.422L3.578,11.422L3.828,11.172ZM9.844,11.672L12.672,11.672L12.922,11.922L10.094,11.922L9.844,11.672ZM3.328,11.672L6.156,11.672L5.906,11.922L3.078,11.922L3.328,11.672ZM10.344,12.172L13.172,12.172L13.422,12.422L10.594,12.422L10.344,12.172ZM2.828,12.172L5.656,12.172L5.406,12.422L2.578,12.422L2.828,12.172ZM10.844,12.672L13.672,12.672L13.922,12.922L11.094,12.922L10.844,12.672ZM2.328,12.672L5.156,12.672L4.906,12.922L2.078,12.922L2.328,12.672ZM11.344,13.172L13.828,13.172L13.578,13.422L11.594,13.422L11.344,13.172ZM2.172,13.172L4.656,13.172L4.406,13.422L2.422,13.422L2.172,13.172ZM11.844,13.672L13.328,13.672L13.086,13.914L12.086,13.914L11.844,13.672ZM2.672,13.672L4.156,13.672L3.914,13.914L2.914,13.914L2.672,13.672ZM12.336,14.164L12.836,14.164L12.586,14.414L12.336,14.164ZM3.164,14.164L3.664,14.164L3.414,14.414L3.164,14.164Z" />
</svg>
