<?xml version="1.0" encoding="utf-8"?>
<svg version="1.1" xmlns="http://www.w3.org/2000/svg" xmlns:xlink="http://www.w3.org/1999/xlink" width="16" height="16" viewBox="0 0 16 16">
  <rect width="16" height="16" id="icon-bound" fill="none" />
  <path d="M6.586,3.414L11.172,8L6.586,12.586L8,14L14,8L8,2L6.586,3.414ZM8.828,7.828L8.828,8.172L8.578,8.422L8.578,7.578L8.828,7.828ZM8.328,7.328L8.328,8.672L8.078,8.922L8.078,7.078L8.328,7.328ZM7.828,6.828L7.828,9.172L7.578,9.422L7.578,6.578L7.828,6.828ZM7.328,6.328L7.328,9.672L7.078,9.922L7.078,6.078L7.328,6.328ZM6.828,5.828L6.828,10.172L6.578,10.422L6.578,5.578L6.828,5.828ZM6.328,5.328L6.328,10.672L6.078,10.922L6.078,8.094L6.172,8L6.078,7.906L6.078,5.078L6.328,5.328ZM5.828,8.344L5.828,11.172L5.578,11.422L5.578,8.594L5.828,8.344ZM5.828,4.828L5.828,7.656L5.578,7.406L5.578,4.578L5.828,4.828ZM5.328,8.844L5.328,11.672L5.078,11.922L5.078,9.094L5.328,8.844ZM5.328,4.328L5.328,7.156L5.078,6.906L5.078,4.078L5.328,4.328ZM4.828,9.344L4.828,12.172L4.578,12.422L4.578,9.594L4.828,9.344ZM4.828,3.828L4.828,6.656L4.578,6.406L4.578,3.578L4.828,3.828ZM4.328,9.844L4.328,12.672L4.078,12.922L4.078,10.094L4.328,9.844ZM4.328,3.328L4.328,6.156L4.078,5.906L4.078,3.078L4.328,3.328ZM3.828,10.344L3.828,13.172L3.578,13.422L3.578,10.594L3.828,10.344ZM3.828,2.828L3.828,5.656L3.578,5.406L3.578,2.578L3.828,2.828ZM3.328,10.844L3.328,13.672L3.078,13.922L3.078,11.094L3.328,10.844ZM3.328,2.328L3.328,5.156L3.078,4.906L3.078,2.078L3.328,2.328ZM2.828,11.344L2.828,13.828L2.578,13.578L2.578,11.594L2.828,11.344ZM2.828,2.172L2.828,4.656L2.578,4.406L2.578,2.422L2.828,2.172ZM2.328,11.844L2.328,13.328L2.086,13.086L2.086,12.086L2.328,11.844ZM2.328,2.672L2.328,4.156L2.086,3.914L2.086,2.914L2.328,2.672ZM1.836,12.336L1.836,12.836L1.586,12.586L1.836,12.336ZM1.836,3.164L1.836,3.664L1.586,3.414L1.836,3.164Z" />
</svg>
