<?xml version="1.0" encoding="utf-8"?>
<svg version="1.1" xmlns="http://www.w3.org/2000/svg" xmlns:xlink="http://www.w3.org/1999/xlink" width="16" height="16" viewBox="0 0 16 16">
    <rect width="16" height="16" id="icon-bound" fill="none" />
    <path d="M8,0.035C12.406,0.035 15.983,3.612 15.983,8.017C15.983,12.423 12.406,16 8,16C3.594,16 0.017,12.423 0.017,8.017C0.017,3.612 3.594,0.035 8,0.035ZM8,2.035C4.698,2.035 2.017,4.716 2.017,8.017C2.017,11.319 4.698,14 8,14C11.302,14 13.983,11.319 13.983,8.017C13.983,4.716 11.302,2.035 8,2.035ZM7.989,4.035C10.188,4.035 11.972,5.819 11.972,8.017C11.972,10.215 10.188,12 7.989,12C5.791,12 4.007,10.215 4.007,8.017C4.007,5.819 5.791,4.035 7.989,4.035Z" />
</svg>
