<?xml version="1.0" encoding="utf-8"?>
<svg version="1.1" xmlns="http://www.w3.org/2000/svg" xmlns:xlink="http://www.w3.org/1999/xlink" width="16" height="16" viewBox="0 0 16 16">
    <rect width="16" height="16" id="icon-bound" fill="none" />
    <path id="circle-record" d="M8,0C12.415,0 16,3.585 16,8C16,12.415 12.415,16 8,16C3.585,16 0,12.415 0,8C0,3.585 3.585,0 8,0ZM7.989,2.035C4.688,2.035 2.007,4.716 2.007,8.017C2.007,11.319 4.688,14 7.989,14C11.291,14 13.972,11.319 13.972,8.017C13.972,4.716 11.291,2.035 7.989,2.035ZM7.989,6C9.103,6 10.007,6.904 10.007,8.017C10.007,9.131 9.103,10.035 7.989,10.035C6.876,10.035 5.972,9.131 5.972,8.017C5.972,6.904 6.876,6 7.989,6Z" />
</svg>
