<?xml version="1.0" encoding="utf-8"?>
<!-- Generator: Adobe Illustrator 17.1.0, SVG Export Plug-In . SVG Version: 6.00 Build 0)  -->
<!DOCTYPE svg PUBLIC "-//W3C//DTD SVG 1.1//EN" "http://www.w3.org/Graphics/SVG/1.1/DTD/svg11.dtd">
<svg version="1.1" id="Layer_1" xmlns="http://www.w3.org/2000/svg" xmlns:xlink="http://www.w3.org/1999/xlink" x="0px" y="0px"
	 width="512px" height="512px" viewBox="0 0 512 512" enable-background="new 0 0 512 512" xml:space="preserve">
<g id="svgGrid">
	<line fill="none" stroke="#B35047" x1="32" y1="0" x2="32" y2="512"/>
	<line fill="none" stroke="#B35047" x1="64" y1="0" x2="64" y2="512"/>
	<line fill="none" stroke="#B35047" x1="96" y1="0" x2="96" y2="512"/>
	<line fill="none" stroke="#B35047" x1="128" y1="0" x2="128" y2="512"/>
	<line fill="none" stroke="#B35047" x1="160" y1="0" x2="160" y2="512"/>
	<line fill="none" stroke="#B35047" x1="192" y1="0" x2="192" y2="512"/>
	<line fill="none" stroke="#B35047" x1="224" y1="0" x2="224" y2="512"/>
	<line fill="none" stroke="#B35047" x1="256" y1="0" x2="256" y2="512"/>
	<line fill="none" stroke="#B35047" x1="288" y1="0" x2="288" y2="512"/>
	<line fill="none" stroke="#B35047" x1="320" y1="0" x2="320" y2="512"/>
	<line fill="none" stroke="#B35047" x1="352" y1="0" x2="352" y2="512"/>
	<line fill="none" stroke="#B35047" x1="384" y1="0" x2="384" y2="512"/>
	<line fill="none" stroke="#B35047" x1="416" y1="0" x2="416" y2="512"/>
	<line fill="none" stroke="#B35047" x1="448" y1="0" x2="448" y2="512"/>
	<line fill="none" stroke="#B35047" x1="480" y1="0" x2="480" y2="512"/>
	<line fill="none" stroke="#B35047" x1="0" y1="32" x2="512" y2="32"/>
	<line fill="none" stroke="#B35047" x1="0" y1="64" x2="512" y2="64"/>
	<line fill="none" stroke="#B35047" x1="0" y1="96" x2="512" y2="96"/>
	<line fill="none" stroke="#B35047" x1="0" y1="128" x2="512" y2="128"/>
	<line fill="none" stroke="#B35047" x1="0" y1="160" x2="512" y2="160"/>
	<line fill="none" stroke="#B35047" x1="0" y1="192" x2="512" y2="192"/>
	<line fill="none" stroke="#B35047" x1="0" y1="224" x2="512" y2="224"/>
	<line fill="none" stroke="#B35047" x1="0" y1="256" x2="512" y2="256"/>
	<line fill="none" stroke="#B35047" x1="0" y1="288" x2="512" y2="288"/>
	<line fill="none" stroke="#B35047" x1="0" y1="320" x2="512" y2="320"/>
	<line fill="none" stroke="#B35047" x1="0" y1="352" x2="512" y2="352"/>
	<line fill="none" stroke="#B35047" x1="0" y1="384" x2="512" y2="384"/>
	<line fill="none" stroke="#B35047" x1="0" y1="416" x2="512" y2="416"/>
	<line fill="none" stroke="#B35047" x1="0" y1="448" x2="512" y2="448"/>
	<line fill="none" stroke="#B35047" x1="0" y1="480" x2="512" y2="480"/>
	<rect fill="none" stroke="#B35047" width="512" height="512"/>
</g>
<path d="M480,0H32C14.3,0,0,14.3,0,32v448c0,17.7,14.3,32,32,32h229.7c-0.3-14.4,3.6-26.2,1-41.8c-32.3-95.1-84-108.9-179.7-158.4
	c29.8,1,56.9,4,83,21.1c-12.6-21.3-29.5-22.1-43.3-37.3c0,0,30.4,10.5,40.2,15.7c57.3,33.7,74.4,71.8,105.5,146.8
	c-0.8-16.3-2.1-42.8-3.2-49.9c-1.5-9.6-21.6-52-37.7-72.9c-55.6-73.7-106.9-142.4-170.8-208.7c33.9,23.2,117.3,86.8,138.5,116.6
	c-9.5-44.6-52-90.8-91.5-125.8c69.6,17,121.7,131.8,150.2,190.4c2,10.5,10.3,35.8,13.7,45.8c1.2,3.5,3.1,11.7,5.2,20.8l-1.3-13.8
	c0,0-5.9-33.2-7.8-44.5c-11.7-66.5-28.8-132.2-31.3-200c1-12.2-5.9-45.4-8.8-62c-2.9-16.6-18.6-48-18.6-48.9l0,0
	c0,0,19.6,14.9,25.5,21c20.8,24,15.2,53.3,33.3,76.8c-6.2-35.3-0.2-57.4-30.4-83c37.8,12,28.8,33.8,40.2,68.1
	c11.6-29.2,23.7-66,59.7-72.5c-31.2,26-20.3,235.1-44.8,305.1c0,4.8-7.1,100.6-8,115.2c3.3-12.5,7-21.7,16.2-29.8
	c-4.3,9.3-7.1,18.2-7,28.5c15.6-25.1,25.9-22.6,46.4-29.2c-22.6,14.8-38.8,26.8-48.8,52.2c-2.9,6.1-3.2,26.1-4.2,32.7
	c0.1,2-0.1,11.5,0,21.6H480c17.7,0,32-14.3,32-32V32C512,14.3,497.7,0,480,0z M365.9,263.8c-20.6,46.7-41.1,79.5-46,86
	c-10.5,14.4-20,30.8-24,47.6c-20.5-46.1,23.6-131.9,27.4-146.7c9.7-36.8,30.8-97,68-121.4c0,0,0,0,0,0h0c0,0,0,0,0,0
	c-26.8,31.4-37.3,76.4-38.7,118.4c0,0,23.4-29.7,31.3-37.2C406,189,424,170.8,455.5,166C413.6,189.3,384,216.8,365.9,263.8z"/>
</svg>
