<?xml version="1.0" encoding="utf-8"?>
<svg version="1.1" xmlns="http://www.w3.org/2000/svg" xmlns:xlink="http://www.w3.org/1999/xlink" width="16" height="16" viewBox="0 0 16 16">
  <rect width="16" height="16" id="icon-bound" fill="none" />
  <path d="M5,7C5.553,7 6,6.553 6,6C6,5.447 5.553,5 5,5C4.447,5 4,5.447 4,6C4,6.553 4.447,7 5,7ZM8,10C7.263,10 6.616,9.597 6.269,9L4.125,9C4.569,10.725 6.134,12 8,12C9.863,12 11.431,10.725 11.875,9L9.731,9C9.384,9.597 8.738,10 8,10ZM8,0C3.581,0 0,3.581 0,8C0,12.419 3.581,16 8,16C12.419,16 16,12.419 16,8C16,3.581 12.419,0 8,0ZM12.244,12.244C11.109,13.375 9.603,14 8,14C6.397,14 4.891,13.375 3.756,12.244C2.625,11.109 2,9.603 2,8C2,6.397 2.625,4.891 3.756,3.756C4.891,2.625 6.397,2 8,2C9.603,2 11.109,2.625 12.244,3.756C13.375,4.891 14,6.397 14,8C14,9.603 13.375,11.109 12.244,12.244ZM11,5C10.447,5 10,5.447 10,6C10,6.553 10.447,7 11,7C11.553,7 12,6.553 12,6C12,5.447 11.553,5 11,5Z" />
</svg>
