<?xml version="1.0" encoding="utf-8"?>
<!-- Generator: Adobe Illustrator 19.1.0, SVG Export Plug-In . SVG Version: 6.00 Build 0)  -->
<svg version="1.1" id="Layer_1" xmlns="http://www.w3.org/2000/svg" xmlns:xlink="http://www.w3.org/1999/xlink" x="0px" y="0px"
	 viewBox="248 -248 512 512" style="enable-background:new 248 -248 512 512;" xml:space="preserve">
<style type="text/css">
	.st0{fill:none;stroke:#B35047;}
</style>
<g id="svgGrid">
	<line class="st0" x1="280" y1="-248" x2="280" y2="264"/>
	<line class="st0" x1="312" y1="-248" x2="312" y2="264"/>
	<line class="st0" x1="344" y1="-248" x2="344" y2="264"/>
	<line class="st0" x1="376" y1="-248" x2="376" y2="264"/>
	<line class="st0" x1="408" y1="-248" x2="408" y2="264"/>
	<line class="st0" x1="440" y1="-248" x2="440" y2="264"/>
	<line class="st0" x1="472" y1="-248" x2="472" y2="264"/>
	<line class="st0" x1="504" y1="-248" x2="504" y2="264"/>
	<line class="st0" x1="536" y1="-248" x2="536" y2="264"/>
	<line class="st0" x1="568" y1="-248" x2="568" y2="264"/>
	<line class="st0" x1="600" y1="-248" x2="600" y2="264"/>
	<line class="st0" x1="632" y1="-248" x2="632" y2="264"/>
	<line class="st0" x1="664" y1="-248" x2="664" y2="264"/>
	<line class="st0" x1="696" y1="-248" x2="696" y2="264"/>
	<line class="st0" x1="728" y1="-248" x2="728" y2="264"/>
	<line class="st0" x1="248" y1="-216" x2="760" y2="-216"/>
	<line class="st0" x1="248" y1="-184" x2="760" y2="-184"/>
	<line class="st0" x1="248" y1="-152" x2="760" y2="-152"/>
	<line class="st0" x1="248" y1="-120" x2="760" y2="-120"/>
	<line class="st0" x1="248" y1="-88" x2="760" y2="-88"/>
	<line class="st0" x1="248" y1="-56" x2="760" y2="-56"/>
	<line class="st0" x1="248" y1="-24" x2="760" y2="-24"/>
	<line class="st0" x1="248" y1="8" x2="760" y2="8"/>
	<line class="st0" x1="248" y1="40" x2="760" y2="40"/>
	<line class="st0" x1="248" y1="72" x2="760" y2="72"/>
	<line class="st0" x1="248" y1="104" x2="760" y2="104"/>
	<line class="st0" x1="248" y1="136" x2="760" y2="136"/>
	<line class="st0" x1="248" y1="168" x2="760" y2="168"/>
	<line class="st0" x1="248" y1="200" x2="760" y2="200"/>
	<line class="st0" x1="248" y1="232" x2="760" y2="232"/>
	<rect x="248" y="-248" class="st0" width="512" height="512"/>
</g>
<path d="M685-172.7c-48.3-48.3-112.5-74.9-180.8-74.9S371.7-221,323.4-172.7S248.5-60.2,248.5,8.1s26.6,132.5,74.9,180.8
	c48.3,48.3,112.5,74.9,180.8,74.9s132.5-26.6,180.8-74.9c48.3-48.3,74.9-112.5,74.9-180.8S733.3-124.4,685-172.7z M658.3-49.3
	l7.8-10.5L675-49L658.3-49.3z M313.5,8.1c0-18.4,2.6-36.2,7.5-53.1L337.3-2l89.4,70.5l14.9,3.4L419.7,107l32.6,84.6
	C372.3,169,313.5,95.3,313.5,8.1z M510,198.7l53.8-42.5l6.8-35.9L436.2,57.8l-8.3-14.5l-10.9-7.5l-5.6-24.9l-18.4,7.5l6.1-24.2
	l22-2.9l19.6,21.8l6.4-37.6l24.1-33.3l25.7-9.1l2.6-17.3l-5.5-5.9l24.3-4l2.8-19l-22-22.7l-18.8,2.5L457-144.9l-12.7,39.7l-28-17
	l40.7-42.6L403.8-154c25.9-16.1,55.9-26.2,88.1-28.2l59.6,52.4l21.7,5.8l4.6-16.7l22.6-15.8c21.2,12.4,39.8,28.9,54.8,48.3
	l-17.6,30.1l-16.9,3.4l20.8,131.2l23.2,24.3l-7.8,41.4C623.2,167.3,570,196.9,510,198.7z"/>
</svg>
