<?xml version="1.0" encoding="utf-8"?>
<!-- Generator: Adobe Illustrator 19.1.0, SVG Export Plug-In . SVG Version: 6.00 Build 0)  -->
<svg version="1.1" xmlns="http://www.w3.org/2000/svg" xmlns:xlink="http://www.w3.org/1999/xlink" x="0px" y="0px"
	 viewBox="248 -248 512 512" style="enable-background:new 248 -248 512 512;" xml:space="preserve">
<style type="text/css">
	.st0{fill:none;stroke:#B35047;}
</style>
<g id="Layer_1">
	<g id="svgGrid">
		<line class="st0" x1="280" y1="-248" x2="280" y2="264"/>
		<line class="st0" x1="312" y1="-248" x2="312" y2="264"/>
		<line class="st0" x1="344" y1="-248" x2="344" y2="264"/>
		<line class="st0" x1="376" y1="-248" x2="376" y2="264"/>
		<line class="st0" x1="408" y1="-248" x2="408" y2="264"/>
		<line class="st0" x1="440" y1="-248" x2="440" y2="264"/>
		<line class="st0" x1="472" y1="-248" x2="472" y2="264"/>
		<line class="st0" x1="504" y1="-248" x2="504" y2="264"/>
		<line class="st0" x1="536" y1="-248" x2="536" y2="264"/>
		<line class="st0" x1="568" y1="-248" x2="568" y2="264"/>
		<line class="st0" x1="600" y1="-248" x2="600" y2="264"/>
		<line class="st0" x1="632" y1="-248" x2="632" y2="264"/>
		<line class="st0" x1="664" y1="-248" x2="664" y2="264"/>
		<line class="st0" x1="696" y1="-248" x2="696" y2="264"/>
		<line class="st0" x1="728" y1="-248" x2="728" y2="264"/>
		<line class="st0" x1="248" y1="-216" x2="760" y2="-216"/>
		<line class="st0" x1="248" y1="-184" x2="760" y2="-184"/>
		<line class="st0" x1="248" y1="-152" x2="760" y2="-152"/>
		<line class="st0" x1="248" y1="-120" x2="760" y2="-120"/>
		<line class="st0" x1="248" y1="-88" x2="760" y2="-88"/>
		<line class="st0" x1="248" y1="-56" x2="760" y2="-56"/>
		<line class="st0" x1="248" y1="-24" x2="760" y2="-24"/>
		<line class="st0" x1="248" y1="8" x2="760" y2="8"/>
		<line class="st0" x1="248" y1="40" x2="760" y2="40"/>
		<line class="st0" x1="248" y1="72" x2="760" y2="72"/>
		<line class="st0" x1="248" y1="104" x2="760" y2="104"/>
		<line class="st0" x1="248" y1="136" x2="760" y2="136"/>
		<line class="st0" x1="248" y1="168" x2="760" y2="168"/>
		<line class="st0" x1="248" y1="200" x2="760" y2="200"/>
		<line class="st0" x1="248" y1="232" x2="760" y2="232"/>
		<rect x="248" y="-248" class="st0" width="512" height="512"/>
	</g>
</g>
<g id="Layer_2">
	<path d="M684-171.9c-48.1-48.1-112-74.5-180-74.5c-68,0-131.9,26.5-180,74.5c-48.1,48.1-74.5,112-74.5,180
		c0,68,26.5,131.9,74.5,180c48.1,48.1,112,74.5,180,74.5c68,0,131.9-26.5,180-74.5S758.5,76,758.5,8C758.5-60,732-123.9,684-171.9z
		 M703.7-66.2L677-66.8l16.6-22.3C697.4-81.7,700.8-74,703.7-66.2z M504,221.1c-2.9,0-5.8-0.1-8.6-0.2l81.3-64.2l6.5-34.1
		L451.1,61.1L428.8,106l43.5,112.7C369.8,203.4,290.9,114.7,290.9,8c0-36.9,9.4-71.6,26-101.9l-1.5,18.8L338-15.7l95.4,75.2
		l16.1,0.8l-10.6-4.9l-9.2-16.1l-12.4-8.6L411.9,7L387,17.9L398.2-21l29.4-3.9l16.8,18.7l5.6-33l27.6-38.1l26.8-9.5l2.1-14.1
		l-10.2-10.8l31.4-5.1l2.3-15.4L509-153.7l-19.6,2.6l-22.1-11l-13.9,43.6l-39.8-24.2l38.4-40.2l-65.7,13.5
		C419.9-191.9,460.5-205,504-205c3.8,0,7.5,0.1,11.3,0.3l43.2,38l18.4,4.9l4.3-15.5l11.7-8.2c37.5,17.3,69.1,45.1,91.1,79.7
		l-2.8,7.3l-16.2,3.3l5.7,34.5l15.8,103l22.6,23.6C683.8,155.3,601.4,221.1,504,221.1z"/>
</g>
</svg>
