<?xml version="1.0" encoding="utf-8"?>
<!-- Generator: Adobe Illustrator 19.1.0, SVG Export Plug-In . SVG Version: 6.00 Build 0)  -->
<svg version="1.1" xmlns="http://www.w3.org/2000/svg" xmlns:xlink="http://www.w3.org/1999/xlink" x="0px" y="0px"
	 viewBox="248 -248 512 512" style="enable-background:new 248 -248 512 512;" xml:space="preserve">
<style type="text/css">
	.st0{fill:none;stroke:#B35047;}
	.st1{fill:none;stroke:#000000;stroke-width:41.4662;stroke-miterlimit:10;}
</style>
<g id="Layer_1">
	<g id="svgGrid">
		<line class="st0" x1="280" y1="-248" x2="280" y2="264"/>
		<line class="st0" x1="312" y1="-248" x2="312" y2="264"/>
		<line class="st0" x1="344" y1="-248" x2="344" y2="264"/>
		<line class="st0" x1="376" y1="-248" x2="376" y2="264"/>
		<line class="st0" x1="408" y1="-248" x2="408" y2="264"/>
		<line class="st0" x1="440" y1="-248" x2="440" y2="264"/>
		<line class="st0" x1="472" y1="-248" x2="472" y2="264"/>
		<line class="st0" x1="504" y1="-248" x2="504" y2="264"/>
		<line class="st0" x1="536" y1="-248" x2="536" y2="264"/>
		<line class="st0" x1="568" y1="-248" x2="568" y2="264"/>
		<line class="st0" x1="600" y1="-248" x2="600" y2="264"/>
		<line class="st0" x1="632" y1="-248" x2="632" y2="264"/>
		<line class="st0" x1="664" y1="-248" x2="664" y2="264"/>
		<line class="st0" x1="696" y1="-248" x2="696" y2="264"/>
		<line class="st0" x1="728" y1="-248" x2="728" y2="264"/>
		<line class="st0" x1="248" y1="-216" x2="760" y2="-216"/>
		<line class="st0" x1="248" y1="-184" x2="760" y2="-184"/>
		<line class="st0" x1="248" y1="-152" x2="760" y2="-152"/>
		<line class="st0" x1="248" y1="-120" x2="760" y2="-120"/>
		<line class="st0" x1="248" y1="-88" x2="760" y2="-88"/>
		<line class="st0" x1="248" y1="-56" x2="760" y2="-56"/>
		<line class="st0" x1="248" y1="-24" x2="760" y2="-24"/>
		<line class="st0" x1="248" y1="8" x2="760" y2="8"/>
		<line class="st0" x1="248" y1="40" x2="760" y2="40"/>
		<line class="st0" x1="248" y1="72" x2="760" y2="72"/>
		<line class="st0" x1="248" y1="104" x2="760" y2="104"/>
		<line class="st0" x1="248" y1="136" x2="760" y2="136"/>
		<line class="st0" x1="248" y1="168" x2="760" y2="168"/>
		<line class="st0" x1="248" y1="200" x2="760" y2="200"/>
		<line class="st0" x1="248" y1="232" x2="760" y2="232"/>
		<rect x="248" y="-248" class="st0" width="512" height="512"/>
	</g>
</g>
<g id="Layer_2">
	<path d="M302.4-111L302.4-111L302.4-111l5.1-8.2L302.4-111l70.6-55.8l78.8-16.2l-38.4,40.2l39.8,24.2l13.9-43.6l22.1,11l19.6-2.6
		l20.9,21.6l-2.3,15.4l-31.4,5.1l10.2,10.8l-2.1,14.1l-26.8,9.5l-27.6,38.1l-5.6,33l-16.8-18.7L398.2-21L387,17.9L411.9,7l5.3,23.7
		l12.4,8.6l9.2,16.1l144.3,67.1l-6.5,34.1l-98.4,77.7L428.8,106l22.7-45.5l-18-0.9L338-15.7l-22.5-59.4l1.9-23.6L302.4-111
		L302.4-111z M670.7-60.9l15.8,103l25.8,27l-12.8,68.1l39.8-164l-35.5-39.4L677-66.8l16.9-22.7l21.7,27.4l3.1-7.9l11.1,17.6
		l-37.5-75.3l-11.3,29.3l-16.2,3.3L670.7-60.9L670.7-60.9L670.7-60.9L670.7-60.9z M592.2-208.5L592.2-208.5L592.2-208.5l-7.8-4.2
		L592.2-208.5L528-225.6l-29.5,6.2l59.9,52.7l18.4,4.9l4.3-15.5l26.4-18.4L592.2-208.5L592.2-208.5z"/>
	<circle class="st1" cx="504" cy="8" r="233.8"/>
</g>
</svg>
