<?xml version="1.0" encoding="utf-8"?>
<svg version="1.1" xmlns="http://www.w3.org/2000/svg" xmlns:xlink="http://www.w3.org/1999/xlink" width="16" height="16" viewBox="0 0 16 16">
    <rect width="16" height="16" id="icon-bound" fill="none" />
  <path d="M0,13L3,13L3,14L1,14L0,14L0,13ZM4,11L16,11L16,13L4,13L4,11ZM1,13L0,13L0,12L1,12L1,13ZM3,12L0,12L0,11L2,11L2,10L0,10L0,9L3,9L3,12ZM4,7L16,7L16,9L4,9L4,7ZM0,6L1,6L1,7L0,7L0,6ZM2,6L3,6L3,7L2,7L2,6ZM0,2L2,2L2,7L1,7L1,3L0,3L0,2ZM4,3L16,3L16,5L4,5L4,3Z" />
</svg>
