<?xml version="1.0" encoding="utf-8"?>
<svg version="1.1" xmlns="http://www.w3.org/2000/svg" xmlns:xlink="http://www.w3.org/1999/xlink" width="16" height="16" viewBox="0 0 16 16">
  <rect width="16" height="16" id="icon-bound" fill="none" />
  <path d="M15.708,13.587l-3.675-3.675C12.646,8.92,13,7.751,13,6.5C13,2.91,10.09,0,6.5,0S0,2.91,0,6.5S2.91,13,6.5,13 c1.251,0,2.42-0.354,3.412-0.967l3.675,3.675c0.389,0.389,1.025,0.389,1.414,0l0.707-0.707 C16.097,14.612,16.097,13.976,15.708,13.587z M3.318,9.682C2.468,8.832,2,7.702,2,6.5s0.468-2.332,1.318-3.182S5.298,2,6.5,2 s2.332,0.468,3.182,1.318C10.532,4.168,11,5.298,11,6.5s-0.468,2.332-1.318,3.182C8.832,10.532,7.702,11,6.5,11 S4.168,10.532,3.318,9.682z" />
</svg>
