<?xml version="1.0" encoding="utf-8"?>
<!-- Generator: Adobe Illustrator 19.0.0, SVG Export Plug-In . SVG Version: 6.00 Build 0)  -->
<svg version="1.1" id="Layer_1" xmlns="http://www.w3.org/2000/svg" xmlns:xlink="http://www.w3.org/1999/xlink" x="0px" y="0px"
	 viewBox="-223 25 512 512" style="enable-background:new -223 25 512 512;" xml:space="preserve">
<style type="text/css">
	.st0{fill:none;stroke:#B35047;}
</style>
<g id="svgGrid">
	<line class="st0" x1="-191" y1="25" x2="-191" y2="537"/>
	<line class="st0" x1="-159" y1="25" x2="-159" y2="537"/>
	<line class="st0" x1="-127" y1="25" x2="-127" y2="537"/>
	<line class="st0" x1="-95" y1="25" x2="-95" y2="537"/>
	<line class="st0" x1="-63" y1="25" x2="-63" y2="537"/>
	<line class="st0" x1="-31" y1="25" x2="-31" y2="537"/>
	<line class="st0" x1="1" y1="25" x2="1" y2="537"/>
	<line class="st0" x1="33" y1="25" x2="33" y2="537"/>
	<line class="st0" x1="65" y1="25" x2="65" y2="537"/>
	<line class="st0" x1="97" y1="25" x2="97" y2="537"/>
	<line class="st0" x1="129" y1="25" x2="129" y2="537"/>
	<line class="st0" x1="161" y1="25" x2="161" y2="537"/>
	<line class="st0" x1="193" y1="25" x2="193" y2="537"/>
	<line class="st0" x1="225" y1="25" x2="225" y2="537"/>
	<line class="st0" x1="257" y1="25" x2="257" y2="537"/>
	<line class="st0" x1="-223" y1="57" x2="289" y2="57"/>
	<line class="st0" x1="-223" y1="89" x2="289" y2="89"/>
	<line class="st0" x1="-223" y1="121" x2="289" y2="121"/>
	<line class="st0" x1="-223" y1="153" x2="289" y2="153"/>
	<line class="st0" x1="-223" y1="185" x2="289" y2="185"/>
	<line class="st0" x1="-223" y1="217" x2="289" y2="217"/>
	<line class="st0" x1="-223" y1="249" x2="289" y2="249"/>
	<line class="st0" x1="-223" y1="281" x2="289" y2="281"/>
	<line class="st0" x1="-223" y1="313" x2="289" y2="313"/>
	<line class="st0" x1="-223" y1="345" x2="289" y2="345"/>
	<line class="st0" x1="-223" y1="377" x2="289" y2="377"/>
	<line class="st0" x1="-223" y1="409" x2="289" y2="409"/>
	<line class="st0" x1="-223" y1="441" x2="289" y2="441"/>
	<line class="st0" x1="-223" y1="473" x2="289" y2="473"/>
	<line class="st0" x1="-223" y1="505" x2="289" y2="505"/>
	<rect x="-223" y="25" class="st0" width="512" height="512"/>
</g>
<g>
	<g>
		<path d="M-197.2,396.3L-197.2,396.3L-223,537l140.7-25.8l299.7-299.7L102.6,96.6L-197.2,396.3z M-186.7,500.8l12.1-66.2l54,54
			L-186.7,500.8z M141.9,202.6L-83.4,427.9l-30.5-30.5l225.3-225.3L141.9,202.6z M269.1,83.1l-38.3-38.3
			c-21.1-21.1-53.3-23.3-71.6-5L126,73.2l114.9,114.9l33.3-33.3C292.4,136.4,290.2,104.2,269.1,83.1z"/>
	</g>
</g>
</svg>
