<?xml version="1.0" encoding="UTF-8" standalone="no"?>
<svg width="100%" height="100%" viewBox="0 0 16 16" version="1.1" xmlns="http://www.w3.org/2000/svg" xmlns:xlink="http://www.w3.org/1999/xlink" xml:space="preserve" xmlns:serif="http://www.serif.com/" style="fill-rule:evenodd;clip-rule:evenodd;stroke-linejoin:round;stroke-miterlimit:2;">
    <rect width="16" height="16" id="icon-bound" fill="none" />
    <path d="M8.008,0.002C12.425,0.002 16.011,3.588 16.011,8.005C16.011,12.422 12.425,16.008 8.008,16.008C3.591,16.008 0.005,12.422 0.005,8.005C0.005,3.588 3.591,0.002 8.008,0.002ZM8.008,2.013C11.315,2.013 14,4.698 14,8.005C14,11.312 11.315,13.997 8.008,13.997C4.701,13.997 2.016,11.312 2.016,8.005C2.016,4.698 4.701,2.013 8.008,2.013ZM7.989,6.011C9.097,6.011 9.996,6.91 9.996,8.017C9.996,9.125 9.097,10.024 7.989,10.024C6.882,10.024 5.983,9.125 5.983,8.017C5.983,6.91 6.882,6.011 7.989,6.011Z"/>
</svg>
