<?xml version="1.0" encoding="UTF-8" standalone="no"?>
<!DOCTYPE svg PUBLIC "-//W3C//DTD SVG 1.1//EN" "http://www.w3.org/Graphics/SVG/1.1/DTD/svg11.dtd">
<svg width="100%" height="100%" viewBox="0 0 16 16" version="1.1" xmlns="http://www.w3.org/2000/svg" xmlns:xlink="http://www.w3.org/1999/xlink" xml:space="preserve" xmlns:serif="http://www.serif.com/" style="fill-rule:evenodd;clip-rule:evenodd;stroke-linejoin:round;stroke-miterlimit:2;">
    <rect id="icon-bound" x="0" y="0" width="16" height="16" style="fill:none;"/>
    <path id="Record2" d="M8.008,0.002C12.425,0.002 16.011,3.588 16.011,8.005C16.011,12.422 12.425,16.008 8.008,16.008C3.591,16.008 0.005,12.422 0.005,8.005C0.005,3.588 3.591,0.002 8.008,0.002ZM8.008,2.013C11.315,2.013 14,4.698 14,8.005C14,11.312 11.315,13.997 8.008,13.997C4.701,13.997 2.016,11.312 2.016,8.005C2.016,4.698 4.701,2.013 8.008,2.013ZM7.989,4.008C10.202,4.008 11.999,5.805 11.999,8.017C11.999,10.23 10.202,12.027 7.989,12.027C5.777,12.027 3.98,10.23 3.98,8.017C3.98,5.805 5.777,4.008 7.989,4.008Z"/>
</svg>
