<?xml version="1.0" encoding="utf-8"?>
<!-- Generator: Adobe Illustrator 19.0.0, SVG Export Plug-In . SVG Version: 6.00 Build 0)  -->
<svg version="1.1" id="Layer_1" xmlns="http://www.w3.org/2000/svg" xmlns:xlink="http://www.w3.org/1999/xlink" x="0px" y="0px"
	 viewBox="-223 25 512 512" style="enable-background:new -223 25 512 512;" xml:space="preserve">
<style type="text/css">
	.st0{fill:none;stroke:#B35047;}
</style>
<g id="svgGrid">
	<line class="st0" x1="-191" y1="25" x2="-191" y2="537"/>
	<line class="st0" x1="-159" y1="25" x2="-159" y2="537"/>
	<line class="st0" x1="-127" y1="25" x2="-127" y2="537"/>
	<line class="st0" x1="-95" y1="25" x2="-95" y2="537"/>
	<line class="st0" x1="-63" y1="25" x2="-63" y2="537"/>
	<line class="st0" x1="-31" y1="25" x2="-31" y2="537"/>
	<line class="st0" x1="1" y1="25" x2="1" y2="537"/>
	<line class="st0" x1="33" y1="25" x2="33" y2="537"/>
	<line class="st0" x1="65" y1="25" x2="65" y2="537"/>
	<line class="st0" x1="97" y1="25" x2="97" y2="537"/>
	<line class="st0" x1="129" y1="25" x2="129" y2="537"/>
	<line class="st0" x1="161" y1="25" x2="161" y2="537"/>
	<line class="st0" x1="193" y1="25" x2="193" y2="537"/>
	<line class="st0" x1="225" y1="25" x2="225" y2="537"/>
	<line class="st0" x1="257" y1="25" x2="257" y2="537"/>
	<line class="st0" x1="-223" y1="57" x2="289" y2="57"/>
	<line class="st0" x1="-223" y1="89" x2="289" y2="89"/>
	<line class="st0" x1="-223" y1="121" x2="289" y2="121"/>
	<line class="st0" x1="-223" y1="153" x2="289" y2="153"/>
	<line class="st0" x1="-223" y1="185" x2="289" y2="185"/>
	<line class="st0" x1="-223" y1="217" x2="289" y2="217"/>
	<line class="st0" x1="-223" y1="249" x2="289" y2="249"/>
	<line class="st0" x1="-223" y1="281" x2="289" y2="281"/>
	<line class="st0" x1="-223" y1="313" x2="289" y2="313"/>
	<line class="st0" x1="-223" y1="345" x2="289" y2="345"/>
	<line class="st0" x1="-223" y1="377" x2="289" y2="377"/>
	<line class="st0" x1="-223" y1="409" x2="289" y2="409"/>
	<line class="st0" x1="-223" y1="441" x2="289" y2="441"/>
	<line class="st0" x1="-223" y1="473" x2="289" y2="473"/>
	<line class="st0" x1="-223" y1="505" x2="289" y2="505"/>
	<rect x="-223" y="25" class="st0" width="512" height="512"/>
</g>
<g>
	<g>
		<path d="M279.2,119.6L279.2,119.6l-73.5-78c-3.6-3.8-8.6-6.1-13.9-6.2c-5.3-0.2-10.4,1.8-14.2,5.4L60.6,151c-2.2,2.1-4,4.7-5,7.6
			l-3.7,10c-12-8.2-26.4-12.8-41.5-12.8c-10.7,0-21,2.3-30.7,6.8c-17.8,8.2-31.3,22.8-38.1,41.2c-6.8,18.4-6,38.4,2.3,56.3l9.7,20.9
			l-41,12.4c-2.9,0.9-5.6,2.5-7.9,4.6l-116.9,110.2c-8,7.5-8.4,20.1-0.8,28.1l73.5,78c3.6,3.8,8.6,6.1,13.9,6.2h0.6
			c5.1,0,9.9-1.9,13.6-5.4L5.5,404.8c2.2-2.1,3.9-4.7,5-7.6l3.8-10.2c12,8.2,26.4,12.9,41.5,12.9c10.7,0,21-2.3,30.7-6.8
			c36.8-17.1,52.8-60.8,35.8-97.5l-9.7-20.8l40.9-12.4c2.9-0.9,5.6-2.4,7.9-4.6l117-110.2c3.8-3.6,6.1-8.6,6.2-13.9
			C284.7,128.5,282.8,123.4,279.2,119.6z M-25.2,379.2l-99,93.5l-46.2-49.1l99-93.4l41.9-12.7l15.1,32.5L-25.2,379.2z M69.7,357.1
			L69.7,357.1c-4.4,2.1-9.1,3.1-14,3.1c-13.2,0-25.2-7.7-30.7-19.5l-45.1-97.2c-3.8-8.2-4.2-17.4-1-25.8c3.1-8.4,9.3-15.1,17.5-18.9
			c4.4-2.1,9.1-3.1,14-3.1c13.2,0,25.2,7.7,30.7,19.5l4.6,10l40.5,87.2C94,329.2,86.6,349.2,69.7,357.1z M137.5,225.7L137.5,225.7
			l-41.8,12.7l-15.1-32.5l10.7-29.2l99.1-93.4l46.2,49.1L137.5,225.7z"/>
	</g>
</g>
</svg>
