<svg xmlns="http://www.w3.org/2000/svg" width="512" height="512" viewBox="0 0 512 512">
  <g id="svgGrid">
    <line fill="none" stroke="#B35047" x1="32" y1="0" x2="32" y2="512" />
    <line fill="none" stroke="#B35047" x1="64" y1="0" x2="64" y2="512" />
    <line fill="none" stroke="#B35047" x1="96" y1="0" x2="96" y2="512" />
    <line fill="none" stroke="#B35047" x1="128" y1="0" x2="128" y2="512" />
    <line fill="none" stroke="#B35047" x1="160" y1="0" x2="160" y2="512" />
    <line fill="none" stroke="#B35047" x1="192" y1="0" x2="192" y2="512" />
    <line fill="none" stroke="#B35047" x1="224" y1="0" x2="224" y2="512" />
    <line fill="none" stroke="#B35047" x1="256" y1="0" x2="256" y2="512" />
    <line fill="none" stroke="#B35047" x1="288" y1="0" x2="288" y2="512" />
    <line fill="none" stroke="#B35047" x1="320" y1="0" x2="320" y2="512" />
    <line fill="none" stroke="#B35047" x1="352" y1="0" x2="352" y2="512" />
    <line fill="none" stroke="#B35047" x1="384" y1="0" x2="384" y2="512" />
    <line fill="none" stroke="#B35047" x1="416" y1="0" x2="416" y2="512" />
    <line fill="none" stroke="#B35047" x1="448" y1="0" x2="448" y2="512" />
    <line fill="none" stroke="#B35047" x1="480" y1="0" x2="480" y2="512" />
    <line fill="none" stroke="#B35047" x1="0" y1="32" x2="512" y2="32" />
    <line fill="none" stroke="#B35047" x1="0" y1="64" x2="512" y2="64" />
    <line fill="none" stroke="#B35047" x1="0" y1="96" x2="512" y2="96" />
    <line fill="none" stroke="#B35047" x1="0" y1="128" x2="512" y2="128" />
    <line fill="none" stroke="#B35047" x1="0" y1="160" x2="512" y2="160" />
    <line fill="none" stroke="#B35047" x1="0" y1="192" x2="512" y2="192" />
    <line fill="none" stroke="#B35047" x1="0" y1="224" x2="512" y2="224" />
    <line fill="none" stroke="#B35047" x1="0" y1="256" x2="512" y2="256" />
    <line fill="none" stroke="#B35047" x1="0" y1="288" x2="512" y2="288" />
    <line fill="none" stroke="#B35047" x1="0" y1="320" x2="512" y2="320" />
    <line fill="none" stroke="#B35047" x1="0" y1="352" x2="512" y2="352" />
    <line fill="none" stroke="#B35047" x1="0" y1="384" x2="512" y2="384" />
    <line fill="none" stroke="#B35047" x1="0" y1="416" x2="512" y2="416" />
    <line fill="none" stroke="#B35047" x1="0" y1="448" x2="512" y2="448" />
    <line fill="none" stroke="#B35047" x1="0" y1="480" x2="512" y2="480" />
    <rect fill="none" stroke="#B35047" width="512" height="512" />
  </g>
  <path d="M502.2 94.6l-73.5-78c-3.6-3.8-8.6-6.1-13.9-6.2-5.3-.2-10.4 1.8-14.2 5.4l-117 110.2c-2.2 2.1-4 4.7-5 7.6l-3.7 10c-12-8.2-26.4-12.8-41.5-12.8-10.7 0-21 2.3-30.7 6.8-17.8 8.2-31.3 22.8-38.1 41.2-6.8 18.4-6 38.4 2.3 56.3l9.7 20.9-41 12.4c-2.9.9-5.6 2.5-7.9 4.6l-116.9 110.2c-8 7.5-8.4 20.1-.8 28.1l73.5 78c3.6 3.8 8.6 6.1 13.9 6.2h.6c5.1 0 9.9-1.9 13.6-5.4l116.9-110.3c2.2-2.1 3.9-4.7 5-7.6l3.8-10.2c12 8.2 26.4 12.9 41.5 12.9 10.7 0 21-2.3 30.7-6.8 36.8-17.1 52.8-60.8 35.8-97.5l-9.7-20.8 40.9-12.4c2.9-.9 5.6-2.4 7.9-4.6l117-110.2c3.8-3.6 6.1-8.6 6.2-13.9.1-5.2-1.8-10.3-5.4-14.1zm-304.4 259.6l-99 93.5-46.2-49.1 99-93.4 41.9-12.7 15.1 32.5-10.8 29.2zm94.9-22.1c-4.4 2.1-9.1 3.1-14 3.1-13.2 0-25.2-7.7-30.7-19.5l-45.1-97.2c-3.8-8.2-4.2-17.4-1-25.8 3.1-8.4 9.3-15.1 17.5-18.9 4.4-2.1 9.1-3.1 14-3.1 13.2 0 25.2 7.7 30.7 19.5l4.6 10 40.5 87.2c7.8 16.8.4 36.8-16.5 44.7zm67.8-131.4l-41.8 12.7-15.1-32.5 10.7-29.2 99.1-93.4 46.2 49.1-99.1 93.3z" />
</svg>
