<?xml version="1.0" encoding="utf-8"?>
<svg version="1.1" xmlns="http://www.w3.org/2000/svg" xmlns:xlink="http://www.w3.org/1999/xlink" width="16" height="16" viewBox="0 0 16 16">
  <rect width="16" height="16" id="icon-bound" fill="none" />
  <path id="subscript" d="M13,12l0,-1l2,0c0.552,0 1,0.448 1,1l0,1c-0,0.552 -0.448,1 -1,1l-0.75,0c-0.066,-0 -0.13,0.026 -0.177,0.073c-0.047,0.047 -0.073,0.111 -0.073,0.177c0,0.153 0,0.347 0,0.5c-0,0.066 0.026,0.13 0.073,0.177c0.047,0.047 0.111,0.073 0.177,0.073l1.75,0l0,1l-2,0c-0.552,-0 -1,-0.448 -1,-1l0,-1c0,-0.552 0.448,-1 1,-1l0.75,-0c0.066,0 0.13,-0.026 0.177,-0.073c0.047,-0.047 0.073,-0.111 0.073,-0.177c0,-0.153 0,-0.347 0,-0.5c0,-0.066 -0.026,-0.13 -0.073,-0.177c-0.047,-0.047 -0.111,-0.073 -0.177,-0.073l-1.75,0Zm-1,3l-2,0l0,-5l-6,0l0,5l-2,0l0,-9c0,-2.76 2.24,-5 5,-5c2.76,0 5,2.24 5,5l0,9Zm-2,-7l0,-2c0,-1.656 -1.344,-3 -3,-3c-1.656,0 -3,1.344 -3,3l0,2l6,0Z" style="fill-rule:nonzero;" />
</svg>
