<?xml version="1.0" encoding="utf-8"?>
<svg version="1.1" xmlns="http://www.w3.org/2000/svg" xmlns:xlink="http://www.w3.org/1999/xlink" width="16" height="16" viewBox="0 0 16 16">
  <rect width="16" height="16" id="icon-bound" fill="none" />
  <path d="M14.497,0H9.988C9.162,0,8.007,0.478,7.423,1.063L0.438,8.047c-0.585,0.585-0.585,1.541,0,2.125l5.389,5.389 c0.584,0.585,1.541,0.585,2.125,0l6.984-6.984C15.522,7.993,16,6.838,16,6.012V1.503C16,0.676,15.324,0,14.497,0z M12.5,5 C11.672,5,11,4.328,11,3.5S11.672,2,12.5,2S14,2.672,14,3.5S13.328,5,12.5,5z" />
</svg>
