<svg xmlns="http://www.w3.org/2000/svg" width="512" height="512" viewBox="0 0 512 512">
  <g id="svgGrid">
    <line fill="none" stroke="#B35047" x1="32" y1="0" x2="32" y2="512" />
    <line fill="none" stroke="#B35047" x1="64" y1="0" x2="64" y2="512" />
    <line fill="none" stroke="#B35047" x1="96" y1="0" x2="96" y2="512" />
    <line fill="none" stroke="#B35047" x1="128" y1="0" x2="128" y2="512" />
    <line fill="none" stroke="#B35047" x1="160" y1="0" x2="160" y2="512" />
    <line fill="none" stroke="#B35047" x1="192" y1="0" x2="192" y2="512" />
    <line fill="none" stroke="#B35047" x1="224" y1="0" x2="224" y2="512" />
    <line fill="none" stroke="#B35047" x1="256" y1="0" x2="256" y2="512" />
    <line fill="none" stroke="#B35047" x1="288" y1="0" x2="288" y2="512" />
    <line fill="none" stroke="#B35047" x1="320" y1="0" x2="320" y2="512" />
    <line fill="none" stroke="#B35047" x1="352" y1="0" x2="352" y2="512" />
    <line fill="none" stroke="#B35047" x1="384" y1="0" x2="384" y2="512" />
    <line fill="none" stroke="#B35047" x1="416" y1="0" x2="416" y2="512" />
    <line fill="none" stroke="#B35047" x1="448" y1="0" x2="448" y2="512" />
    <line fill="none" stroke="#B35047" x1="480" y1="0" x2="480" y2="512" />
    <line fill="none" stroke="#B35047" x1="0" y1="32" x2="512" y2="32" />
    <line fill="none" stroke="#B35047" x1="0" y1="64" x2="512" y2="64" />
    <line fill="none" stroke="#B35047" x1="0" y1="96" x2="512" y2="96" />
    <line fill="none" stroke="#B35047" x1="0" y1="128" x2="512" y2="128" />
    <line fill="none" stroke="#B35047" x1="0" y1="160" x2="512" y2="160" />
    <line fill="none" stroke="#B35047" x1="0" y1="192" x2="512" y2="192" />
    <line fill="none" stroke="#B35047" x1="0" y1="224" x2="512" y2="224" />
    <line fill="none" stroke="#B35047" x1="0" y1="256" x2="512" y2="256" />
    <line fill="none" stroke="#B35047" x1="0" y1="288" x2="512" y2="288" />
    <line fill="none" stroke="#B35047" x1="0" y1="320" x2="512" y2="320" />
    <line fill="none" stroke="#B35047" x1="0" y1="352" x2="512" y2="352" />
    <line fill="none" stroke="#B35047" x1="0" y1="384" x2="512" y2="384" />
    <line fill="none" stroke="#B35047" x1="0" y1="416" x2="512" y2="416" />
    <line fill="none" stroke="#B35047" x1="0" y1="448" x2="512" y2="448" />
    <line fill="none" stroke="#B35047" x1="0" y1="480" x2="512" y2="480" />
    <rect fill="none" stroke="#B35047" width="512" height="512" />
  </g>
  <path d="M264 338.7c-141.2 0-245.2-59.1-249.6-61.6-7-4-11.3-11.5-11.3-19.5s4.3-15.5 11.3-19.5c2.7-1.5 63.8-36.3 155.4-52.9 16.7-28.2 49.8-46.4 86.6-46.4 19.8 0 38.9 5.2 55.2 15.1 12.5 7.5 22.6 17.4 29.9 28.8 55.2 8.9 107.8 27.5 156.7 55.3 7 4 11.4 11.5 11.4 19.6 0 8.1-4.4 15.6-11.4 19.5-72.1 40.9-150.9 61.6-234.2 61.6zm-184.7-81.1c40.6 16 106.9 36.1 184.7 36.1 60.7 0 118.8-12.1 173.2-36.2-36-15.9-73.9-26.6-113.1-32-7.8-1.1-14.5-6.1-17.6-13.4-7.4-17-27.5-28.4-50-28.4-23 0-43.7 12.2-50.5 29.7-2.9 7.5-9.5 12.8-17.4 14.1-45 7.3-82.7 19.6-109.3 30.1z" />
</svg>
