<?xml version="1.0" encoding="utf-8"?>
<!-- Generator: Adobe Illustrator 19.0.0, SVG Export Plug-In . SVG Version: 6.00 Build 0)  -->
<svg version="1.1" id="Layer_1" xmlns="http://www.w3.org/2000/svg" xmlns:xlink="http://www.w3.org/1999/xlink" x="0px" y="0px"
	 viewBox="-223 25 512 512" style="enable-background:new -223 25 512 512;" xml:space="preserve">
<style type="text/css">
	.st0{fill:none;stroke:#B35047;}
</style>
<g id="svgGrid">
	<line class="st0" x1="-191" y1="25" x2="-191" y2="537"/>
	<line class="st0" x1="-159" y1="25" x2="-159" y2="537"/>
	<line class="st0" x1="-127" y1="25" x2="-127" y2="537"/>
	<line class="st0" x1="-95" y1="25" x2="-95" y2="537"/>
	<line class="st0" x1="-63" y1="25" x2="-63" y2="537"/>
	<line class="st0" x1="-31" y1="25" x2="-31" y2="537"/>
	<line class="st0" x1="1" y1="25" x2="1" y2="537"/>
	<line class="st0" x1="33" y1="25" x2="33" y2="537"/>
	<line class="st0" x1="65" y1="25" x2="65" y2="537"/>
	<line class="st0" x1="97" y1="25" x2="97" y2="537"/>
	<line class="st0" x1="129" y1="25" x2="129" y2="537"/>
	<line class="st0" x1="161" y1="25" x2="161" y2="537"/>
	<line class="st0" x1="193" y1="25" x2="193" y2="537"/>
	<line class="st0" x1="225" y1="25" x2="225" y2="537"/>
	<line class="st0" x1="257" y1="25" x2="257" y2="537"/>
	<line class="st0" x1="-223" y1="57" x2="289" y2="57"/>
	<line class="st0" x1="-223" y1="89" x2="289" y2="89"/>
	<line class="st0" x1="-223" y1="121" x2="289" y2="121"/>
	<line class="st0" x1="-223" y1="153" x2="289" y2="153"/>
	<line class="st0" x1="-223" y1="185" x2="289" y2="185"/>
	<line class="st0" x1="-223" y1="217" x2="289" y2="217"/>
	<line class="st0" x1="-223" y1="249" x2="289" y2="249"/>
	<line class="st0" x1="-223" y1="281" x2="289" y2="281"/>
	<line class="st0" x1="-223" y1="313" x2="289" y2="313"/>
	<line class="st0" x1="-223" y1="345" x2="289" y2="345"/>
	<line class="st0" x1="-223" y1="377" x2="289" y2="377"/>
	<line class="st0" x1="-223" y1="409" x2="289" y2="409"/>
	<line class="st0" x1="-223" y1="441" x2="289" y2="441"/>
	<line class="st0" x1="-223" y1="473" x2="289" y2="473"/>
	<line class="st0" x1="-223" y1="505" x2="289" y2="505"/>
	<rect x="-223" y="25" class="st0" width="512" height="512"/>
</g>
<g>
	<g>
		<path d="M275.2,263c-48.9-27.8-101.5-46.4-156.7-55.3c-7.3-11.4-17.4-21.3-29.9-28.8c-16.3-9.9-35.4-15.1-55.2-15.1
			c-36.8,0-69.9,18.2-86.6,46.4c-91.6,16.6-152.7,51.4-155.4,52.9c-7,4-11.3,11.5-11.3,19.5s4.3,15.5,11.3,19.5
			c4.4,2.5,108.4,61.6,249.6,61.6c83.3,0,162.1-20.7,234.2-61.6c7-3.9,11.4-11.4,11.4-19.5C286.6,274.5,282.2,267,275.2,263z
			 M41,318.7c-77.8,0-144.1-20.1-184.7-36.1c26.6-10.5,64.3-22.8,109.3-30.1c7.9-1.3,14.5-6.6,17.4-14.1
			c6.8-17.5,27.5-29.7,50.5-29.7c22.5,0,42.6,11.4,50,28.4c3.1,7.3,9.8,12.3,17.6,13.4c39.2,5.4,77.1,16.1,113.1,32
			C159.8,306.6,101.7,318.7,41,318.7z"/>
	</g>
</g>
</svg>
