<?xml version="1.0" encoding="utf-8"?>
<!-- Generator: Adobe Illustrator 19.0.0, SVG Export Plug-In . SVG Version: 6.00 Build 0)  -->
<svg version="1.1" xmlns="http://www.w3.org/2000/svg" xmlns:xlink="http://www.w3.org/1999/xlink" x="0px" y="0px"
	 viewBox="0 0 512 512" enable-background="new 0 0 512 512" xml:space="preserve">
<g id="grid">
	<g id="svgGrid">
		<line id="XMLID_53_" fill="none" stroke="#B35047" x1="32" y1="0" x2="32" y2="512"/>
		<line id="XMLID_52_" fill="none" stroke="#B35047" x1="64" y1="0" x2="64" y2="512"/>
		<line id="XMLID_51_" fill="none" stroke="#B35047" x1="96" y1="0" x2="96" y2="512"/>
		<line id="XMLID_50_" fill="none" stroke="#B35047" x1="128" y1="0" x2="128" y2="512"/>
		<line id="XMLID_49_" fill="none" stroke="#B35047" x1="160" y1="0" x2="160" y2="512"/>
		<line id="XMLID_48_" fill="none" stroke="#B35047" x1="192" y1="0" x2="192" y2="512"/>
		<line id="XMLID_47_" fill="none" stroke="#B35047" x1="224" y1="0" x2="224" y2="512"/>
		<line id="XMLID_46_" fill="none" stroke="#B35047" x1="256" y1="0" x2="256" y2="512"/>
		<line id="XMLID_45_" fill="none" stroke="#B35047" x1="288" y1="0" x2="288" y2="512"/>
		<line id="XMLID_44_" fill="none" stroke="#B35047" x1="320" y1="0" x2="320" y2="512"/>
		<line id="XMLID_43_" fill="none" stroke="#B35047" x1="352" y1="0" x2="352" y2="512"/>
		<line id="XMLID_42_" fill="none" stroke="#B35047" x1="384" y1="0" x2="384" y2="512"/>
		<line id="XMLID_41_" fill="none" stroke="#B35047" x1="416" y1="0" x2="416" y2="512"/>
		<line id="XMLID_40_" fill="none" stroke="#B35047" x1="448" y1="0" x2="448" y2="512"/>
		<line id="XMLID_39_" fill="none" stroke="#B35047" x1="480" y1="0" x2="480" y2="512"/>
		<line id="XMLID_38_" fill="none" stroke="#B35047" x1="0" y1="32" x2="512" y2="32"/>
		<line id="XMLID_37_" fill="none" stroke="#B35047" x1="0" y1="64" x2="512" y2="64"/>
		<line id="XMLID_36_" fill="none" stroke="#B35047" x1="0" y1="96" x2="512" y2="96"/>
		<line id="XMLID_35_" fill="none" stroke="#B35047" x1="0" y1="128" x2="512" y2="128"/>
		<line id="XMLID_34_" fill="none" stroke="#B35047" x1="0" y1="160" x2="512" y2="160"/>
		<line id="XMLID_32_" fill="none" stroke="#B35047" x1="0" y1="192" x2="512" y2="192"/>
		<line id="XMLID_31_" fill="none" stroke="#B35047" x1="0" y1="224" x2="512" y2="224"/>
		<line id="XMLID_30_" fill="none" stroke="#B35047" x1="0" y1="256" x2="512" y2="256"/>
		<line id="XMLID_29_" fill="none" stroke="#B35047" x1="0" y1="288" x2="512" y2="288"/>
		<line id="XMLID_28_" fill="none" stroke="#B35047" x1="0" y1="320" x2="512" y2="320"/>
		<line id="XMLID_27_" fill="none" stroke="#B35047" x1="0" y1="352" x2="512" y2="352"/>
		<line id="XMLID_23_" fill="none" stroke="#B35047" x1="0" y1="384" x2="512" y2="384"/>
		<line id="XMLID_22_" fill="none" stroke="#B35047" x1="0" y1="416" x2="512" y2="416"/>
		<line id="XMLID_21_" fill="none" stroke="#B35047" x1="0" y1="448" x2="512" y2="448"/>
		<line id="XMLID_20_" fill="none" stroke="#B35047" x1="0" y1="480" x2="512" y2="480"/>
		<rect id="XMLID_9_" fill="none" stroke="#B35047" width="512" height="512"/>
	</g>
</g>
<g id="Layer_22">
	<path id="XMLID_207_" d="M84.8,319.7c-26.4,0-55.8,0-61.5,0c-12.6,0-5.1-35.6-5.1-35.6c2.4-9.9,4.8-18.9,6.8-24
		c6.4-16.8,37-28.8,64.3-37.2l4.4-1c10.5,6.8,22.5,10.7,35.4,10.7c9.9,0,19.4-2.3,28-6.5c3.9,13.7,9.9,26.3,17.7,37.3
		C135.5,277,96.1,295.4,84.8,319.7z M152,189.2c0-29.4,9.3-56.2,24.8-76.9c-10-18.4-27.7-30.6-47.7-30.6c-31.2,0-56.6,29.5-56.6,66
		c0,36.4,25.3,66,56.6,66c8.6,0,16.8-2.3,24.1-6.3C152.4,201.5,152,195.4,152,189.2z M382.9,81.7c-20.1,0-37.7,12.2-47.8,30.7
		c15.4,20.7,24.7,47.5,24.7,76.8c0,6.2-0.4,12.2-1.2,18.1c7.3,4.1,15.6,6.4,24.2,6.4c31.2,0,56.6-29.5,56.6-66
		C439.5,111.2,414.2,81.7,382.9,81.7z M493.8,284.1c-2.4-9.9-4.8-18.9-6.8-24c-6.4-16.8-37-28.8-64.3-37.2l-4.4-1
		c-10.5,6.8-22.5,10.7-35.4,10.7c-10,0-19.5-2.4-28.1-6.6c-3.9,13.7-10,26.3-17.7,37.3c39.2,13.7,78.6,32.1,89.9,56.4
		c26.4,0,55.9,0,61.6,0C501.3,319.7,493.8,284.1,493.8,284.1z M255.9,102.2c-41.2,0-74.6,38.9-74.6,87s33.4,87,74.6,87
		s74.6-38.9,74.6-87S297.1,102.2,255.9,102.2z M402,369c-3.2-13.1-6.3-24.9-8.9-31.7c-8.4-22.1-48.7-38-84.8-49.1l-5.8-1.3
		c-13.8,9-29.7,14.1-46.7,14.1c-16.9,0-32.8-5.1-46.7-14.1l-5.8,1.3c-36,11.1-76.4,27-84.8,49.1c-2.6,6.8-5.8,18.6-8.9,31.7
		c0,0-10,47,6.7,47c14.2,0,139.4,0,139.4,0s125.2,0,139.4,0C412,416,402,369,402,369z"/>
</g>
</svg>
