<?xml version="1.0" encoding="utf-8"?>
<!-- Generator: Adobe Illustrator 19.0.0, SVG Export Plug-In . SVG Version: 6.00 Build 0)  -->
<svg version="1.1" xmlns="http://www.w3.org/2000/svg" xmlns:xlink="http://www.w3.org/1999/xlink" x="0px" y="0px"
	 viewBox="0 0 512 512" enable-background="new 0 0 512 512" xml:space="preserve">
<g id="grid">
	<g id="svgGrid">
		<line id="XMLID_53_" fill="none" stroke="#B35047" x1="32" y1="0" x2="32" y2="512"/>
		<line id="XMLID_52_" fill="none" stroke="#B35047" x1="64" y1="0" x2="64" y2="512"/>
		<line id="XMLID_51_" fill="none" stroke="#B35047" x1="96" y1="0" x2="96" y2="512"/>
		<line id="XMLID_50_" fill="none" stroke="#B35047" x1="128" y1="0" x2="128" y2="512"/>
		<line id="XMLID_49_" fill="none" stroke="#B35047" x1="160" y1="0" x2="160" y2="512"/>
		<line id="XMLID_48_" fill="none" stroke="#B35047" x1="192" y1="0" x2="192" y2="512"/>
		<line id="XMLID_47_" fill="none" stroke="#B35047" x1="224" y1="0" x2="224" y2="512"/>
		<line id="XMLID_46_" fill="none" stroke="#B35047" x1="256" y1="0" x2="256" y2="512"/>
		<line id="XMLID_45_" fill="none" stroke="#B35047" x1="288" y1="0" x2="288" y2="512"/>
		<line id="XMLID_44_" fill="none" stroke="#B35047" x1="320" y1="0" x2="320" y2="512"/>
		<line id="XMLID_43_" fill="none" stroke="#B35047" x1="352" y1="0" x2="352" y2="512"/>
		<line id="XMLID_42_" fill="none" stroke="#B35047" x1="384" y1="0" x2="384" y2="512"/>
		<line id="XMLID_41_" fill="none" stroke="#B35047" x1="416" y1="0" x2="416" y2="512"/>
		<line id="XMLID_40_" fill="none" stroke="#B35047" x1="448" y1="0" x2="448" y2="512"/>
		<line id="XMLID_39_" fill="none" stroke="#B35047" x1="480" y1="0" x2="480" y2="512"/>
		<line id="XMLID_38_" fill="none" stroke="#B35047" x1="0" y1="32" x2="512" y2="32"/>
		<line id="XMLID_37_" fill="none" stroke="#B35047" x1="0" y1="64" x2="512" y2="64"/>
		<line id="XMLID_36_" fill="none" stroke="#B35047" x1="0" y1="96" x2="512" y2="96"/>
		<line id="XMLID_35_" fill="none" stroke="#B35047" x1="0" y1="128" x2="512" y2="128"/>
		<line id="XMLID_34_" fill="none" stroke="#B35047" x1="0" y1="160" x2="512" y2="160"/>
		<line id="XMLID_32_" fill="none" stroke="#B35047" x1="0" y1="192" x2="512" y2="192"/>
		<line id="XMLID_31_" fill="none" stroke="#B35047" x1="0" y1="224" x2="512" y2="224"/>
		<line id="XMLID_30_" fill="none" stroke="#B35047" x1="0" y1="256" x2="512" y2="256"/>
		<line id="XMLID_29_" fill="none" stroke="#B35047" x1="0" y1="288" x2="512" y2="288"/>
		<line id="XMLID_28_" fill="none" stroke="#B35047" x1="0" y1="320" x2="512" y2="320"/>
		<line id="XMLID_27_" fill="none" stroke="#B35047" x1="0" y1="352" x2="512" y2="352"/>
		<line id="XMLID_23_" fill="none" stroke="#B35047" x1="0" y1="384" x2="512" y2="384"/>
		<line id="XMLID_22_" fill="none" stroke="#B35047" x1="0" y1="416" x2="512" y2="416"/>
		<line id="XMLID_21_" fill="none" stroke="#B35047" x1="0" y1="448" x2="512" y2="448"/>
		<line id="XMLID_20_" fill="none" stroke="#B35047" x1="0" y1="480" x2="512" y2="480"/>
		<rect id="XMLID_9_" fill="none" stroke="#B35047" width="512" height="512"/>
	</g>
</g>
<g id="Layer_11" display="none">
	<path id="XMLID_33_" display="inline" opacity="0.68" d="M444.1,423.5c-4.1-16.9-8.2-32-11.5-40.8c-10.8-28.4-62.8-48.9-109.1-63.2
		c0.3-5,0-14-5.5-19.4c-3.5-3.4-8.9-4.7-13.8-5.1v-38.2c6.1-6.3,12.9-13.9,15.2-19.3c4.3-10.2,4.7-22.7,5.9-25.3
		c2.6-5.9,7.9-4.9,12.2-11.7c3.3-5.1,8.9-35.6,7.4-41s-8.9-8.7-9.6-28.3c-0.1-3.6-0.2-10.5-1.6-18.9l0,0l0,0c-0.5-2.9-1.1-5.9-2-9
		c-5.5-22.9-10.7-29.1-27.2-43.2c-18.6-15.8-53.6-11.6-53.6-11.6C236.8,49.4,243,34,243,34c-14,4.6-20.5,12.7-23.4,18.8
		c-7.1-4-3.8-13.6-3.8-13.6c-13.9,7-18,22.2-19.2,30.2c-15.6,15.3-17.8,40.7-17.8,40.7l0,0c-1.8,9.3-1.9,17.2-2,21.1
		c-0.7,19.6-8.1,22.9-9.6,28.3s4.2,35.9,7.4,41c4.3,6.8,9.6,5.8,12.2,11.7c1.2,2.7,1.5,15.2,5.9,25.3c2.3,5.3,9,13,15.2,19.3v38.2
		c-4.9,0.4-10.3,1.7-13.8,5.1c-5.5,5.4-5.8,14.5-5.5,19.4c-46.4,14.3-98.3,34.8-109.1,63.2c-3.3,8.8-7.4,23.9-11.5,40.8
		c0,0-12.9,60.5,8.6,60.5c18.3,0,179.5,0,179.5,0s161.2,0,179.5,0C457,484,444.1,423.5,444.1,423.5z"/>
</g>
<g id="Layer_3" display="none">
	<path id="XMLID_1_" display="inline" opacity="0.68" d="M323.5,319.5c46.4,14.3,98.3,34.8,109.1,63.2c3.3,8.8,7.4,23.9,11.5,40.8
		c0,0,12.9,60.5-8.6,60.5c-18.3,0-179.5,0-179.5,0s-161.2,0-179.5,0c-21.5,0-8.6-60.5-8.6-60.5c4.1-16.9,8.2-32,11.5-40.8
		c10.8-28.4,62.8-48.9,109.1-63.2L256,304L323.5,319.5z"/>
	<ellipse id="XMLID_2_" display="inline" cx="256" cy="192" rx="96" ry="112"/>
	<ellipse id="XMLID_3_" display="inline" cx="256" cy="192" rx="123.4" ry="144"/>
</g>
<g id="Layer_4" display="none">
	<ellipse id="XMLID_5_" display="inline" cx="256" cy="192" rx="96" ry="112"/>
	<path id="XMLID_8_" display="inline" d="M444.1,423.5c-4.1-16.9-8.2-32-11.5-40.8c-10.8-28.4-62.8-48.9-109.1-63.2l-7.4-1.7
		C298.3,329.4,277.8,336,256,336s-42.3-6.6-60.1-18.2l-7.4,1.7c-46.4,14.3-98.3,34.8-109.1,63.2c-3.3,8.8-7.4,23.9-11.5,40.8
		c0,0-12.9,60.5,8.6,60.5c18.3,0,179.5,0,179.5,0s161.2,0,179.5,0C457,484,444.1,423.5,444.1,423.5z"/>
</g>
<g id="Layer_6" display="none">
	<rect id="XMLID_7_" display="inline" fill="#FFFFFF" width="512" height="512"/>
</g>
<g id="Layer_5">
	<g id="XMLID_4_">
		<g id="XMLID_85_">
			<path id="XMLID_86_" d="M256,300c53,0,96-50.1,96-112S309,76,256,76s-96,50.1-96,112S203,300,256,300z M444.1,419.5
				c-4.1-16.9-8.2-32-11.5-40.8c-10.8-28.4-62.8-48.9-109.1-63.2l-7.4-1.7C298.3,325.4,277.8,332,256,332s-42.3-6.6-60.1-18.2
				l-7.4,1.7c-46.4,14.3-98.3,34.8-109.1,63.2c-3.3,8.8-7.4,23.9-11.5,40.8c0,0-12.9,60.5,8.6,60.5c18.3,0,179.5,0,179.5,0
				s161.2,0,179.5,0C457,480,444.1,419.5,444.1,419.5z"/>
		</g>
	</g>
</g>
</svg>
