<?xml version="1.0" encoding="utf-8"?>
<!-- Generator: Adobe Illustrator 19.0.0, SVG Export Plug-In . SVG Version: 6.00 Build 0)  -->
<svg version="1.1" id="Layer_1" xmlns="http://www.w3.org/2000/svg" xmlns:xlink="http://www.w3.org/1999/xlink" x="0px" y="0px"
	 viewBox="-223 25 512 512" style="enable-background:new -223 25 512 512;" xml:space="preserve">
<style type="text/css">
	.st0{fill:none;stroke:#B35047;}
	.st1{display:none;}
	.st2{display:inline;opacity:0.68;enable-background:new    ;}
	.st3{display:inline;}
	.st4{display:inline;fill:#FFFFFF;}
	.st5{display:inline;fill:#4320FF;}
</style>
<g id="grid">
	<g id="svgGrid">
		<line id="XMLID_53_" class="st0" x1="-191" y1="25" x2="-191" y2="537"/>
		<line id="XMLID_52_" class="st0" x1="-159" y1="25" x2="-159" y2="537"/>
		<line id="XMLID_51_" class="st0" x1="-127" y1="25" x2="-127" y2="537"/>
		<line id="XMLID_50_" class="st0" x1="-95" y1="25" x2="-95" y2="537"/>
		<line id="XMLID_49_" class="st0" x1="-63" y1="25" x2="-63" y2="537"/>
		<line id="XMLID_48_" class="st0" x1="-31" y1="25" x2="-31" y2="537"/>
		<line id="XMLID_47_" class="st0" x1="1" y1="25" x2="1" y2="537"/>
		<line id="XMLID_46_" class="st0" x1="33" y1="25" x2="33" y2="537"/>
		<line id="XMLID_45_" class="st0" x1="65" y1="25" x2="65" y2="537"/>
		<line id="XMLID_44_" class="st0" x1="97" y1="25" x2="97" y2="537"/>
		<line id="XMLID_43_" class="st0" x1="129" y1="25" x2="129" y2="537"/>
		<line id="XMLID_42_" class="st0" x1="161" y1="25" x2="161" y2="537"/>
		<line id="XMLID_41_" class="st0" x1="193" y1="25" x2="193" y2="537"/>
		<line id="XMLID_40_" class="st0" x1="225" y1="25" x2="225" y2="537"/>
		<line id="XMLID_39_" class="st0" x1="257" y1="25" x2="257" y2="537"/>
		<line id="XMLID_38_" class="st0" x1="-223" y1="57" x2="289" y2="57"/>
		<line id="XMLID_37_" class="st0" x1="-223" y1="89" x2="289" y2="89"/>
		<line id="XMLID_36_" class="st0" x1="-223" y1="121" x2="289" y2="121"/>
		<line id="XMLID_35_" class="st0" x1="-223" y1="153" x2="289" y2="153"/>
		<line id="XMLID_34_" class="st0" x1="-223" y1="185" x2="289" y2="185"/>
		<line id="XMLID_32_" class="st0" x1="-223" y1="217" x2="289" y2="217"/>
		<line id="XMLID_31_" class="st0" x1="-223" y1="249" x2="289" y2="249"/>
		<line id="XMLID_30_" class="st0" x1="-223" y1="281" x2="289" y2="281"/>
		<line id="XMLID_29_" class="st0" x1="-223" y1="313" x2="289" y2="313"/>
		<line id="XMLID_28_" class="st0" x1="-223" y1="345" x2="289" y2="345"/>
		<line id="XMLID_27_" class="st0" x1="-223" y1="377" x2="289" y2="377"/>
		<line id="XMLID_23_" class="st0" x1="-223" y1="409" x2="289" y2="409"/>
		<line id="XMLID_22_" class="st0" x1="-223" y1="441" x2="289" y2="441"/>
		<line id="XMLID_21_" class="st0" x1="-223" y1="473" x2="289" y2="473"/>
		<line id="XMLID_20_" class="st0" x1="-223" y1="505" x2="289" y2="505"/>
		<rect id="XMLID_9_" x="-223" y="25" class="st0" width="512" height="512"/>
	</g>
</g>
<g id="Layer_11" class="st1">
	<path id="XMLID_33_" class="st2" d="M221.1,448.5c-4.1-16.9-8.2-32-11.5-40.8c-10.8-28.4-62.8-48.9-109.1-63.2c0.3-5,0-14-5.5-19.4
		c-3.5-3.4-8.9-4.7-13.8-5.1v-38.2c6.1-6.3,12.9-13.9,15.2-19.3c4.3-10.2,4.7-22.7,5.9-25.3c2.6-5.9,7.9-4.9,12.2-11.7
		c3.3-5.1,8.9-35.6,7.4-41s-8.9-8.7-9.6-28.3c-0.1-3.6-0.2-10.5-1.6-18.9l0,0l0,0c-0.5-2.9-1.1-5.9-2-9
		c-5.5-22.9-10.7-29.1-27.2-43.2C62.9,69.3,27.9,73.5,27.9,73.5C13.8,74.4,20,59,20,59C6,63.6-0.5,71.7-3.4,77.8
		c-7.1-4-3.8-13.6-3.8-13.6c-13.9,7-18,22.2-19.2,30.2c-15.6,15.3-17.8,40.7-17.8,40.7l0,0c-1.8,9.3-1.9,17.2-2,21.1
		c-0.7,19.6-8.1,22.9-9.6,28.3s4.2,35.9,7.4,41c4.3,6.8,9.6,5.8,12.2,11.7c1.2,2.7,1.5,15.2,5.9,25.3c2.3,5.3,9,13,15.2,19.3V320
		c-4.9,0.4-10.3,1.7-13.8,5.1c-5.5,5.4-5.8,14.5-5.5,19.4c-46.4,14.3-98.3,34.8-109.1,63.2c-3.3,8.8-7.4,23.9-11.5,40.8
		c0,0-12.9,60.5,8.6,60.5c18.3,0,179.5,0,179.5,0s161.2,0,179.5,0C234,509,221.1,448.5,221.1,448.5z"/>
</g>
<g id="Layer_3" class="st1">
	<path id="XMLID_1_" class="st2" d="M100.5,344.5c46.4,14.3,98.3,34.8,109.1,63.2c3.3,8.8,7.4,23.9,11.5,40.8
		c0,0,12.9,60.5-8.6,60.5c-18.3,0-179.5,0-179.5,0s-161.2,0-179.5,0c-21.5,0-8.6-60.5-8.6-60.5c4.1-16.9,8.2-32,11.5-40.8
		c10.8-28.4,62.8-48.9,109.1-63.2L33,329L100.5,344.5z"/>
	<ellipse id="XMLID_2_" class="st3" cx="33" cy="217" rx="96" ry="112"/>
	<ellipse id="XMLID_3_" class="st3" cx="33" cy="217" rx="123.4" ry="144"/>
</g>
<g id="Layer_4" class="st1">
	<ellipse id="XMLID_5_" class="st3" cx="33" cy="217" rx="96" ry="112"/>
	<path id="XMLID_8_" class="st3" d="M221.1,448.5c-4.1-16.9-8.2-32-11.5-40.8c-10.8-28.4-62.8-48.9-109.1-63.2l-7.4-1.7
		C75.3,354.4,54.8,361,33,361s-42.3-6.6-60.1-18.2l-7.4,1.7c-46.4,14.3-98.3,34.8-109.1,63.2c-3.3,8.8-7.4,23.9-11.5,40.8
		c0,0-12.9,60.5,8.6,60.5c18.3,0,179.5,0,179.5,0s161.2,0,179.5,0C234,509,221.1,448.5,221.1,448.5z"/>
</g>
<g id="Layer_5" class="st1">
	<ellipse id="XMLID_6_" class="st3" cx="33" cy="217" rx="96" ry="112"/>
	<path id="XMLID_4_" class="st3" d="M221.1,448.5c-4.1-16.9-8.2-32-11.5-40.8c-10.8-28.4-62.8-48.9-109.1-63.2l-7.4-1.7
		C75.3,354.4,54.8,361,33,361s-42.3-6.6-60.1-18.2l-7.4,1.7c-46.4,14.3-98.3,34.8-109.1,63.2c-3.3,8.8-7.4,23.9-11.5,40.8
		c0,0-12.9,60.5,8.6,60.5c18.3,0,179.5,0,179.5,0s161.2,0,179.5,0C234,509,221.1,448.5,221.1,448.5z"/>
</g>
<g id="Layer_6" class="st1">
	<ellipse id="XMLID_10_" class="st3" cx="-54.9" cy="209.9" rx="76" ry="88.7"/>
	<path id="XMLID_7_" class="st3" d="M94,393.1c-3.2-13.4-6.5-25.4-9.1-32.3c-8.5-22.5-49.7-38.7-86.4-50l-5.9-1.3
		c-14.1,9.2-30.3,14.4-47.6,14.4s-33.5-5.2-47.6-14.4l-5.9,1.3c-36.7,11.4-77.9,27.5-86.4,50c-2.6,6.9-5.9,18.9-9.1,32.3
		c0,0-10.2,47.9,6.8,47.9c14.5,0,142.1,0,142.1,0s127.6,0,142.1,0C104.2,441,94,393.1,94,393.1z"/>
	<ellipse id="XMLID_13_" class="st3" cx="120.9" cy="209.9" rx="76" ry="88.7"/>
	<path id="XMLID_12_" class="st3" d="M269.9,393.1c-3.2-13.4-6.5-25.4-9.1-32.3c-8.5-22.5-49.7-38.7-86.4-50l-5.9-1.3
		c-14.1,9.2-30.3,14.4-47.6,14.4s-33.5-5.2-47.6-14.4l-5.9,1.3c-36.7,11.4-77.9,27.5-86.4,50c-2.6,6.9-5.9,18.9-9.1,32.3
		c0,0-10.2,47.9,6.8,47.9c14.5,0,142.1,0,142.1,0s127.6,0,142.1,0C280,441,269.9,393.1,269.9,393.1z"/>
</g>
<g id="Layer_7" class="st1">
	<ellipse id="XMLID_18_" class="st3" cx="-54.9" cy="209.9" rx="76" ry="88.7"/>
	<ellipse id="XMLID_16_" class="st3" cx="120.9" cy="209.9" rx="76" ry="88.7"/>
	<path id="XMLID_15_" class="st3" d="M269.9,393.1c-3.2-13.4-6.5-25.4-9.1-32.3c-8.5-22.5-49.7-38.7-86.4-50l-5.9-1.3
		c-14.1,9.2-30.3,14.4-47.6,14.4s-33.5-5.2-47.6-14.4l-5.9,1.3c-36.7,11.4-77.9,27.5-86.4,50c-2.6,6.9-5.9,18.9-9.1,32.3
		c0,0-10.2,47.9,6.8,47.9c14.5,0,142.1,0,142.1,0s127.6,0,142.1,0C280,441,269.9,393.1,269.9,393.1z"/>
	<path id="XMLID_24_" class="st3" d="M-59.3,396.9c3.9-16.2,7.8-30.7,11-39.1c6.7-17.6,29.8-32,57.3-43.7c-3.5-1.2-7-2.3-10.5-3.3
		l-5.9-1.3c-14.1,9.2-30.3,14.4-47.6,14.4s-33.5-5.2-47.6-14.4l-5.9,1.3c-36.7,11.4-77.9,27.5-86.4,50c-2.6,6.9-5.9,18.9-9.1,32.3
		c0,0-10.2,47.9,6.8,47.9c12.4,0,107.6,0,134.9,0C-65.1,423.9-59.3,396.9-59.3,396.9z"/>
</g>
<g id="smaller_couple" class="st1">
	<ellipse id="XMLID_19_" class="st3" cx="-62.9" cy="221" rx="72" ry="84"/>
	<path id="XMLID_17_" class="st3" d="M78.1,394.6c-3.1-12.7-6.1-24-8.6-30.6c-8.1-21.3-47.1-36.7-81.8-47.4l-5.6-1.3
		c-13.3,8.7-28.7,13.6-45.1,13.6s-31.7-5-45.1-13.6l-5.6,1.3c-34.8,10.8-73.8,26.1-81.8,47.4c-2.5,6.6-5.6,17.9-8.6,30.6
		c0,0-9.6,45.3,6.5,45.3c13.7,0,134.6,0,134.6,0s120.9,0,134.6,0C87.8,440,78.1,394.6,78.1,394.6z"/>
	<ellipse id="XMLID_25_" class="st3" cx="129.1" cy="221" rx="72" ry="84"/>
	<path id="XMLID_14_" class="st3" d="M270.1,394.6c-3.1-12.7-6.1-24-8.6-30.6c-8.1-21.3-47.1-36.7-81.8-47.4l-5.6-1.3
		c-13.3,8.7-28.7,13.6-45.1,13.6s-31.7-5-45.1-13.6l-5.6,1.3C43.5,327.4,4.5,342.7-3.5,364c-2.5,6.6-5.6,17.9-8.6,30.6
		c0,0-9.6,45.3,6.5,45.3c13.7,0,134.6,0,134.6,0s120.9,0,134.6,0C279.8,440,270.1,394.6,270.1,394.6z"/>
</g>
<g id="Layer_9" class="st1">
	<ellipse id="XMLID_55_" class="st3" cx="-62.9" cy="221" rx="72" ry="84"/>
	<ellipse id="XMLID_26_" class="st3" cx="129.1" cy="221" rx="72" ry="84"/>
	<path id="XMLID_11_" class="st3" d="M270.1,394.6c-3.1-12.7-6.1-24-8.6-30.6c-8.1-21.3-47.1-36.7-81.8-47.4l-5.6-1.3
		c-13.3,8.7-28.7,13.6-45.1,13.6s-31.7-5-45.1-13.6l-5.6,1.3C43.5,327.4,4.5,342.7-3.5,364c-2.5,6.6-5.6,17.9-8.6,30.6
		c0,0-9.6,45.3,6.5,45.3c13.7,0,134.6,0,134.6,0s120.9,0,134.6,0C279.8,440,270.1,394.6,270.1,394.6z"/>
	<path id="XMLID_58_" class="st3" d="M-43.4,398.4c3.7-15.5,7.5-29.4,10.5-37.4c5.4-14.3,22.3-26.5,43.5-36.7
		c-7.6-2.8-15.4-5.4-23-7.7l-5.6-1.3c-13.3,8.7-28.7,13.6-45.1,13.6s-31.7-5-45.1-13.6l-5.6,1.3c-34.8,10.8-73.8,26.1-81.8,47.4
		c-2.5,6.6-5.6,17.9-8.6,30.6c0,0-9.6,45.3,6.5,45.3c13.7,0,134.6,0,134.6,0s6.5,0,16.7,0C-48.7,423.6-43.4,398.4-43.4,398.4z"/>
</g>
<g id="Layer_10" class="st1">
	<ellipse id="XMLID_56_" class="st3" cx="32.9" cy="214.9" rx="79.6" ry="92.9"/>
	<path id="XMLID_54_" class="st3" d="M188.9,406.9c-3.4-14-6.8-26.6-9.5-33.8c-8.9-23.6-52-40.5-90.5-52.4l-6.2-1.4
		C68,328.9,51,334.4,32.9,334.4s-35.1-5.5-49.8-15.1l-6.2,1.4c-38.4,11.9-81.5,28.8-90.5,52.4c-2.8,7.3-6.1,19.8-9.5,33.8
		c0,0-10.7,50.1,7.1,50.1c15.2,0,148.8,0,148.8,0s133.7,0,148.8,0C199.6,457,188.9,406.9,188.9,406.9z"/>
	<ellipse id="XMLID_60_" class="st3" cx="-79.9" cy="231.6" rx="63.6" ry="74.2"/>
	<path id="XMLID_59_" class="st3" d="M44.8,384.9c-2.7-11.2-5.4-21.2-7.6-27c-7.1-18.8-41.6-32.4-72.3-41.9l-4.9-1.1
		c-11.8,7.7-25.3,12.1-39.8,12.1s-28-4.4-39.8-12.1l-4.9,1.1c-30.7,9.5-65.1,23-72.3,41.9c-2.2,5.8-4.9,15.8-7.6,27
		c0,0-8.5,40.1,5.7,40.1c12.1,0,118.9,0,118.9,0s106.8,0,118.9,0C53.3,425,44.8,384.9,44.8,384.9z"/>
	<ellipse id="XMLID_62_" class="st3" cx="145.9" cy="231.6" rx="63.6" ry="74.2"/>
	<path id="XMLID_61_" class="st3" d="M270.5,384.9c-2.7-11.2-5.4-21.2-7.6-27c-7.1-18.8-41.6-32.4-72.3-41.9l-4.9-1.1
		c-11.8,7.7-25.3,12.1-39.8,12.1s-28-4.4-39.8-12.1l-4.9,1.1c-30.7,9.5-65.1,23-72.3,41.9c-2.2,5.8-4.9,15.8-7.6,27
		c0,0-8.5,40.1,5.7,40.1c12.1,0,118.9,0,118.9,0s106.8,0,118.9,0C279,425,270.5,384.9,270.5,384.9z"/>
</g>
<g id="Layer_12" class="st1">
	<path id="XMLID_64_" class="st3" d="M44.8,384.9c-2.7-11.2-5.4-21.2-7.6-27c-7.1-18.8-41.6-32.4-72.3-41.9l-4.9-1.1
		c-11.8,7.7-25.3,12.1-39.8,12.1s-28-4.4-39.8-12.1l-4.9,1.1c-30.7,9.5-65.1,23-72.3,41.9c-2.2,5.8-4.9,15.8-7.6,27
		c0,0-8.5,40.1,5.7,40.1c12.1,0,118.9,0,118.9,0s106.8,0,118.9,0C53.3,425,44.8,384.9,44.8,384.9z"/>
	<path id="XMLID_57_" class="st3" d="M270.5,384.9c-2.7-11.2-5.4-21.2-7.6-27c-7.1-18.8-41.6-32.4-72.3-41.9l-4.9-1.1
		c-11.8,7.7-25.3,12.1-39.8,12.1s-28-4.4-39.8-12.1l-4.9,1.1c-30.7,9.5-65.1,23-72.3,41.9c-2.2,5.8-4.9,15.8-7.6,27
		c0,0-8.5,40.1,5.7,40.1c12.1,0,118.9,0,118.9,0s106.8,0,118.9,0C279,425,270.5,384.9,270.5,384.9z"/>
	<path id="XMLID_68_" class="st4" d="M207,401c-3.8-15.6-7.6-29.6-10.6-37.8c-10-26.3-58.1-45.2-101-58.5l-6.9-1.6
		c-16.5,10.7-35.4,16.8-55.6,16.8s-39.1-6.1-55.6-16.8l-6.9,1.6c-42.9,13.3-91,32.2-101,58.5c-3.1,8.1-6.9,22.1-10.6,37.8
		c0,0-11.9,56,8,56c16.9,0,166.1,0,166.1,0s149.2,0,166.1,0C218.9,457,207,401,207,401z"/>
	<ellipse id="XMLID_65_" class="st3" cx="-79.9" cy="231.6" rx="63.6" ry="74.2"/>
	<ellipse id="XMLID_63_" class="st3" cx="145.9" cy="231.6" rx="63.6" ry="74.2"/>
	<ellipse id="XMLID_69_" class="st4" cx="32.9" cy="214.9" rx="100.2" ry="116.9"/>
	<ellipse id="XMLID_67_" class="st3" cx="32.9" cy="214.9" rx="79.6" ry="92.9"/>
	<path id="XMLID_66_" class="st3" d="M188.9,406.9c-3.4-14-6.8-26.6-9.5-33.8c-8.9-23.6-52-40.5-90.5-52.4l-6.2-1.4
		C68,328.9,51,334.4,32.9,334.4s-35.1-5.5-49.8-15.1l-6.2,1.4c-38.4,11.9-81.5,28.8-90.5,52.4c-2.8,7.3-6.1,19.8-9.5,33.8
		c0,0-10.7,50.1,7.1,50.1c15.2,0,148.8,0,148.8,0s133.7,0,148.8,0C199.6,457,188.9,406.9,188.9,406.9z"/>
</g>
<g id="Layer_14" class="st1">
	<rect id="XMLID_78_" x="-223" y="25" class="st4" width="512" height="512"/>
</g>
<g id="Layer_13" class="st1">
	<rect id="XMLID_79_" x="-223" y="25" class="st4" width="512" height="512"/>
	<path id="XMLID_77_" class="st3" d="M28.9,387.5c-2.5-10.5-5.1-19.9-7.1-25.3c-6.7-17.6-39-30.3-67.7-39.2l-4.6-1.1
		c-11,7.2-23.8,11.3-37.3,11.3s-26.3-4.1-37.3-11.3l-4.6,1.1c-28.8,8.9-61,21.6-67.7,39.2c-2.1,5.4-4.6,14.8-7.1,25.3
		c0,0-8,37.5,5.3,37.5c11.3,0,111.4,0,111.4,0s100.1,0,111.4,0C36.9,425,28.9,387.5,28.9,387.5z"/>
	<path id="XMLID_76_" class="st3" d="M270.5,384.9c-2.7-11.2-5.4-21.2-7.6-27c-7.1-18.8-41.6-32.4-72.3-41.9l-4.9-1.1
		c-11.8,7.7-25.3,12.1-39.8,12.1s-28-4.4-39.8-12.1l-4.9,1.1c-30.7,9.5-65.1,23-72.3,41.9c-2.2,5.8-4.9,15.8-7.6,27
		c0,0-8.5,40.1,5.7,40.1c12.1,0,118.9,0,118.9,0s106.8,0,118.9,0C279,425,270.5,384.9,270.5,384.9z"/>
	<path id="XMLID_75_" class="st4" d="M193.7,389.5c-3.5-14.4-7-27.4-9.8-34.9c-9.2-24.3-53.6-41.8-93.3-54l-6.3-1.5
		c-15.2,9.9-32.7,15.5-51.4,15.5s-36.2-5.6-51.4-15.5l-6.3,1.5c-39.6,12.3-84.1,29.7-93.3,54c-2.8,7.5-6.3,20.4-9.8,34.9
		c0,0-11,51.7,7.4,51.7c15.6,0,153.4,0,153.4,0s137.8,0,153.4,0C204.7,441.2,193.7,389.5,193.7,389.5z"/>
	<ellipse id="XMLID_74_" class="st3" cx="-87.9" cy="243.7" rx="59.6" ry="69.5"/>
	<ellipse id="XMLID_73_" class="st3" cx="145.9" cy="231.6" rx="63.6" ry="74.2"/>
	<ellipse id="XMLID_72_" class="st4" cx="32.9" cy="228.9" rx="91.3" ry="106.5"/>
	<ellipse id="XMLID_71_" class="st3" cx="32.9" cy="228.9" rx="68" ry="79.4"/>
	<path id="XMLID_70_" class="st3" d="M166.3,393c-2.9-12-5.8-22.7-8.1-28.9c-7.6-20.2-44.5-34.6-77.3-44.8l-5.3-1.2
		C63,326.3,48.5,331,33,331s-30-4.7-42.6-12.9l-5.3,1.2c-32.9,10.2-69.7,24.7-77.3,44.8c-2.4,6.2-5.3,16.9-8.1,28.9
		c0,0-9.1,42.9,6.1,42.9c13,0,127.2,0,127.2,0s114.3,0,127.2,0C175.4,435.9,166.3,393,166.3,393z"/>
</g>
<g id="Layer_15" class="st1">
	<ellipse id="XMLID_81_" class="st5" cx="32.9" cy="234.1" rx="68" ry="79.4"/>
	<path id="XMLID_80_" class="st5" d="M166.3,398.1c-2.9-12-5.8-22.7-8.1-28.9c-7.6-20.2-44.5-34.6-77.3-44.8l-5.3-1.2
		C63,331.4,48.5,336.1,33,336.1s-30-4.7-42.6-12.9l-5.3,1.2c-32.9,10.2-69.7,24.7-77.3,44.8c-2.4,6.2-5.3,16.9-8.1,28.9
		c0,0-9.1,42.9,6.1,42.9c13,0,127.2,0,127.2,0s114.3,0,127.2,0C175.4,441,166.3,398.1,166.3,398.1z"/>
	<path id="XMLID_89_" class="st5" d="M145.9,141.4c-13.6,0-26.1,5-36.4,13.4c9.4,16.7,14.8,36.7,14.8,58.1c0,23-6.2,44.3-16.9,61.7
		c10.7,9.5,24,15.2,38.5,15.2c35.1,0,63.6-33.2,63.6-74.2C209.4,174.6,181,141.4,145.9,141.4z"/>
	<path id="XMLID_88_" class="st5" d="M-58.3,212.9c0-14.3,2.4-27.9,6.8-40.3c-10.1-9-22.6-14.4-36.3-14.4
		c-32.9,0-59.6,31.1-59.6,69.5s26.7,69.5,59.6,69.5c18.2,0,34.4-9.5,45.3-24.4C-52.5,255.8-58.3,235.2-58.3,212.9z"/>
	<path id="XMLID_83_" class="st5" d="M270.5,368.9c-2.7-11.2-5.4-21.2-7.6-27c-7.1-18.8-41.6-32.4-72.3-41.9l-4.9-1.1
		c-9.3,6.1-19.8,10.1-30.9,11.5c14.3,8.2,25.1,17.5,29.2,28.2c2.8,7.5,6.3,20.4,9.8,34.9c0,0,4.3,20.3,3,35.5c29.3,0,61.7,0,68,0
		C279,409,270.5,368.9,270.5,368.9z"/>
	<path id="XMLID_84_" class="st5" d="M-127.9,373.5c3.5-14.4,7-27.4,9.8-34.9c3.1-8.2,10.2-15.6,19.8-22.3
		c-9.7-1.5-18.8-5.2-26.9-10.5l-4.6,1.1c-28.8,8.9-61,21.6-67.7,39.2c-2.1,5.4-4.6,14.8-7.1,25.3c0,0-8,37.5,5.3,37.5
		c6.3,0,39.8,0,68.4,0C-132.2,393.8-127.9,373.5-127.9,373.5z"/>
</g>
<g id="Layer_16">
	<g id="XMLID_85_">
		<g>
			<g>
				<path d="M-88.2,297.3c16.7,0,31.8-8,42.6-21c-5.1-12.8-7.9-27.2-7.9-42.2c0-18.3,4.2-35.4,11.5-50.2
					c-10.9-15.6-27.6-25.6-46.2-25.6c-32.9,0-59.6,31.1-59.6,69.5C-147.8,266.1-121.1,297.3-88.2,297.3z M32.9,313.4
					c37.6,0,68-35.5,68-79.4c0-43.9-30.5-79.4-68-79.4s-68,35.5-68,79.4C-35.1,277.9-4.6,313.4,32.9,313.4z M111.6,275.7
					c10.9,13.3,26.1,21.5,43.1,21.5c32.9,0,59.6-31.1,59.6-69.5c0-38.4-26.7-69.5-59.6-69.5c-18.9,0-35.7,10.2-46.6,26.2
					c7.1,14.7,11.2,31.6,11.2,49.6C119.3,248.9,116.6,263,111.6,275.7z M271.2,371.6c-2.5-10.5-5.1-19.8-7.1-25.3
					c-6.7-17.6-38.9-30.3-67.6-39.1l-4.6-1.1c-11,7.2-23.7,11.3-37.2,11.3s-26.2-4.1-37.2-11.3l-4.6,1.1c-4.4,1.4-8.8,2.8-13.3,4.3
					c35.3,12.9,71.5,30.4,79.6,54c2.8,8,6.1,21.9,9.5,37.3c0,0,0.5,2.4,1,6.2h76.1C279.2,409,271.2,371.6,271.2,371.6z M158.1,369.2
					c-7.6-20.2-44.5-34.6-77.3-44.8l-5.3-1.2c-12.6,8.2-27.1,12.9-42.6,12.9s-30-4.7-42.6-12.9l-5.3,1.2
					c-32.9,10.2-69.7,24.7-77.3,44.8c-2.4,6.2-5.3,16.9-8.1,28.9c0,0-9.1,42.9,6.1,42.9c13,0,127.2,0,127.2,0s114.3,0,127.2,0
					c15.2,0,6.1-42.9,6.1-42.9C163.4,386.2,160.5,375.4,158.1,369.2z M-33.5,311.4c-4.3-1.5-8.6-2.9-12.9-4.2l-4.6-1.1
					c-11,7.2-23.7,11.3-37.2,11.3s-26.2-4.1-37.2-11.3l-4.6,1.1c-28.7,8.9-60.9,21.5-67.6,39.1c-2.1,5.4-4.6,14.8-7.1,25.3
					c0,0-8,37.4,5.3,37.4h75.4c0.6-3.8,1-6.2,1-6.2c3.4-15.4,6.8-29.3,9.5-37.3C-105.2,341.8-68.9,324.2-33.5,311.4z"/>
			</g>
		</g>
	</g>
</g>
</svg>
