<svg xmlns="http://www.w3.org/2000/svg" width="512" height="512" viewBox="0 0 512 512">
  <g id="svgGrid">
    <line fill="none" stroke="#B35047" x1="32" y1="0" x2="32" y2="512" />
    <line fill="none" stroke="#B35047" x1="64" y1="0" x2="64" y2="512" />
    <line fill="none" stroke="#B35047" x1="96" y1="0" x2="96" y2="512" />
    <line fill="none" stroke="#B35047" x1="128" y1="0" x2="128" y2="512" />
    <line fill="none" stroke="#B35047" x1="160" y1="0" x2="160" y2="512" />
    <line fill="none" stroke="#B35047" x1="192" y1="0" x2="192" y2="512" />
    <line fill="none" stroke="#B35047" x1="224" y1="0" x2="224" y2="512" />
    <line fill="none" stroke="#B35047" x1="256" y1="0" x2="256" y2="512" />
    <line fill="none" stroke="#B35047" x1="288" y1="0" x2="288" y2="512" />
    <line fill="none" stroke="#B35047" x1="320" y1="0" x2="320" y2="512" />
    <line fill="none" stroke="#B35047" x1="352" y1="0" x2="352" y2="512" />
    <line fill="none" stroke="#B35047" x1="384" y1="0" x2="384" y2="512" />
    <line fill="none" stroke="#B35047" x1="416" y1="0" x2="416" y2="512" />
    <line fill="none" stroke="#B35047" x1="448" y1="0" x2="448" y2="512" />
    <line fill="none" stroke="#B35047" x1="480" y1="0" x2="480" y2="512" />
    <line fill="none" stroke="#B35047" x1="0" y1="32" x2="512" y2="32" />
    <line fill="none" stroke="#B35047" x1="0" y1="64" x2="512" y2="64" />
    <line fill="none" stroke="#B35047" x1="0" y1="96" x2="512" y2="96" />
    <line fill="none" stroke="#B35047" x1="0" y1="128" x2="512" y2="128" />
    <line fill="none" stroke="#B35047" x1="0" y1="160" x2="512" y2="160" />
    <line fill="none" stroke="#B35047" x1="0" y1="192" x2="512" y2="192" />
    <line fill="none" stroke="#B35047" x1="0" y1="224" x2="512" y2="224" />
    <line fill="none" stroke="#B35047" x1="0" y1="256" x2="512" y2="256" />
    <line fill="none" stroke="#B35047" x1="0" y1="288" x2="512" y2="288" />
    <line fill="none" stroke="#B35047" x1="0" y1="320" x2="512" y2="320" />
    <line fill="none" stroke="#B35047" x1="0" y1="352" x2="512" y2="352" />
    <line fill="none" stroke="#B35047" x1="0" y1="384" x2="512" y2="384" />
    <line fill="none" stroke="#B35047" x1="0" y1="416" x2="512" y2="416" />
    <line fill="none" stroke="#B35047" x1="0" y1="448" x2="512" y2="448" />
    <line fill="none" stroke="#B35047" x1="0" y1="480" x2="512" y2="480" />
    <rect fill="none" stroke="#B35047" width="512" height="512" />
  </g>
  <path d="M352.1 280c39.8 0 72-37.6 72-84s-32.2-84-72-84-72 37.6-72 84 32.2 84 72 84zm-192 0c39.8 0 72-37.6 72-84s-32.2-84-72-84-72 37.6-72 84 32.2 84 72 84zm50.6 11.6l-5.6-1.3c-13.3 8.7-28.7 13.6-45.1 13.6-16.4 0-31.7-5-45.1-13.6l-5.6 1.3c-34.8 10.8-73.8 26.1-81.8 47.4-2.5 6.6-5.6 17.9-8.6 30.6 0 0-9.6 45.3 6.5 45.3h152c-3.1-16.7 2.6-44.6 2.6-44.6 3.7-15.9 7.4-30.3 10.4-38.5 4.9-13.3 18.9-24.8 37-34.7-5.6-1.9-11.2-3.8-16.7-5.5zm282.4 78c-3.1-12.7-6.1-24-8.6-30.6-8.1-21.3-47.1-36.7-81.8-47.4l-5.6-1.3c-13.3 8.7-28.7 13.6-45.1 13.6-16.4 0-31.7-5-45.1-13.6l-5.6 1.3c-34.8 10.8-73.8 26.1-81.8 47.4-2.5 6.6-5.6 17.9-8.6 30.6 0 0-9.6 45.3 6.5 45.3h269.2c16.2.1 6.5-45.3 6.5-45.3z" />
</svg>
