<svg xmlns="http://www.w3.org/2000/svg" width="512" height="512" viewBox="0 0 512 512">
  <g id="svgGrid">
    <line fill="none" stroke="#B35047" x1="32" y1="0" x2="32" y2="512" />
    <line fill="none" stroke="#B35047" x1="64" y1="0" x2="64" y2="512" />
    <line fill="none" stroke="#B35047" x1="96" y1="0" x2="96" y2="512" />
    <line fill="none" stroke="#B35047" x1="128" y1="0" x2="128" y2="512" />
    <line fill="none" stroke="#B35047" x1="160" y1="0" x2="160" y2="512" />
    <line fill="none" stroke="#B35047" x1="192" y1="0" x2="192" y2="512" />
    <line fill="none" stroke="#B35047" x1="224" y1="0" x2="224" y2="512" />
    <line fill="none" stroke="#B35047" x1="256" y1="0" x2="256" y2="512" />
    <line fill="none" stroke="#B35047" x1="288" y1="0" x2="288" y2="512" />
    <line fill="none" stroke="#B35047" x1="320" y1="0" x2="320" y2="512" />
    <line fill="none" stroke="#B35047" x1="352" y1="0" x2="352" y2="512" />
    <line fill="none" stroke="#B35047" x1="384" y1="0" x2="384" y2="512" />
    <line fill="none" stroke="#B35047" x1="416" y1="0" x2="416" y2="512" />
    <line fill="none" stroke="#B35047" x1="448" y1="0" x2="448" y2="512" />
    <line fill="none" stroke="#B35047" x1="480" y1="0" x2="480" y2="512" />
    <line fill="none" stroke="#B35047" x1="0" y1="32" x2="512" y2="32" />
    <line fill="none" stroke="#B35047" x1="0" y1="64" x2="512" y2="64" />
    <line fill="none" stroke="#B35047" x1="0" y1="96" x2="512" y2="96" />
    <line fill="none" stroke="#B35047" x1="0" y1="128" x2="512" y2="128" />
    <line fill="none" stroke="#B35047" x1="0" y1="160" x2="512" y2="160" />
    <line fill="none" stroke="#B35047" x1="0" y1="192" x2="512" y2="192" />
    <line fill="none" stroke="#B35047" x1="0" y1="224" x2="512" y2="224" />
    <line fill="none" stroke="#B35047" x1="0" y1="256" x2="512" y2="256" />
    <line fill="none" stroke="#B35047" x1="0" y1="288" x2="512" y2="288" />
    <line fill="none" stroke="#B35047" x1="0" y1="320" x2="512" y2="320" />
    <line fill="none" stroke="#B35047" x1="0" y1="352" x2="512" y2="352" />
    <line fill="none" stroke="#B35047" x1="0" y1="384" x2="512" y2="384" />
    <line fill="none" stroke="#B35047" x1="0" y1="416" x2="512" y2="416" />
    <line fill="none" stroke="#B35047" x1="0" y1="448" x2="512" y2="448" />
    <line fill="none" stroke="#B35047" x1="0" y1="480" x2="512" y2="480" />
    <rect fill="none" stroke="#B35047" width="512" height="512" />
  </g>
  <path d="M255.9 283.3c37.6 0 68-35.5 68-79.4 0-43.9-30.4-79.4-68-79.4s-68 35.5-68 79.4c0 43.9 30.4 79.4 68 79.4zm-120.7 4.9c18.2 0 34.4-9.5 45.3-24.4-10-17-15.8-37.6-15.8-59.9 0-14.3 2.4-27.9 6.8-40.3-10.1-9-22.6-14.4-36.3-14.4-32.9 0-59.6 31.1-59.6 69.5s26.7 69.5 59.6 69.5zm233.7-7.4c35.1 0 63.6-33.2 63.6-74.2-.1-41-28.5-74.2-63.6-74.2-13.6 0-26.1 5-36.4 13.4 9.4 16.7 14.8 36.7 14.8 58.1 0 23-6.2 44.3-16.9 61.7 10.7 9.5 24 15.2 38.5 15.2zm124.6 79.1c-2.7-11.2-5.4-21.2-7.6-27-7.1-18.8-41.6-32.4-72.3-41.9l-4.9-1.1c-9.3 6.1-19.8 10.1-30.9 11.5 14.3 8.2 25.1 17.5 29.2 28.2 2.8 7.5 6.3 20.4 9.8 34.9 0 0 4.3 20.3 3 35.5h68c14.2 0 5.7-40.1 5.7-40.1zm-395.7-63.1l-4.6 1.1c-28.8 8.9-61 21.6-67.7 39.2-2.1 5.4-4.6 14.8-7.1 25.3 0 0-8 37.5 5.3 37.5h68.4c-1.3-15.1 3-35.4 3-35.4 3.5-14.4 7-27.4 9.8-34.9 3.1-8.2 10.2-15.6 19.8-22.3-9.7-1.5-18.8-5.2-26.9-10.5zm283.4 42.3c-7.6-20.2-44.5-34.6-77.3-44.8l-5.3-1.2c-12.6 8.2-27.1 12.9-42.6 12.9s-30-4.7-42.6-12.9l-5.3 1.2c-32.9 10.2-69.7 24.7-77.3 44.8-2.4 6.2-5.3 16.9-8.1 28.9 0 0-9.1 42.9 6.1 42.9h254.4c15.2 0 6.1-42.9 6.1-42.9-2.9-12-5.8-22.7-8.1-28.9z" />
</svg>
