<?xml version="1.0" encoding="utf-8"?>
<!-- Generator: Adobe Illustrator 19.0.0, SVG Export Plug-In . SVG Version: 6.00 Build 0)  -->
<svg version="1.1" xmlns="http://www.w3.org/2000/svg" xmlns:xlink="http://www.w3.org/1999/xlink" x="0px" y="0px"
	 viewBox="0 0 512 512" enable-background="new 0 0 512 512" xml:space="preserve">
<g id="grid">
	<g id="svgGrid">
		<line id="XMLID_53_" fill="none" stroke="#B35047" x1="32" y1="0" x2="32" y2="512"/>
		<line id="XMLID_52_" fill="none" stroke="#B35047" x1="64" y1="0" x2="64" y2="512"/>
		<line id="XMLID_51_" fill="none" stroke="#B35047" x1="96" y1="0" x2="96" y2="512"/>
		<line id="XMLID_50_" fill="none" stroke="#B35047" x1="128" y1="0" x2="128" y2="512"/>
		<line id="XMLID_49_" fill="none" stroke="#B35047" x1="160" y1="0" x2="160" y2="512"/>
		<line id="XMLID_48_" fill="none" stroke="#B35047" x1="192" y1="0" x2="192" y2="512"/>
		<line id="XMLID_47_" fill="none" stroke="#B35047" x1="224" y1="0" x2="224" y2="512"/>
		<line id="XMLID_46_" fill="none" stroke="#B35047" x1="256" y1="0" x2="256" y2="512"/>
		<line id="XMLID_45_" fill="none" stroke="#B35047" x1="288" y1="0" x2="288" y2="512"/>
		<line id="XMLID_44_" fill="none" stroke="#B35047" x1="320" y1="0" x2="320" y2="512"/>
		<line id="XMLID_43_" fill="none" stroke="#B35047" x1="352" y1="0" x2="352" y2="512"/>
		<line id="XMLID_42_" fill="none" stroke="#B35047" x1="384" y1="0" x2="384" y2="512"/>
		<line id="XMLID_41_" fill="none" stroke="#B35047" x1="416" y1="0" x2="416" y2="512"/>
		<line id="XMLID_40_" fill="none" stroke="#B35047" x1="448" y1="0" x2="448" y2="512"/>
		<line id="XMLID_39_" fill="none" stroke="#B35047" x1="480" y1="0" x2="480" y2="512"/>
		<line id="XMLID_38_" fill="none" stroke="#B35047" x1="0" y1="32" x2="512" y2="32"/>
		<line id="XMLID_37_" fill="none" stroke="#B35047" x1="0" y1="64" x2="512" y2="64"/>
		<line id="XMLID_36_" fill="none" stroke="#B35047" x1="0" y1="96" x2="512" y2="96"/>
		<line id="XMLID_35_" fill="none" stroke="#B35047" x1="0" y1="128" x2="512" y2="128"/>
		<line id="XMLID_34_" fill="none" stroke="#B35047" x1="0" y1="160" x2="512" y2="160"/>
		<line id="XMLID_32_" fill="none" stroke="#B35047" x1="0" y1="192" x2="512" y2="192"/>
		<line id="XMLID_31_" fill="none" stroke="#B35047" x1="0" y1="224" x2="512" y2="224"/>
		<line id="XMLID_30_" fill="none" stroke="#B35047" x1="0" y1="256" x2="512" y2="256"/>
		<line id="XMLID_29_" fill="none" stroke="#B35047" x1="0" y1="288" x2="512" y2="288"/>
		<line id="XMLID_28_" fill="none" stroke="#B35047" x1="0" y1="320" x2="512" y2="320"/>
		<line id="XMLID_27_" fill="none" stroke="#B35047" x1="0" y1="352" x2="512" y2="352"/>
		<line id="XMLID_23_" fill="none" stroke="#B35047" x1="0" y1="384" x2="512" y2="384"/>
		<line id="XMLID_22_" fill="none" stroke="#B35047" x1="0" y1="416" x2="512" y2="416"/>
		<line id="XMLID_21_" fill="none" stroke="#B35047" x1="0" y1="448" x2="512" y2="448"/>
		<line id="XMLID_20_" fill="none" stroke="#B35047" x1="0" y1="480" x2="512" y2="480"/>
		<rect id="XMLID_9_" fill="none" stroke="#B35047" width="512" height="512"/>
	</g>
</g>
<g id="couple">
	<path id="XMLID_54_" d="M177.5,415c-10.6,0-17.4,0-17.4,0s-120.9,0-134.6,0c-16.1,0-6.5-45.3-6.5-45.3c3.1-12.7,6.1-24,8.6-30.6
		c8.1-21.3,47.1-36.7,81.8-47.4l5.6-1.3c13.3,8.7,28.7,13.6,45.1,13.6s31.7-5,45.1-13.6l5.6,1.3c5.5,1.7,11.1,3.5,16.7,5.5
		c-18.1,9.8-32.2,21.3-37,34.7c-3,8.3-6.7,22.6-10.4,38.5C180,370.3,174.3,398.2,177.5,415z M160.1,112c-39.8,0-72,37.6-72,84
		s32.2,84,72,84s72-37.6,72-84S199.8,112,160.1,112z M352.1,112c-39.8,0-72,37.6-72,84s32.2,84,72,84s72-37.6,72-84
		S391.8,112,352.1,112z M493.1,369.6c-3.1-12.7-6.1-24-8.6-30.6c-8.1-21.3-47.1-36.7-81.8-47.4l-5.6-1.3
		c-13.3,8.7-28.7,13.6-45.1,13.6c-16.4,0-31.7-5-45.1-13.6l-5.6,1.3c-34.8,10.8-73.8,26.1-81.8,47.4c-2.5,6.6-5.6,17.9-8.6,30.6
		c0,0-9.6,45.3,6.5,45.3c13.7,0,134.6,0,134.6,0s120.9,0,134.6,0C502.8,415,493.1,369.6,493.1,369.6z"/>
</g>
</svg>
