<?xml version="1.0" encoding="utf-8"?>
<!-- Generator: Adobe Illustrator 19.0.0, SVG Export Plug-In . SVG Version: 6.00 Build 0)  -->
<svg version="1.1" xmlns="http://www.w3.org/2000/svg" xmlns:xlink="http://www.w3.org/1999/xlink" x="0px" y="0px"
	 viewBox="0 0 512 512" enable-background="new 0 0 512 512" xml:space="preserve">
<g id="grid">
	<g id="svgGrid">
		<line id="XMLID_53_" fill="none" stroke="#B35047" x1="32" y1="0" x2="32" y2="512"/>
		<line id="XMLID_52_" fill="none" stroke="#B35047" x1="64" y1="0" x2="64" y2="512"/>
		<line id="XMLID_51_" fill="none" stroke="#B35047" x1="96" y1="0" x2="96" y2="512"/>
		<line id="XMLID_50_" fill="none" stroke="#B35047" x1="128" y1="0" x2="128" y2="512"/>
		<line id="XMLID_49_" fill="none" stroke="#B35047" x1="160" y1="0" x2="160" y2="512"/>
		<line id="XMLID_48_" fill="none" stroke="#B35047" x1="192" y1="0" x2="192" y2="512"/>
		<line id="XMLID_47_" fill="none" stroke="#B35047" x1="224" y1="0" x2="224" y2="512"/>
		<line id="XMLID_46_" fill="none" stroke="#B35047" x1="256" y1="0" x2="256" y2="512"/>
		<line id="XMLID_45_" fill="none" stroke="#B35047" x1="288" y1="0" x2="288" y2="512"/>
		<line id="XMLID_44_" fill="none" stroke="#B35047" x1="320" y1="0" x2="320" y2="512"/>
		<line id="XMLID_43_" fill="none" stroke="#B35047" x1="352" y1="0" x2="352" y2="512"/>
		<line id="XMLID_42_" fill="none" stroke="#B35047" x1="384" y1="0" x2="384" y2="512"/>
		<line id="XMLID_41_" fill="none" stroke="#B35047" x1="416" y1="0" x2="416" y2="512"/>
		<line id="XMLID_40_" fill="none" stroke="#B35047" x1="448" y1="0" x2="448" y2="512"/>
		<line id="XMLID_39_" fill="none" stroke="#B35047" x1="480" y1="0" x2="480" y2="512"/>
		<line id="XMLID_38_" fill="none" stroke="#B35047" x1="0" y1="32" x2="512" y2="32"/>
		<line id="XMLID_37_" fill="none" stroke="#B35047" x1="0" y1="64" x2="512" y2="64"/>
		<line id="XMLID_36_" fill="none" stroke="#B35047" x1="0" y1="96" x2="512" y2="96"/>
		<line id="XMLID_35_" fill="none" stroke="#B35047" x1="0" y1="128" x2="512" y2="128"/>
		<line id="XMLID_34_" fill="none" stroke="#B35047" x1="0" y1="160" x2="512" y2="160"/>
		<line id="XMLID_32_" fill="none" stroke="#B35047" x1="0" y1="192" x2="512" y2="192"/>
		<line id="XMLID_31_" fill="none" stroke="#B35047" x1="0" y1="224" x2="512" y2="224"/>
		<line id="XMLID_30_" fill="none" stroke="#B35047" x1="0" y1="256" x2="512" y2="256"/>
		<line id="XMLID_29_" fill="none" stroke="#B35047" x1="0" y1="288" x2="512" y2="288"/>
		<line id="XMLID_28_" fill="none" stroke="#B35047" x1="0" y1="320" x2="512" y2="320"/>
		<line id="XMLID_27_" fill="none" stroke="#B35047" x1="0" y1="352" x2="512" y2="352"/>
		<line id="XMLID_23_" fill="none" stroke="#B35047" x1="0" y1="384" x2="512" y2="384"/>
		<line id="XMLID_22_" fill="none" stroke="#B35047" x1="0" y1="416" x2="512" y2="416"/>
		<line id="XMLID_21_" fill="none" stroke="#B35047" x1="0" y1="448" x2="512" y2="448"/>
		<line id="XMLID_20_" fill="none" stroke="#B35047" x1="0" y1="480" x2="512" y2="480"/>
		<rect id="XMLID_9_" fill="none" stroke="#B35047" width="512" height="512"/>
	</g>
</g>
<g id="Layer_11" display="none">
	<path id="XMLID_33_" display="inline" opacity="0.68" d="M444.1,423.5c-4.1-16.9-8.2-32-11.5-40.8c-10.8-28.4-62.8-48.9-109.1-63.2
		c0.3-5,0-14-5.5-19.4c-3.5-3.4-8.9-4.7-13.8-5.1v-38.2c6.1-6.3,12.9-13.9,15.2-19.3c4.3-10.2,4.7-22.7,5.9-25.3
		c2.6-5.9,7.9-4.9,12.2-11.7c3.3-5.1,8.9-35.6,7.4-41s-8.9-8.7-9.6-28.3c-0.1-3.6-0.2-10.5-1.6-18.9l0,0l0,0c-0.5-2.9-1.1-5.9-2-9
		c-5.5-22.9-10.7-29.1-27.2-43.2c-18.6-15.8-53.6-11.6-53.6-11.6C236.8,49.4,243,34,243,34c-14,4.6-20.5,12.7-23.4,18.8
		c-7.1-4-3.8-13.6-3.8-13.6c-13.9,7-18,22.2-19.2,30.2c-15.6,15.3-17.8,40.7-17.8,40.7l0,0c-1.8,9.3-1.9,17.2-2,21.1
		c-0.7,19.6-8.1,22.9-9.6,28.3s4.2,35.9,7.4,41c4.3,6.8,9.6,5.8,12.2,11.7c1.2,2.7,1.5,15.2,5.9,25.3c2.3,5.3,9,13,15.2,19.3v38.2
		c-4.9,0.4-10.3,1.7-13.8,5.1c-5.5,5.4-5.8,14.5-5.5,19.4c-46.4,14.3-98.3,34.8-109.1,63.2c-3.3,8.8-7.4,23.9-11.5,40.8
		c0,0-12.9,60.5,8.6,60.5c18.3,0,179.5,0,179.5,0s161.2,0,179.5,0C457,484,444.1,423.5,444.1,423.5z"/>
</g>
<g id="Layer_3" display="none">
	<path id="XMLID_1_" display="inline" opacity="0.68" d="M323.5,319.5c46.4,14.3,98.3,34.8,109.1,63.2c3.3,8.8,7.4,23.9,11.5,40.8
		c0,0,12.9,60.5-8.6,60.5c-18.3,0-179.5,0-179.5,0s-161.2,0-179.5,0c-21.5,0-8.6-60.5-8.6-60.5c4.1-16.9,8.2-32,11.5-40.8
		c10.8-28.4,62.8-48.9,109.1-63.2L256,304L323.5,319.5z"/>
	<ellipse id="XMLID_2_" display="inline" cx="256" cy="192" rx="96" ry="112"/>
	<ellipse id="XMLID_3_" display="inline" cx="256" cy="192" rx="123.4" ry="144"/>
</g>
<g id="Layer_4" display="none">
	<ellipse id="XMLID_5_" display="inline" cx="256" cy="192" rx="96" ry="112"/>
	<path id="XMLID_8_" display="inline" d="M444.1,423.5c-4.1-16.9-8.2-32-11.5-40.8c-10.8-28.4-62.8-48.9-109.1-63.2l-7.4-1.7
		C298.3,329.4,277.8,336,256,336s-42.3-6.6-60.1-18.2l-7.4,1.7c-46.4,14.3-98.3,34.8-109.1,63.2c-3.3,8.8-7.4,23.9-11.5,40.8
		c0,0-12.9,60.5,8.6,60.5c18.3,0,179.5,0,179.5,0s161.2,0,179.5,0C457,484,444.1,423.5,444.1,423.5z"/>
</g>
<g id="Layer_5" display="none">
	<ellipse id="XMLID_6_" display="inline" cx="256" cy="192" rx="96" ry="112"/>
	<path id="XMLID_4_" display="inline" d="M444.1,423.5c-4.1-16.9-8.2-32-11.5-40.8c-10.8-28.4-62.8-48.9-109.1-63.2l-7.4-1.7
		C298.3,329.4,277.8,336,256,336s-42.3-6.6-60.1-18.2l-7.4,1.7c-46.4,14.3-98.3,34.8-109.1,63.2c-3.3,8.8-7.4,23.9-11.5,40.8
		c0,0-12.9,60.5,8.6,60.5c18.3,0,179.5,0,179.5,0s161.2,0,179.5,0C457,484,444.1,423.5,444.1,423.5z"/>
</g>
<g id="Layer_6" display="none">
	<ellipse id="XMLID_10_" display="inline" cx="168.1" cy="184.9" rx="76" ry="88.7"/>
	<path id="XMLID_7_" display="inline" d="M317,368.1c-3.2-13.4-6.5-25.4-9.1-32.3c-8.5-22.5-49.7-38.7-86.4-50l-5.9-1.3
		c-14.1,9.2-30.3,14.4-47.6,14.4s-33.5-5.2-47.6-14.4l-5.9,1.3c-36.7,11.4-77.9,27.5-86.4,50c-2.6,6.9-5.9,18.9-9.1,32.3
		c0,0-10.2,47.9,6.8,47.9c14.5,0,142.1,0,142.1,0s127.6,0,142.1,0C327.2,416,317,368.1,317,368.1z"/>
	<ellipse id="XMLID_13_" display="inline" cx="343.9" cy="184.9" rx="76" ry="88.7"/>
	<path id="XMLID_12_" display="inline" d="M492.9,368.1c-3.2-13.4-6.5-25.4-9.1-32.3c-8.5-22.5-49.7-38.7-86.4-50l-5.9-1.3
		c-14.1,9.2-30.3,14.4-47.6,14.4s-33.5-5.2-47.6-14.4l-5.9,1.3c-36.7,11.4-77.9,27.5-86.4,50c-2.6,6.9-5.9,18.9-9.1,32.3
		c0,0-10.2,47.9,6.8,47.9c14.5,0,142.1,0,142.1,0s127.6,0,142.1,0C503,416,492.9,368.1,492.9,368.1z"/>
</g>
<g id="Layer_7" display="none">
	<ellipse id="XMLID_18_" display="inline" cx="168.1" cy="184.9" rx="76" ry="88.7"/>
	<ellipse id="XMLID_16_" display="inline" cx="343.9" cy="184.9" rx="76" ry="88.7"/>
	<path id="XMLID_15_" display="inline" d="M492.9,368.1c-3.2-13.4-6.5-25.4-9.1-32.3c-8.5-22.5-49.7-38.7-86.4-50l-5.9-1.3
		c-14.1,9.2-30.3,14.4-47.6,14.4s-33.5-5.2-47.6-14.4l-5.9,1.3c-36.7,11.4-77.9,27.5-86.4,50c-2.6,6.9-5.9,18.9-9.1,32.3
		c0,0-10.2,47.9,6.8,47.9c14.5,0,142.1,0,142.1,0s127.6,0,142.1,0C503,416,492.9,368.1,492.9,368.1z"/>
	<path id="XMLID_24_" display="inline" d="M163.7,371.9c3.9-16.2,7.8-30.7,11-39.1c6.7-17.6,29.8-32,57.3-43.7
		c-3.5-1.2-7-2.3-10.5-3.3l-5.9-1.3c-14.1,9.2-30.3,14.4-47.6,14.4s-33.5-5.2-47.6-14.4l-5.9,1.3c-36.7,11.4-77.9,27.5-86.4,50
		c-2.6,6.9-5.9,18.9-9.1,32.3c0,0-10.2,47.9,6.8,47.9c12.4,0,107.6,0,134.9,0C157.9,398.9,163.7,371.9,163.7,371.9z"/>
</g>
<g id="smaller_couple" display="none">
	<ellipse id="XMLID_19_" display="inline" cx="160.1" cy="196" rx="72" ry="84"/>
	<path id="XMLID_17_" display="inline" d="M301.1,369.6c-3.1-12.7-6.1-24-8.6-30.6c-8.1-21.3-47.1-36.7-81.8-47.4l-5.6-1.3
		c-13.3,8.7-28.7,13.6-45.1,13.6s-31.7-5-45.1-13.6l-5.6,1.3c-34.8,10.8-73.8,26.1-81.8,47.4c-2.5,6.6-5.6,17.9-8.6,30.6
		c0,0-9.6,45.3,6.5,45.3c13.7,0,134.6,0,134.6,0s120.9,0,134.6,0C310.8,415,301.1,369.6,301.1,369.6z"/>
	<ellipse id="XMLID_25_" display="inline" cx="352.1" cy="196" rx="72" ry="84"/>
	<path id="XMLID_14_" display="inline" d="M493.1,369.6c-3.1-12.7-6.1-24-8.6-30.6c-8.1-21.3-47.1-36.7-81.8-47.4l-5.6-1.3
		c-13.3,8.7-28.7,13.6-45.1,13.6c-16.4,0-31.7-5-45.1-13.6l-5.6,1.3c-34.8,10.8-73.8,26.1-81.8,47.4c-2.5,6.6-5.6,17.9-8.6,30.6
		c0,0-9.6,45.3,6.5,45.3c13.7,0,134.6,0,134.6,0s120.9,0,134.6,0C502.8,415,493.1,369.6,493.1,369.6z"/>
</g>
<g id="Layer_9" display="none">
	<ellipse id="XMLID_55_" display="inline" cx="160.1" cy="196" rx="72" ry="84"/>
	<ellipse id="XMLID_26_" display="inline" cx="352.1" cy="196" rx="72" ry="84"/>
	<path id="XMLID_11_" display="inline" d="M493.1,369.6c-3.1-12.7-6.1-24-8.6-30.6c-8.1-21.3-47.1-36.7-81.8-47.4l-5.6-1.3
		c-13.3,8.7-28.7,13.6-45.1,13.6c-16.4,0-31.7-5-45.1-13.6l-5.6,1.3c-34.8,10.8-73.8,26.1-81.8,47.4c-2.5,6.6-5.6,17.9-8.6,30.6
		c0,0-9.6,45.3,6.5,45.3c13.7,0,134.6,0,134.6,0s120.9,0,134.6,0C502.8,415,493.1,369.6,493.1,369.6z"/>
	<path id="XMLID_58_" display="inline" d="M179.6,373.4c3.7-15.5,7.5-29.4,10.5-37.4c5.4-14.3,22.3-26.5,43.5-36.7
		c-7.6-2.8-15.4-5.4-23-7.7l-5.6-1.3c-13.3,8.7-28.7,13.6-45.1,13.6s-31.7-5-45.1-13.6l-5.6,1.3c-34.8,10.8-73.8,26.1-81.8,47.4
		c-2.5,6.6-5.6,17.9-8.6,30.6c0,0-9.6,45.3,6.5,45.3c13.7,0,134.6,0,134.6,0s6.5,0,16.7,0C174.3,398.6,179.6,373.4,179.6,373.4z"/>
</g>
<g id="Layer_10" display="none">
	<ellipse id="XMLID_56_" display="inline" cx="255.9" cy="189.9" rx="79.6" ry="92.9"/>
	<path id="XMLID_54_" display="inline" d="M411.9,381.9c-3.4-14-6.8-26.6-9.5-33.8c-8.9-23.6-52-40.5-90.5-52.4l-6.2-1.4
		c-14.7,9.6-31.7,15.1-49.8,15.1s-35.1-5.5-49.8-15.1l-6.2,1.4c-38.4,11.9-81.5,28.8-90.5,52.4c-2.8,7.3-6.1,19.8-9.5,33.8
		c0,0-10.7,50.1,7.1,50.1c15.2,0,148.8,0,148.8,0s133.7,0,148.8,0C422.6,432,411.9,381.9,411.9,381.9z"/>
	<ellipse id="XMLID_60_" display="inline" cx="143.1" cy="206.6" rx="63.6" ry="74.2"/>
	<path id="XMLID_59_" display="inline" d="M267.8,359.9c-2.7-11.2-5.4-21.2-7.6-27c-7.1-18.8-41.6-32.4-72.3-41.9l-4.9-1.1
		c-11.8,7.7-25.3,12.1-39.8,12.1s-28-4.4-39.8-12.1l-4.9,1.1c-30.7,9.5-65.1,23-72.3,41.9c-2.2,5.8-4.9,15.8-7.6,27
		c0,0-8.5,40.1,5.7,40.1c12.1,0,118.9,0,118.9,0s106.8,0,118.9,0C276.3,400,267.8,359.9,267.8,359.9z"/>
	<ellipse id="XMLID_62_" display="inline" cx="368.9" cy="206.6" rx="63.6" ry="74.2"/>
	<path id="XMLID_61_" display="inline" d="M493.5,359.9c-2.7-11.2-5.4-21.2-7.6-27c-7.1-18.8-41.6-32.4-72.3-41.9l-4.9-1.1
		c-11.8,7.7-25.3,12.1-39.8,12.1s-28-4.4-39.8-12.1l-4.9,1.1c-30.7,9.5-65.1,23-72.3,41.9c-2.2,5.8-4.9,15.8-7.6,27
		c0,0-8.5,40.1,5.7,40.1c12.1,0,118.9,0,118.9,0s106.8,0,118.9,0C502,400,493.5,359.9,493.5,359.9z"/>
</g>
<g id="Layer_12" display="none">
	<path id="XMLID_64_" display="inline" d="M267.8,359.9c-2.7-11.2-5.4-21.2-7.6-27c-7.1-18.8-41.6-32.4-72.3-41.9l-4.9-1.1
		c-11.8,7.7-25.3,12.1-39.8,12.1s-28-4.4-39.8-12.1l-4.9,1.1c-30.7,9.5-65.1,23-72.3,41.9c-2.2,5.8-4.9,15.8-7.6,27
		c0,0-8.5,40.1,5.7,40.1c12.1,0,118.9,0,118.9,0s106.8,0,118.9,0C276.3,400,267.8,359.9,267.8,359.9z"/>
	<path id="XMLID_57_" display="inline" d="M493.5,359.9c-2.7-11.2-5.4-21.2-7.6-27c-7.1-18.8-41.6-32.4-72.3-41.9l-4.9-1.1
		c-11.8,7.7-25.3,12.1-39.8,12.1s-28-4.4-39.8-12.1l-4.9,1.1c-30.7,9.5-65.1,23-72.3,41.9c-2.2,5.8-4.9,15.8-7.6,27
		c0,0-8.5,40.1,5.7,40.1c12.1,0,118.9,0,118.9,0s106.8,0,118.9,0C502,400,493.5,359.9,493.5,359.9z"/>
	<path id="XMLID_68_" display="inline" fill="#FFFFFF" d="M430,376c-3.8-15.6-7.6-29.6-10.6-37.8c-10-26.3-58.1-45.2-101-58.5
		l-6.9-1.6c-16.5,10.7-35.4,16.8-55.6,16.8s-39.1-6.1-55.6-16.8l-6.9,1.6c-42.9,13.3-91,32.2-101,58.5c-3.1,8.1-6.9,22.1-10.6,37.8
		c0,0-11.9,56,8,56c16.9,0,166.1,0,166.1,0s149.2,0,166.1,0C441.9,432,430,376,430,376z"/>
	<ellipse id="XMLID_65_" display="inline" cx="143.1" cy="206.6" rx="63.6" ry="74.2"/>
	<ellipse id="XMLID_63_" display="inline" cx="368.9" cy="206.6" rx="63.6" ry="74.2"/>
	<ellipse id="XMLID_69_" display="inline" fill="#FFFFFF" cx="255.9" cy="189.9" rx="100.2" ry="116.9"/>
	<ellipse id="XMLID_67_" display="inline" cx="255.9" cy="189.9" rx="79.6" ry="92.9"/>
	<path id="XMLID_66_" display="inline" d="M411.9,381.9c-3.4-14-6.8-26.6-9.5-33.8c-8.9-23.6-52-40.5-90.5-52.4l-6.2-1.4
		c-14.7,9.6-31.7,15.1-49.8,15.1s-35.1-5.5-49.8-15.1l-6.2,1.4c-38.4,11.9-81.5,28.8-90.5,52.4c-2.8,7.3-6.1,19.8-9.5,33.8
		c0,0-10.7,50.1,7.1,50.1c15.2,0,148.8,0,148.8,0s133.7,0,148.8,0C422.6,432,411.9,381.9,411.9,381.9z"/>
</g>
<g id="Layer_14" display="none">
	<rect id="XMLID_78_" display="inline" fill="#FFFFFF" width="512" height="512"/>
</g>
<g id="Layer_13" display="none">
	<rect id="XMLID_79_" display="inline" fill="#FFFFFF" width="512" height="512"/>
	<path id="XMLID_77_" display="inline" d="M251.9,362.5c-2.5-10.5-5.1-19.9-7.1-25.3c-6.7-17.6-39-30.3-67.7-39.2l-4.6-1.1
		c-11,7.2-23.8,11.3-37.3,11.3s-26.3-4.1-37.3-11.3l-4.6,1.1c-28.8,8.9-61,21.6-67.7,39.2c-2.1,5.4-4.6,14.8-7.1,25.3
		c0,0-8,37.5,5.3,37.5c11.3,0,111.4,0,111.4,0s100.1,0,111.4,0C259.9,400,251.9,362.5,251.9,362.5z"/>
	<path id="XMLID_76_" display="inline" d="M493.5,359.9c-2.7-11.2-5.4-21.2-7.6-27c-7.1-18.8-41.6-32.4-72.3-41.9l-4.9-1.1
		c-11.8,7.7-25.3,12.1-39.8,12.1s-28-4.4-39.8-12.1l-4.9,1.1c-30.7,9.5-65.1,23-72.3,41.9c-2.2,5.8-4.9,15.8-7.6,27
		c0,0-8.5,40.1,5.7,40.1c12.1,0,118.9,0,118.9,0s106.8,0,118.9,0C502,400,493.5,359.9,493.5,359.9z"/>
	<path id="XMLID_75_" display="inline" fill="#FFFFFF" d="M416.7,364.5c-3.5-14.4-7-27.4-9.8-34.9c-9.2-24.3-53.6-41.8-93.3-54
		l-6.3-1.5c-15.2,9.9-32.7,15.5-51.4,15.5s-36.2-5.6-51.4-15.5l-6.3,1.5c-39.6,12.3-84.1,29.7-93.3,54c-2.8,7.5-6.3,20.4-9.8,34.9
		c0,0-11,51.7,7.4,51.7c15.6,0,153.4,0,153.4,0s137.8,0,153.4,0C427.7,416.2,416.7,364.5,416.7,364.5z"/>
	<ellipse id="XMLID_74_" display="inline" cx="135.1" cy="218.7" rx="59.6" ry="69.5"/>
	<ellipse id="XMLID_73_" display="inline" cx="368.9" cy="206.6" rx="63.6" ry="74.2"/>
	<ellipse id="XMLID_72_" display="inline" fill="#FFFFFF" cx="255.9" cy="203.9" rx="91.3" ry="106.5"/>
	<ellipse id="XMLID_71_" display="inline" cx="255.9" cy="203.9" rx="68" ry="79.4"/>
	<path id="XMLID_70_" display="inline" d="M389.3,368c-2.9-12-5.8-22.7-8.1-28.9c-7.6-20.2-44.5-34.6-77.3-44.8l-5.3-1.2
		c-12.6,8.2-27.1,12.9-42.6,12.9s-30-4.7-42.6-12.9l-5.3,1.2c-32.9,10.2-69.7,24.7-77.3,44.8c-2.4,6.2-5.3,16.9-8.1,28.9
		c0,0-9.1,42.9,6.1,42.9c13,0,127.2,0,127.2,0s114.3,0,127.2,0C398.4,410.9,389.3,368,389.3,368z"/>
</g>
<g id="Layer_15" display="none">
	<ellipse id="XMLID_81_" display="inline" fill="#4320FF" cx="255.9" cy="209.1" rx="68" ry="79.4"/>
	<path id="XMLID_80_" display="inline" fill="#4320FF" d="M389.3,373.1c-2.9-12-5.8-22.7-8.1-28.9c-7.6-20.2-44.5-34.6-77.3-44.8
		l-5.3-1.2c-12.6,8.2-27.1,12.9-42.6,12.9s-30-4.7-42.6-12.9l-5.3,1.2c-32.9,10.2-69.7,24.7-77.3,44.8c-2.4,6.2-5.3,16.9-8.1,28.9
		c0,0-9.1,42.9,6.1,42.9c13,0,127.2,0,127.2,0s114.3,0,127.2,0C398.4,416,389.3,373.1,389.3,373.1z"/>
	<path id="XMLID_89_" display="inline" fill="#4320FF" d="M368.9,116.4c-13.6,0-26.1,5-36.4,13.4c9.4,16.7,14.8,36.7,14.8,58.1
		c0,23-6.2,44.3-16.9,61.7c10.7,9.5,24,15.2,38.5,15.2c35.1,0,63.6-33.2,63.6-74.2C432.4,149.6,404,116.4,368.9,116.4z"/>
	<path id="XMLID_88_" display="inline" fill="#4320FF" d="M164.7,187.9c0-14.3,2.4-27.9,6.8-40.3c-10.1-9-22.6-14.4-36.3-14.4
		c-32.9,0-59.6,31.1-59.6,69.5c0,38.4,26.7,69.5,59.6,69.5c18.2,0,34.4-9.5,45.3-24.4C170.5,230.8,164.7,210.2,164.7,187.9z"/>
	<path id="XMLID_83_" display="inline" fill="#4320FF" d="M493.5,343.9c-2.7-11.2-5.4-21.2-7.6-27c-7.1-18.8-41.6-32.4-72.3-41.9
		l-4.9-1.1c-9.3,6.1-19.8,10.1-30.9,11.5c14.3,8.2,25.1,17.5,29.2,28.2c2.8,7.5,6.3,20.4,9.8,34.9c0,0,4.3,20.3,3,35.5
		c29.3,0,61.7,0,68,0C502,384,493.5,343.9,493.5,343.9z"/>
	<path id="XMLID_84_" display="inline" fill="#4320FF" d="M95.1,348.5c3.5-14.4,7-27.4,9.8-34.9c3.1-8.2,10.2-15.6,19.8-22.3
		c-9.7-1.5-18.8-5.2-26.9-10.5l-4.6,1.1c-28.8,8.9-61,21.6-67.7,39.2c-2.1,5.4-4.6,14.8-7.1,25.3c0,0-8,37.5,5.3,37.5
		c6.3,0,39.8,0,68.4,0C90.8,368.8,95.1,348.5,95.1,348.5z"/>
</g>
<g id="Layer_16" display="none">
	<g id="XMLID_82_" display="inline">
		<g id="XMLID_253_">
			<g id="XMLID_254_">
				<path id="XMLID_255_" d="M255.9,288.4c37.6,0,68-35.5,68-79.4s-30.5-79.4-68-79.4s-68,35.5-68,79.4S218.4,288.4,255.9,288.4z
					 M134.8,272.3c16.7,0,31.8-8,42.6-21c-5.1-12.8-7.9-27.2-7.9-42.2c0-18.3,4.2-35.4,11.5-50.2c-10.9-15.6-27.6-25.6-46.2-25.6
					c-32.9,0-59.6,31.1-59.6,69.5C75.2,241.1,101.9,272.3,134.8,272.3z M334.6,250.7c10.9,13.3,26.1,21.5,43.1,21.5
					c32.9,0,59.6-31.1,59.6-69.5c0-38.4-26.7-69.5-59.6-69.5c-18.9,0-35.7,10.2-46.6,26.2c7.1,14.7,11.2,31.6,11.2,49.6
					C342.3,223.9,339.6,238,334.6,250.7z M189.5,286.4c-4.3-1.5-8.6-2.9-12.9-4.2l-4.6-1.1c-11,7.2-23.7,11.3-37.2,11.3
					s-26.2-4.1-37.2-11.3l-4.6,1.1c-28.7,8.9-60.9,21.5-67.6,39.1c-2.1,5.4-4.6,14.8-7.1,25.3c0,0-8,37.4,5.3,37.4h75.4
					c0.6-3.8,1-6.2,1-6.2c3.4-15.4,6.8-29.3,9.5-37.3C117.8,316.8,154.1,299.2,189.5,286.4z M381.1,344.2
					c-7.6-20.2-44.5-34.6-77.3-44.8l-5.3-1.2c-12.6,8.2-27.1,12.9-42.6,12.9s-30-4.7-42.6-12.9l-5.3,1.2
					c-32.9,10.2-69.7,24.7-77.3,44.8c-2.4,6.2-5.3,16.9-8.1,28.9c0,0-9.1,42.9,6.1,42.9c13,0,127.2,0,127.2,0s114.3,0,127.2,0
					c15.2,0,6.1-42.9,6.1-42.9C386.4,361.2,383.5,350.4,381.1,344.2z M494.2,346.6c-2.5-10.5-5.1-19.8-7.1-25.3
					c-6.7-17.6-38.9-30.3-67.6-39.1l-4.6-1.1c-11,7.2-23.7,11.3-37.2,11.3s-26.2-4.1-37.2-11.3l-4.6,1.1c-4.4,1.4-8.8,2.8-13.3,4.3
					c35.3,12.9,71.5,30.4,79.6,54c2.8,8,6.1,21.9,9.5,37.3c0,0,0.5,2.4,1,6.2h76.1C502.2,384,494.2,346.6,494.2,346.6z"/>
			</g>
		</g>
	</g>
</g>
<g id="Layer_17" display="none">
	<g id="XMLID_90_" display="inline">
		<g id="XMLID_92_">
			<path id="XMLID_93_" d="M134.8,272.3c16.7,0,31.8-8,42.6-21c-5.1-12.8-7.9-27.2-7.9-42.2c0-18.3,4.2-35.4,11.5-50.2
				c-10.9-15.6-27.6-25.6-46.2-25.6c-32.9,0-59.6,31.1-59.6,69.5C75.2,241.1,101.9,272.3,134.8,272.3z M255.9,288.4
				c37.6,0,68-35.5,68-79.4s-30.5-79.4-68-79.4s-68,35.5-68,79.4S218.4,288.4,255.9,288.4z M334.6,250.7
				c10.9,13.3,26.1,21.5,43.1,21.5c32.9,0,59.6-31.1,59.6-69.5c0-38.4-26.7-69.5-59.6-69.5c-18.9,0-35.7,10.2-46.6,26.2
				c7.1,14.7,11.2,31.6,11.2,49.6C342.3,223.9,339.6,238,334.6,250.7z M189.5,286.4c-4.3-1.5-8.6-2.9-12.9-4.2l-4.6-1.1
				c-11,7.2-23.7,11.3-37.2,11.3s-26.2-4.1-37.2-11.3l-4.6,1.1c-28.7,8.9-60.9,21.5-67.6,39.1c-2.1,5.4-4.6,14.8-7.1,25.3
				c0,0-8,37.4,5.3,37.4h75.4c0.6-3.8,1-6.2,1-6.2c3.4-15.4,6.8-29.3,9.5-37.3C117.8,316.8,154.1,299.2,189.5,286.4z M494.2,346.6
				c-2.5-10.5-5.1-19.8-7.1-25.3c-6.7-17.6-38.9-30.3-67.6-39.1l-4.6-1.1c-11,7.2-23.7,11.3-37.2,11.3s-26.2-4.1-37.2-11.3l-4.6,1.1
				c-4.4,1.4-8.8,2.8-13.3,4.3c35.3,12.9,71.5,30.4,79.6,54c2.8,8,6.1,21.9,9.5,37.3c0,0,0.5,2.4,1,6.2h76.1
				C502.2,384,494.2,346.6,494.2,346.6z M381.1,344.2c-7.6-20.2-44.5-34.6-77.3-44.8l-5.3-1.2c-12.6,8.2-27.1,12.9-42.6,12.9
				s-30-4.7-42.6-12.9l-5.3,1.2c-32.9,10.2-69.7,24.7-77.3,44.8c-2.4,6.2-5.3,16.9-8.1,28.9c0,0-9.1,42.9,6.1,42.9
				c13,0,127.2,0,127.2,0s114.3,0,127.2,0c15.2,0,6.1-42.9,6.1-42.9C386.4,361.2,383.5,350.4,381.1,344.2z"/>
		</g>
	</g>
</g>
<g id="Layer_18" display="none">
	<path id="XMLID_133_" display="inline" d="M292.7,310.8c-2.9-12-5.8-22.7-8.1-28.9c-7.6-20.2-44.5-34.6-77.3-44.8l-5.3-1.2
		c-12.6,8.2-27.1,12.9-42.6,12.9s-30-4.7-42.6-12.9l-5.3,1.2c-32.9,10.2-69.7,24.7-77.3,44.8c-2.4,6.2-5.3,16.9-8.1,28.9
		c0,0-9.1,42.9,6.1,42.9c13,0,127.2,0,127.2,0s114.3,0,127.2,0C301.8,353.7,292.7,310.8,292.7,310.8z"/>
	<ellipse id="XMLID_134_" display="inline" cx="159.4" cy="146.7" rx="68" ry="79.4"/>
	<path id="XMLID_138_" display="inline" d="M485.8,310.8c-2.9-12-5.8-22.7-8.1-28.9c-7.6-20.2-44.5-34.6-77.3-44.8l-5.3-1.2
		c-12.6,8.2-27.1,12.9-42.6,12.9c-15.5,0-30-4.7-42.6-12.9l-5.3,1.2c-32.9,10.2-69.7,24.7-77.3,44.8c-2.4,6.2-5.3,16.9-8.1,28.9
		c0,0-9.1,42.9,6.1,42.9c13,0,127.2,0,127.2,0s114.3,0,127.2,0C494.9,353.7,485.8,310.8,485.8,310.8z"/>
	<ellipse id="XMLID_137_" display="inline" cx="352.5" cy="146.7" rx="68" ry="79.4"/>
	<ellipse id="XMLID_135_" display="inline" fill="#FFFFFF" cx="255.9" cy="226.7" rx="96.5" ry="112.6"/>
	<path id="XMLID_132_" display="inline" fill="#FFFFFF" d="M421,387.9c-3.6-16.8-7.2-31.8-10.1-40.6c-9.5-28.3-55.1-48.6-95.7-62.9
		l-6.5-1.7c-15.6,11.5-33.6,18.1-52.7,18.1s-37.1-6.6-52.7-18.1l-6.5,1.7c-40.7,14.3-86.3,34.6-95.7,62.9
		c-2.9,8.7-6.5,23.8-10.1,40.6c0,0-11.3,60.1,7.6,60.1c16,0,157.5,0,157.5,0s141.5,0,157.5,0C432.3,448,421,387.9,421,387.9z"/>
	<ellipse id="XMLID_131_" display="inline" cx="255.9" cy="226.7" rx="68" ry="79.4"/>
	<path id="XMLID_130_" display="inline" d="M389.3,390.8c-2.9-12-5.8-22.7-8.1-28.9c-7.6-20.2-44.5-34.6-77.3-44.8l-5.3-1.2
		c-12.6,8.2-27.1,12.9-42.6,12.9s-30-4.7-42.6-12.9l-5.3,1.2c-32.9,10.2-69.7,24.7-77.3,44.8c-2.4,6.2-5.3,16.9-8.1,28.9
		c0,0-9.1,42.9,6.1,42.9c13,0,127.2,0,127.2,0s114.3,0,127.2,0C398.4,433.7,389.3,390.8,389.3,390.8z"/>
</g>
<g id="failed_1" display="none">
	<path id="XMLID_151_" display="inline" d="M197.4,288.5l2.9-0.6c-13.9-12.3-24.7-29.1-30.5-48.4c-0.3-0.1-0.6-0.2-0.9-0.3l-4.4-1
		c-10.5,6.8-22.5,10.7-35.4,10.7s-24.9-3.9-35.4-10.7l-4.4,1C62,247.5,31.4,259.6,25,276.3c-2,5.2-4.4,14.1-6.8,24
		c0,0-7.6,35.6,5.1,35.6c7.3,0,53.9,0,82.7,0C119.9,315,160.7,299.6,197.4,288.5z"/>
	<path id="XMLID_155_" display="inline" d="M382.9,98c-25.1,0-46.4,19.1-53.8,45.6c11.3,17.3,17.9,38.7,17.9,61.9
		c0,3.1-0.1,6.1-0.4,9.1c9.8,9.6,22.4,15.3,36.2,15.3c31.2,0,56.6-29.5,56.6-66C439.5,127.5,414.2,98,382.9,98z"/>
	<path id="XMLID_154_" display="inline" d="M382.9,98c-25.1,0-46.4,19.1-53.8,45.6c11.3,17.3,17.9,38.7,17.9,61.9
		c0,3.1-0.1,6.1-0.4,9.1c9.8,9.6,22.4,15.3,36.2,15.3c31.2,0,56.6-29.5,56.6-66C439.5,127.5,414.2,98,382.9,98z"/>
	<path id="XMLID_174_" display="inline" d="M164.8,205.5c0-23.3,6.7-44.7,18-62c-7.4-26.4-28.7-45.5-53.8-45.5
		c-31.2,0-56.6,29.5-56.6,66c0,36.4,25.3,66,56.6,66c13.7,0,26.3-5.7,36.1-15.2C165,211.7,164.8,208.6,164.8,205.5z"/>
	<path id="XMLID_150_" display="inline" d="M493.8,300.4c-2.4-9.9-4.8-18.9-6.8-24c-6.4-16.8-37-28.8-64.3-37.2l-4.4-1
		c-10.5,6.8-22.5,10.7-35.4,10.7s-24.9-3.9-35.4-10.7l-4.4,1c-0.4,0.1-0.7,0.2-1.1,0.3c-5.9,19.4-16.6,36.1-30.5,48.4l2.9,0.6
		c36.7,11.1,77.5,26.5,91.4,47.5c28.8,0,75.5,0,82.8,0C501.3,336,493.8,300.4,493.8,300.4z"/>
	<ellipse id="XMLID_147_" display="inline" cx="255.9" cy="205.5" rx="74.6" ry="87"/>
	<path id="XMLID_146_" display="inline" d="M402,385.3c-3.2-13.1-6.3-24.9-8.9-31.7c-8.4-22.1-48.7-38-84.8-49.1l-5.8-1.3
		c-13.8,9-29.7,14.1-46.7,14.1c-16.9,0-32.8-5.1-46.7-14.1l-5.8,1.3c-36,11.1-76.4,27-84.8,49.1c-2.6,6.8-5.8,18.6-8.9,31.7
		c0,0-10,47,6.7,47c14.2,0,139.4,0,139.4,0s125.2,0,139.4,0C412,432.3,402,385.3,402,385.3z"/>
</g>
<g id="failed_2" display="none">
	<path id="XMLID_148_" display="inline" d="M106,336c-28.8,0-75.4,0-82.7,0c-12.6,0-5.1-35.6-5.1-35.6c2.4-9.9,4.8-18.9,6.8-24
		c6.4-16.8,37-28.8,64.3-37.2l4.4-1c10.5,6.8,22.5,10.7,35.4,10.7s24.9-3.9,35.4-10.7l4.4,1c0.3,0.1,0.6,0.2,0.9,0.3
		c5.9,19.4,16.6,36.2,30.5,48.4l-2.9,0.6C160.7,299.6,119.9,315,106,336z M382.9,98c-25.1,0-46.4,19.1-53.8,45.6
		c11.3,17.3,17.9,38.7,17.9,61.9c0,3.1-0.1,6.1-0.4,9.1c9.8,9.6,22.4,15.3,36.2,15.3c31.2,0,56.6-29.5,56.6-66
		C439.5,127.5,414.2,98,382.9,98z M382.9,98c-25.1,0-46.4,19.1-53.8,45.6c11.3,17.3,17.9,38.7,17.9,61.9c0,3.1-0.1,6.1-0.4,9.1
		c9.8,9.6,22.4,15.3,36.2,15.3c31.2,0,56.6-29.5,56.6-66C439.5,127.5,414.2,98,382.9,98z M164.8,205.5c0-23.3,6.7-44.7,18-62
		c-7.4-26.4-28.7-45.5-53.8-45.5c-31.2,0-56.6,29.5-56.6,66c0,36.4,25.3,66,56.6,66c13.7,0,26.3-5.7,36.1-15.2
		C165,211.7,164.8,208.6,164.8,205.5z M493.8,300.4c-2.4-9.9-4.8-18.9-6.8-24c-6.4-16.8-37-28.8-64.3-37.2l-4.4-1
		c-10.5,6.8-22.5,10.7-35.4,10.7s-24.9-3.9-35.4-10.7l-4.4,1c-0.4,0.1-0.7,0.2-1.1,0.3c-5.9,19.4-16.6,36.1-30.5,48.4l2.9,0.6
		c36.7,11.1,77.5,26.5,91.4,47.5c28.8,0,75.5,0,82.8,0C501.3,336,493.8,300.4,493.8,300.4z M255.9,118.5c-41.2,0-74.6,38.9-74.6,87
		s33.4,87,74.6,87s74.6-38.9,74.6-87S297.1,118.5,255.9,118.5z M402,385.3c-3.2-13.1-6.3-24.9-8.9-31.7c-8.4-22.1-48.7-38-84.8-49.1
		l-5.8-1.3c-13.8,9-29.7,14.1-46.7,14.1c-16.9,0-32.8-5.1-46.7-14.1l-5.8,1.3c-36,11.1-76.4,27-84.8,49.1
		c-2.6,6.8-5.8,18.6-8.9,31.7c0,0-10,47,6.7,47c14.2,0,139.4,0,139.4,0s125.2,0,139.4,0C412,432.3,402,385.3,402,385.3z"/>
</g>
<g id="latest1" display="none">
	<path id="XMLID_145_" display="inline" d="M239.9,300.4c-2.4-9.9-4.8-18.9-6.8-24c-6.4-16.8-37-28.8-64.3-37.2l-4.4-1
		c-10.5,6.8-22.5,10.7-35.4,10.7s-24.9-3.9-35.4-10.7l-4.4,1C62,247.5,31.4,259.6,25,276.3c-2,5.2-4.4,14.1-6.8,24
		c0,0-7.6,35.6,5.1,35.6c10.8,0,105.8,0,105.8,0s95,0,105.8,0C247.5,336,239.9,300.4,239.9,300.4z"/>
	<ellipse id="XMLID_144_" display="inline" cx="129.1" cy="164" rx="56.6" ry="66"/>
	<path id="XMLID_143_" display="inline" d="M493.8,300.4c-2.4-9.9-4.8-18.9-6.8-24c-6.4-16.8-37-28.8-64.3-37.2l-4.4-1
		c-10.5,6.8-22.5,10.7-35.4,10.7s-24.9-3.9-35.4-10.7l-4.4,1c-27.3,8.4-57.9,20.5-64.3,37.2c-2,5.2-4.4,14.1-6.8,24
		c0,0-7.6,35.6,5.1,35.6c10.8,0,105.8,0,105.8,0s95,0,105.8,0C501.3,336,493.8,300.4,493.8,300.4z"/>
	<ellipse id="XMLID_142_" display="inline" cx="382.9" cy="164" rx="56.6" ry="66"/>
	<ellipse id="XMLID_141_" display="inline" fill="#FFFFFF" cx="255.9" cy="205.5" rx="104" ry="118.7"/>
	<path id="XMLID_140_" display="inline" fill="#FFFFFF" d="M439.5,380.6c-4-17.2-8-32.7-11.2-41.6c-10.5-29-61.2-49.9-106.5-64.5
		l-7.2-1.7c-17.3,11.8-37.3,18.6-58.6,18.6s-41.3-6.7-58.6-18.6l-7.2,1.7c-45.2,14.6-96,35.5-106.5,64.5
		c-3.2,8.9-7.2,24.4-11.2,41.6c0,0-12.5,61.7,8.4,61.7c17.8,0,175.1,0,175.1,0s157.3,0,175.1,0C452,442.3,439.5,380.6,439.5,380.6z"
		/>
	<ellipse id="XMLID_139_" display="inline" cx="255.9" cy="205.5" rx="74.6" ry="87"/>
	<path id="XMLID_136_" display="inline" d="M402,385.3c-3.2-13.1-6.3-24.9-8.9-31.7c-8.4-22.1-48.7-38-84.8-49.1l-5.8-1.3
		c-13.8,9-29.7,14.1-46.7,14.1c-16.9,0-32.8-5.1-46.7-14.1l-5.8,1.3c-36,11.1-76.4,27-84.8,49.1c-2.6,6.8-5.8,18.6-8.9,31.7
		c0,0-10,47,6.7,47c14.2,0,139.4,0,139.4,0s125.2,0,139.4,0C412,432.3,402,385.3,402,385.3z"/>
</g>
<g id="latest_2" display="none">
	<path id="XMLID_212_" display="inline" d="M174.7,279.6c-7.7-11-13.7-23.6-17.7-37.3c-8.6,4.2-18.1,6.5-28,6.5
		c-12.8,0-24.9-3.9-35.4-10.7l-4.4,1C62,247.5,31.4,259.6,25,276.3c-2,5.2-4.4,14.1-6.8,24c0,0-7.6,35.6,5.1,35.6
		c5.7,0,35.1,0,61.5,0C96.1,311.7,135.5,293.3,174.7,279.6z"/>
	<path id="XMLID_210_" display="inline" d="M152,205.5c0-29.4,9.3-56.2,24.8-76.9c-10-18.4-27.7-30.6-47.7-30.6
		c-31.2,0-56.6,29.5-56.6,66c0,36.4,25.3,66,56.6,66c8.6,0,16.8-2.3,24.1-6.3C152.4,217.7,152,211.7,152,205.5z"/>
	<path id="XMLID_214_" display="inline" d="M382.9,98c-20.1,0-37.7,12.2-47.8,30.7c15.4,20.7,24.7,47.5,24.7,76.8
		c0,6.2-0.4,12.2-1.2,18.1c7.3,4.1,15.6,6.4,24.2,6.4c31.2,0,56.6-29.5,56.6-66C439.5,127.5,414.2,98,382.9,98z"/>
	<path id="XMLID_209_" display="inline" d="M493.8,300.4c-2.4-9.9-4.8-18.9-6.8-24c-6.4-16.8-37-28.8-64.3-37.2l-4.4-1
		c-10.5,6.8-22.5,10.7-35.4,10.7c-10,0-19.5-2.4-28.1-6.6c-3.9,13.7-10,26.3-17.7,37.3c39.2,13.7,78.6,32.1,89.9,56.4
		c26.4,0,55.9,0,61.6,0C501.3,336,493.8,300.4,493.8,300.4z"/>
	<ellipse id="XMLID_178_" display="inline" cx="255.9" cy="205.5" rx="74.6" ry="87"/>
	<path id="XMLID_177_" display="inline" d="M402,385.3c-3.2-13.1-6.3-24.9-8.9-31.7c-8.4-22.1-48.7-38-84.8-49.1l-5.8-1.3
		c-13.8,9-29.7,14.1-46.7,14.1c-16.9,0-32.8-5.1-46.7-14.1l-5.8,1.3c-36,11.1-76.4,27-84.8,49.1c-2.6,6.8-5.8,18.6-8.9,31.7
		c0,0-10,47,6.7,47c14.2,0,139.4,0,139.4,0s125.2,0,139.4,0C412,432.3,402,385.3,402,385.3z"/>
</g>
<g id="Layer_22">
	<path id="XMLID_207_" d="M84.8,319.7c-26.4,0-55.8,0-61.5,0c-12.6,0-5.1-35.6-5.1-35.6c2.4-9.9,4.8-18.9,6.8-24
		c6.4-16.8,37-28.8,64.3-37.2l4.4-1c10.5,6.8,22.5,10.7,35.4,10.7c9.9,0,19.4-2.3,28-6.5c3.9,13.7,9.9,26.3,17.7,37.3
		C135.5,277,96.1,295.4,84.8,319.7z M152,189.2c0-29.4,9.3-56.2,24.8-76.9c-10-18.4-27.7-30.6-47.7-30.6c-31.2,0-56.6,29.5-56.6,66
		c0,36.4,25.3,66,56.6,66c8.6,0,16.8-2.3,24.1-6.3C152.4,201.5,152,195.4,152,189.2z M382.9,81.7c-20.1,0-37.7,12.2-47.8,30.7
		c15.4,20.7,24.7,47.5,24.7,76.8c0,6.2-0.4,12.2-1.2,18.1c7.3,4.1,15.6,6.4,24.2,6.4c31.2,0,56.6-29.5,56.6-66
		C439.5,111.2,414.2,81.7,382.9,81.7z M493.8,284.1c-2.4-9.9-4.8-18.9-6.8-24c-6.4-16.8-37-28.8-64.3-37.2l-4.4-1
		c-10.5,6.8-22.5,10.7-35.4,10.7c-10,0-19.5-2.4-28.1-6.6c-3.9,13.7-10,26.3-17.7,37.3c39.2,13.7,78.6,32.1,89.9,56.4
		c26.4,0,55.9,0,61.6,0C501.3,319.7,493.8,284.1,493.8,284.1z M255.9,102.2c-41.2,0-74.6,38.9-74.6,87s33.4,87,74.6,87
		s74.6-38.9,74.6-87S297.1,102.2,255.9,102.2z M402,369c-3.2-13.1-6.3-24.9-8.9-31.7c-8.4-22.1-48.7-38-84.8-49.1l-5.8-1.3
		c-13.8,9-29.7,14.1-46.7,14.1c-16.9,0-32.8-5.1-46.7-14.1l-5.8,1.3c-36,11.1-76.4,27-84.8,49.1c-2.6,6.8-5.8,18.6-8.9,31.7
		c0,0-10,47,6.7,47c14.2,0,139.4,0,139.4,0s125.2,0,139.4,0C412,416,402,369,402,369z"/>
</g>
</svg>
