<?xml version="1.0" encoding="utf-8"?>
<!-- Generator: Adobe Illustrator 19.0.0, SVG Export Plug-In . SVG Version: 6.00 Build 0)  -->
<svg version="1.1" xmlns="http://www.w3.org/2000/svg" xmlns:xlink="http://www.w3.org/1999/xlink" x="0px" y="0px"
	 viewBox="0 0 512 512" enable-background="new 0 0 512 512" xml:space="preserve">
<g id="grid">
	<g id="svgGrid">
		<line id="XMLID_53_" fill="none" stroke="#B35047" x1="32" y1="0" x2="32" y2="512"/>
		<line id="XMLID_52_" fill="none" stroke="#B35047" x1="64" y1="0" x2="64" y2="512"/>
		<line id="XMLID_51_" fill="none" stroke="#B35047" x1="96" y1="0" x2="96" y2="512"/>
		<line id="XMLID_50_" fill="none" stroke="#B35047" x1="128" y1="0" x2="128" y2="512"/>
		<line id="XMLID_49_" fill="none" stroke="#B35047" x1="160" y1="0" x2="160" y2="512"/>
		<line id="XMLID_48_" fill="none" stroke="#B35047" x1="192" y1="0" x2="192" y2="512"/>
		<line id="XMLID_47_" fill="none" stroke="#B35047" x1="224" y1="0" x2="224" y2="512"/>
		<line id="XMLID_46_" fill="none" stroke="#B35047" x1="256" y1="0" x2="256" y2="512"/>
		<line id="XMLID_45_" fill="none" stroke="#B35047" x1="288" y1="0" x2="288" y2="512"/>
		<line id="XMLID_44_" fill="none" stroke="#B35047" x1="320" y1="0" x2="320" y2="512"/>
		<line id="XMLID_43_" fill="none" stroke="#B35047" x1="352" y1="0" x2="352" y2="512"/>
		<line id="XMLID_42_" fill="none" stroke="#B35047" x1="384" y1="0" x2="384" y2="512"/>
		<line id="XMLID_41_" fill="none" stroke="#B35047" x1="416" y1="0" x2="416" y2="512"/>
		<line id="XMLID_40_" fill="none" stroke="#B35047" x1="448" y1="0" x2="448" y2="512"/>
		<line id="XMLID_39_" fill="none" stroke="#B35047" x1="480" y1="0" x2="480" y2="512"/>
		<line id="XMLID_38_" fill="none" stroke="#B35047" x1="0" y1="32" x2="512" y2="32"/>
		<line id="XMLID_37_" fill="none" stroke="#B35047" x1="0" y1="64" x2="512" y2="64"/>
		<line id="XMLID_36_" fill="none" stroke="#B35047" x1="0" y1="96" x2="512" y2="96"/>
		<line id="XMLID_35_" fill="none" stroke="#B35047" x1="0" y1="128" x2="512" y2="128"/>
		<line id="XMLID_34_" fill="none" stroke="#B35047" x1="0" y1="160" x2="512" y2="160"/>
		<line id="XMLID_32_" fill="none" stroke="#B35047" x1="0" y1="192" x2="512" y2="192"/>
		<line id="XMLID_31_" fill="none" stroke="#B35047" x1="0" y1="224" x2="512" y2="224"/>
		<line id="XMLID_30_" fill="none" stroke="#B35047" x1="0" y1="256" x2="512" y2="256"/>
		<line id="XMLID_29_" fill="none" stroke="#B35047" x1="0" y1="288" x2="512" y2="288"/>
		<line id="XMLID_28_" fill="none" stroke="#B35047" x1="0" y1="320" x2="512" y2="320"/>
		<line id="XMLID_27_" fill="none" stroke="#B35047" x1="0" y1="352" x2="512" y2="352"/>
		<line id="XMLID_23_" fill="none" stroke="#B35047" x1="0" y1="384" x2="512" y2="384"/>
		<line id="XMLID_22_" fill="none" stroke="#B35047" x1="0" y1="416" x2="512" y2="416"/>
		<line id="XMLID_21_" fill="none" stroke="#B35047" x1="0" y1="448" x2="512" y2="448"/>
		<line id="XMLID_20_" fill="none" stroke="#B35047" x1="0" y1="480" x2="512" y2="480"/>
		<rect id="XMLID_9_" fill="none" stroke="#B35047" width="512" height="512"/>
	</g>
</g>
<g id="Layer_11" display="none">
	<path id="XMLID_33_" display="inline" opacity="0.68" d="M444.1,423.5c-4.1-16.9-8.2-32-11.5-40.8c-10.8-28.4-62.8-48.9-109.1-63.2
		c0.3-5,0-14-5.5-19.4c-3.5-3.4-8.9-4.7-13.8-5.1v-38.2c6.1-6.3,12.9-13.9,15.2-19.3c4.3-10.2,4.7-22.7,5.9-25.3
		c2.6-5.9,7.9-4.9,12.2-11.7c3.3-5.1,8.9-35.6,7.4-41s-8.9-8.7-9.6-28.3c-0.1-3.6-0.2-10.5-1.6-18.9l0,0l0,0c-0.5-2.9-1.1-5.9-2-9
		c-5.5-22.9-10.7-29.1-27.2-43.2c-18.6-15.8-53.6-11.6-53.6-11.6C236.8,49.4,243,34,243,34c-14,4.6-20.5,12.7-23.4,18.8
		c-7.1-4-3.8-13.6-3.8-13.6c-13.9,7-18,22.2-19.2,30.2c-15.6,15.3-17.8,40.7-17.8,40.7l0,0c-1.8,9.3-1.9,17.2-2,21.1
		c-0.7,19.6-8.1,22.9-9.6,28.3s4.2,35.9,7.4,41c4.3,6.8,9.6,5.8,12.2,11.7c1.2,2.7,1.5,15.2,5.9,25.3c2.3,5.3,9,13,15.2,19.3v38.2
		c-4.9,0.4-10.3,1.7-13.8,5.1c-5.5,5.4-5.8,14.5-5.5,19.4c-46.4,14.3-98.3,34.8-109.1,63.2c-3.3,8.8-7.4,23.9-11.5,40.8
		c0,0-12.9,60.5,8.6,60.5c18.3,0,179.5,0,179.5,0s161.2,0,179.5,0C457,484,444.1,423.5,444.1,423.5z"/>
</g>
<g id="Layer_3" display="none">
	<path id="XMLID_1_" display="inline" opacity="0.68" d="M323.5,319.5c46.4,14.3,98.3,34.8,109.1,63.2c3.3,8.8,7.4,23.9,11.5,40.8
		c0,0,12.9,60.5-8.6,60.5c-18.3,0-179.5,0-179.5,0s-161.2,0-179.5,0c-21.5,0-8.6-60.5-8.6-60.5c4.1-16.9,8.2-32,11.5-40.8
		c10.8-28.4,62.8-48.9,109.1-63.2L256,304L323.5,319.5z"/>
	<ellipse id="XMLID_2_" display="inline" cx="256" cy="192" rx="96" ry="112"/>
	<ellipse id="XMLID_3_" display="inline" cx="256" cy="192" rx="123.4" ry="144"/>
</g>
<g id="Layer_4" display="none">
	<ellipse id="XMLID_5_" display="inline" cx="256" cy="192" rx="96" ry="112"/>
	<path id="XMLID_8_" display="inline" d="M444.1,423.5c-4.1-16.9-8.2-32-11.5-40.8c-10.8-28.4-62.8-48.9-109.1-63.2l-7.4-1.7
		C298.3,329.4,277.8,336,256,336s-42.3-6.6-60.1-18.2l-7.4,1.7c-46.4,14.3-98.3,34.8-109.1,63.2c-3.3,8.8-7.4,23.9-11.5,40.8
		c0,0-12.9,60.5,8.6,60.5c18.3,0,179.5,0,179.5,0s161.2,0,179.5,0C457,484,444.1,423.5,444.1,423.5z"/>
</g>
<g id="Layer_5" display="none">
	<ellipse id="XMLID_6_" display="inline" cx="256" cy="192" rx="96" ry="112"/>
	<path id="XMLID_4_" display="inline" d="M444.1,423.5c-4.1-16.9-8.2-32-11.5-40.8c-10.8-28.4-62.8-48.9-109.1-63.2l-7.4-1.7
		C298.3,329.4,277.8,336,256,336s-42.3-6.6-60.1-18.2l-7.4,1.7c-46.4,14.3-98.3,34.8-109.1,63.2c-3.3,8.8-7.4,23.9-11.5,40.8
		c0,0-12.9,60.5,8.6,60.5c18.3,0,179.5,0,179.5,0s161.2,0,179.5,0C457,484,444.1,423.5,444.1,423.5z"/>
</g>
<g id="Layer_6" display="none">
	<ellipse id="XMLID_10_" display="inline" cx="168.1" cy="184.9" rx="76" ry="88.7"/>
	<path id="XMLID_7_" display="inline" d="M317,368.1c-3.2-13.4-6.5-25.4-9.1-32.3c-8.5-22.5-49.7-38.7-86.4-50l-5.9-1.3
		c-14.1,9.2-30.3,14.4-47.6,14.4s-33.5-5.2-47.6-14.4l-5.9,1.3c-36.7,11.4-77.9,27.5-86.4,50c-2.6,6.9-5.9,18.9-9.1,32.3
		c0,0-10.2,47.9,6.8,47.9c14.5,0,142.1,0,142.1,0s127.6,0,142.1,0C327.2,416,317,368.1,317,368.1z"/>
	<ellipse id="XMLID_13_" display="inline" cx="343.9" cy="184.9" rx="76" ry="88.7"/>
	<path id="XMLID_12_" display="inline" d="M492.9,368.1c-3.2-13.4-6.5-25.4-9.1-32.3c-8.5-22.5-49.7-38.7-86.4-50l-5.9-1.3
		c-14.1,9.2-30.3,14.4-47.6,14.4s-33.5-5.2-47.6-14.4l-5.9,1.3c-36.7,11.4-77.9,27.5-86.4,50c-2.6,6.9-5.9,18.9-9.1,32.3
		c0,0-10.2,47.9,6.8,47.9c14.5,0,142.1,0,142.1,0s127.6,0,142.1,0C503,416,492.9,368.1,492.9,368.1z"/>
</g>
<g id="Layer_7" display="none">
	<ellipse id="XMLID_18_" display="inline" cx="168.1" cy="184.9" rx="76" ry="88.7"/>
	<ellipse id="XMLID_16_" display="inline" cx="343.9" cy="184.9" rx="76" ry="88.7"/>
	<path id="XMLID_15_" display="inline" d="M492.9,368.1c-3.2-13.4-6.5-25.4-9.1-32.3c-8.5-22.5-49.7-38.7-86.4-50l-5.9-1.3
		c-14.1,9.2-30.3,14.4-47.6,14.4s-33.5-5.2-47.6-14.4l-5.9,1.3c-36.7,11.4-77.9,27.5-86.4,50c-2.6,6.9-5.9,18.9-9.1,32.3
		c0,0-10.2,47.9,6.8,47.9c14.5,0,142.1,0,142.1,0s127.6,0,142.1,0C503,416,492.9,368.1,492.9,368.1z"/>
	<path id="XMLID_24_" display="inline" d="M163.7,371.9c3.9-16.2,7.8-30.7,11-39.1c6.7-17.6,29.8-32,57.3-43.7
		c-3.5-1.2-7-2.3-10.5-3.3l-5.9-1.3c-14.1,9.2-30.3,14.4-47.6,14.4s-33.5-5.2-47.6-14.4l-5.9,1.3c-36.7,11.4-77.9,27.5-86.4,50
		c-2.6,6.9-5.9,18.9-9.1,32.3c0,0-10.2,47.9,6.8,47.9c12.4,0,107.6,0,134.9,0C157.9,398.9,163.7,371.9,163.7,371.9z"/>
</g>
<g id="smaller_couple" display="none">
	<ellipse id="XMLID_19_" display="inline" cx="160.1" cy="196" rx="72" ry="84"/>
	<path id="XMLID_17_" display="inline" d="M301.1,369.6c-3.1-12.7-6.1-24-8.6-30.6c-8.1-21.3-47.1-36.7-81.8-47.4l-5.6-1.3
		c-13.3,8.7-28.7,13.6-45.1,13.6s-31.7-5-45.1-13.6l-5.6,1.3c-34.8,10.8-73.8,26.1-81.8,47.4c-2.5,6.6-5.6,17.9-8.6,30.6
		c0,0-9.6,45.3,6.5,45.3c13.7,0,134.6,0,134.6,0s120.9,0,134.6,0C310.8,415,301.1,369.6,301.1,369.6z"/>
	<ellipse id="XMLID_25_" display="inline" cx="352.1" cy="196" rx="72" ry="84"/>
	<path id="XMLID_14_" display="inline" d="M493.1,369.6c-3.1-12.7-6.1-24-8.6-30.6c-8.1-21.3-47.1-36.7-81.8-47.4l-5.6-1.3
		c-13.3,8.7-28.7,13.6-45.1,13.6c-16.4,0-31.7-5-45.1-13.6l-5.6,1.3c-34.8,10.8-73.8,26.1-81.8,47.4c-2.5,6.6-5.6,17.9-8.6,30.6
		c0,0-9.6,45.3,6.5,45.3c13.7,0,134.6,0,134.6,0s120.9,0,134.6,0C502.8,415,493.1,369.6,493.1,369.6z"/>
</g>
<g id="Layer_10" display="none">
	<rect id="XMLID_72_" display="inline" fill="#FFFFFF" width="512" height="512"/>
</g>
<g id="Layer_9" display="none">
	<ellipse id="XMLID_55_" display="inline" fill="#1B08FF" cx="160.1" cy="196" rx="72" ry="84"/>
	<ellipse id="XMLID_26_" display="inline" fill="#1B08FF" cx="352.1" cy="196" rx="72" ry="84"/>
	<path id="XMLID_11_" display="inline" fill="#1B08FF" d="M493.1,369.6c-3.1-12.7-6.1-24-8.6-30.6c-8.1-21.3-47.1-36.7-81.8-47.4
		l-5.6-1.3c-13.3,8.7-28.7,13.6-45.1,13.6c-16.4,0-31.7-5-45.1-13.6l-5.6,1.3c-34.8,10.8-73.8,26.1-81.8,47.4
		c-2.5,6.6-5.6,17.9-8.6,30.6c0,0-9.6,45.3,6.5,45.3c13.7,0,134.6,0,134.6,0s120.9,0,134.6,0C502.8,415,493.1,369.6,493.1,369.6z"/>
	<path id="XMLID_58_" display="inline" fill="#1B08FF" d="M179.6,373.4c3.7-15.5,7.5-29.4,10.5-37.4c5.4-14.3,22.3-26.5,43.5-36.7
		c-7.6-2.8-15.4-5.4-23-7.7l-5.6-1.3c-13.3,8.7-28.7,13.6-45.1,13.6s-31.7-5-45.1-13.6l-5.6,1.3c-34.8,10.8-73.8,26.1-81.8,47.4
		c-2.5,6.6-5.6,17.9-8.6,30.6c0,0-9.6,45.3,6.5,45.3c13.7,0,134.6,0,134.6,0s6.5,0,16.7,0C174.3,398.6,179.6,373.4,179.6,373.4z"/>
</g>
<g id="Layer_13" display="none">
	<g id="XMLID_61_" display="inline">
		<g id="XMLID_128_">
			<path id="XMLID_129_" d="M160.1,281c39.8,0,72-37.6,72-84s-32.2-84-72-84s-72,37.6-72,84S120.3,281,160.1,281z M352.1,281
				c39.8,0,72-37.6,72-84s-32.2-84-72-84s-72,37.6-72,84S312.3,281,352.1,281z M210.7,292.6l-5.6-1.3c-13.3,8.7-28.7,13.6-45.1,13.6
				s-31.7-5-45.1-13.6l-5.6,1.3c-34.8,10.8-73.8,26.1-81.8,47.4c-2.5,6.6-5.6,17.9-8.6,30.6c0,0-9.6,45.3,6.5,45.3
				c13.7,0,134.6,0,134.6,0s6.8,0,17.4,0c-3.2-16.8,2.5-44.7,2.5-44.7c3.7-15.9,7.4-30.3,10.4-38.5c4.9-13.3,18.9-24.8,37-34.7
				C221.8,296.2,216.2,294.4,210.7,292.6z M493.1,370.7c-3.1-12.7-6.1-24-8.6-30.6c-8.1-21.3-47.1-36.7-81.8-47.4l-5.6-1.3
				c-13.3,8.7-28.7,13.6-45.1,13.6s-31.7-5-45.1-13.6l-5.6,1.3c-34.8,10.8-73.8,26.1-81.8,47.4c-2.5,6.6-5.6,17.9-8.6,30.6
				c0,0-9.6,45.3,6.5,45.3c13.7,0,134.6,0,134.6,0s120.9,0,134.6,0C502.8,416,493.1,370.7,493.1,370.7z"/>
		</g>
	</g>
</g>
<g id="latest_1">
	<path id="XMLID_57_" d="M177.5,415c-10.6,0-17.4,0-17.4,0s-120.9,0-134.6,0c-16.1,0-6.5-45.3-6.5-45.3c3.1-12.7,6.1-24,8.6-30.6
		c8.1-21.3,47.1-36.7,81.8-47.4l5.6-1.3c13.3,8.7,28.7,13.6,45.1,13.6s31.7-5,45.1-13.6l5.6,1.3c5.5,1.7,11.1,3.5,16.7,5.5
		c-18.1,9.8-32.2,21.3-37,34.7c-3,8.3-6.7,22.6-10.4,38.5C180,370.3,174.3,398.2,177.5,415z M160.1,112c-39.8,0-72,37.6-72,84
		s32.2,84,72,84s72-37.6,72-84S199.8,112,160.1,112z M352.1,112c-39.8,0-72,37.6-72,84s32.2,84,72,84s72-37.6,72-84
		S391.8,112,352.1,112z M493.1,369.6c-3.1-12.7-6.1-24-8.6-30.6c-8.1-21.3-47.1-36.7-81.8-47.4l-5.6-1.3
		c-13.3,8.7-28.7,13.6-45.1,13.6c-16.4,0-31.7-5-45.1-13.6l-5.6,1.3c-34.8,10.8-73.8,26.1-81.8,47.4c-2.5,6.6-5.6,17.9-8.6,30.6
		c0,0-9.6,45.3,6.5,45.3c13.7,0,134.6,0,134.6,0s120.9,0,134.6,0C502.8,415,493.1,369.6,493.1,369.6z"/>
</g>
</svg>
