<?xml version="1.0" encoding="utf-8"?>
<!-- Generator: Adobe Illustrator 19.0.0, SVG Export Plug-In . SVG Version: 6.00 Build 0)  -->
<svg version="1.1" id="Layer_1" xmlns="http://www.w3.org/2000/svg" xmlns:xlink="http://www.w3.org/1999/xlink" x="0px" y="0px"
	 viewBox="-223 25 512 512" style="enable-background:new -223 25 512 512;" xml:space="preserve">
<style type="text/css">
	.st0{fill:none;stroke:#B35047;}
	.st1{display:none;}
	.st2{display:inline;opacity:0.68;enable-background:new    ;}
	.st3{display:inline;}
	.st4{display:inline;fill:#FFFFFF;}
</style>
<g id="grid">
	<g id="svgGrid">
		<line id="XMLID_53_" class="st0" x1="-191" y1="25" x2="-191" y2="537"/>
		<line id="XMLID_52_" class="st0" x1="-159" y1="25" x2="-159" y2="537"/>
		<line id="XMLID_51_" class="st0" x1="-127" y1="25" x2="-127" y2="537"/>
		<line id="XMLID_50_" class="st0" x1="-95" y1="25" x2="-95" y2="537"/>
		<line id="XMLID_49_" class="st0" x1="-63" y1="25" x2="-63" y2="537"/>
		<line id="XMLID_48_" class="st0" x1="-31" y1="25" x2="-31" y2="537"/>
		<line id="XMLID_47_" class="st0" x1="1" y1="25" x2="1" y2="537"/>
		<line id="XMLID_46_" class="st0" x1="33" y1="25" x2="33" y2="537"/>
		<line id="XMLID_45_" class="st0" x1="65" y1="25" x2="65" y2="537"/>
		<line id="XMLID_44_" class="st0" x1="97" y1="25" x2="97" y2="537"/>
		<line id="XMLID_43_" class="st0" x1="129" y1="25" x2="129" y2="537"/>
		<line id="XMLID_42_" class="st0" x1="161" y1="25" x2="161" y2="537"/>
		<line id="XMLID_41_" class="st0" x1="193" y1="25" x2="193" y2="537"/>
		<line id="XMLID_40_" class="st0" x1="225" y1="25" x2="225" y2="537"/>
		<line id="XMLID_39_" class="st0" x1="257" y1="25" x2="257" y2="537"/>
		<line id="XMLID_38_" class="st0" x1="-223" y1="57" x2="289" y2="57"/>
		<line id="XMLID_37_" class="st0" x1="-223" y1="89" x2="289" y2="89"/>
		<line id="XMLID_36_" class="st0" x1="-223" y1="121" x2="289" y2="121"/>
		<line id="XMLID_35_" class="st0" x1="-223" y1="153" x2="289" y2="153"/>
		<line id="XMLID_34_" class="st0" x1="-223" y1="185" x2="289" y2="185"/>
		<line id="XMLID_32_" class="st0" x1="-223" y1="217" x2="289" y2="217"/>
		<line id="XMLID_31_" class="st0" x1="-223" y1="249" x2="289" y2="249"/>
		<line id="XMLID_30_" class="st0" x1="-223" y1="281" x2="289" y2="281"/>
		<line id="XMLID_29_" class="st0" x1="-223" y1="313" x2="289" y2="313"/>
		<line id="XMLID_28_" class="st0" x1="-223" y1="345" x2="289" y2="345"/>
		<line id="XMLID_27_" class="st0" x1="-223" y1="377" x2="289" y2="377"/>
		<line id="XMLID_23_" class="st0" x1="-223" y1="409" x2="289" y2="409"/>
		<line id="XMLID_22_" class="st0" x1="-223" y1="441" x2="289" y2="441"/>
		<line id="XMLID_21_" class="st0" x1="-223" y1="473" x2="289" y2="473"/>
		<line id="XMLID_20_" class="st0" x1="-223" y1="505" x2="289" y2="505"/>
		<rect id="XMLID_9_" x="-223" y="25" class="st0" width="512" height="512"/>
	</g>
</g>
<g id="Layer_11" class="st1">
	<path id="XMLID_33_" class="st2" d="M221.1,448.5c-4.1-16.9-8.2-32-11.5-40.8c-10.8-28.4-62.8-48.9-109.1-63.2c0.3-5,0-14-5.5-19.4
		c-3.5-3.4-8.9-4.7-13.8-5.1v-38.2c6.1-6.3,12.9-13.9,15.2-19.3c4.3-10.2,4.7-22.7,5.9-25.3c2.6-5.9,7.9-4.9,12.2-11.7
		c3.3-5.1,8.9-35.6,7.4-41s-8.9-8.7-9.6-28.3c-0.1-3.6-0.2-10.5-1.6-18.9l0,0l0,0c-0.5-2.9-1.1-5.9-2-9
		c-5.5-22.9-10.7-29.1-27.2-43.2C62.9,69.3,27.9,73.5,27.9,73.5C13.8,74.4,20,59,20,59C6,63.6-0.5,71.7-3.4,77.8
		c-7.1-4-3.8-13.6-3.8-13.6c-13.9,7-18,22.2-19.2,30.2c-15.6,15.3-17.8,40.7-17.8,40.7l0,0c-1.8,9.3-1.9,17.2-2,21.1
		c-0.7,19.6-8.1,22.9-9.6,28.3s4.2,35.9,7.4,41c4.3,6.8,9.6,5.8,12.2,11.7c1.2,2.7,1.5,15.2,5.9,25.3c2.3,5.3,9,13,15.2,19.3V320
		c-4.9,0.4-10.3,1.7-13.8,5.1c-5.5,5.4-5.8,14.5-5.5,19.4c-46.4,14.3-98.3,34.8-109.1,63.2c-3.3,8.8-7.4,23.9-11.5,40.8
		c0,0-12.9,60.5,8.6,60.5c18.3,0,179.5,0,179.5,0s161.2,0,179.5,0C234,509,221.1,448.5,221.1,448.5z"/>
</g>
<g id="Layer_3" class="st1">
	<path id="XMLID_1_" class="st2" d="M100.5,344.5c46.4,14.3,98.3,34.8,109.1,63.2c3.3,8.8,7.4,23.9,11.5,40.8
		c0,0,12.9,60.5-8.6,60.5c-18.3,0-179.5,0-179.5,0s-161.2,0-179.5,0c-21.5,0-8.6-60.5-8.6-60.5c4.1-16.9,8.2-32,11.5-40.8
		c10.8-28.4,62.8-48.9,109.1-63.2L33,329L100.5,344.5z"/>
	<ellipse id="XMLID_2_" class="st3" cx="33" cy="217" rx="96" ry="112"/>
	<ellipse id="XMLID_3_" class="st3" cx="33" cy="217" rx="123.4" ry="144"/>
</g>
<g id="Layer_4" class="st1">
	<ellipse id="XMLID_5_" class="st3" cx="33" cy="217" rx="96" ry="112"/>
	<path id="XMLID_8_" class="st3" d="M221.1,448.5c-4.1-16.9-8.2-32-11.5-40.8c-10.8-28.4-62.8-48.9-109.1-63.2l-7.4-1.7
		C75.3,354.4,54.8,361,33,361s-42.3-6.6-60.1-18.2l-7.4,1.7c-46.4,14.3-98.3,34.8-109.1,63.2c-3.3,8.8-7.4,23.9-11.5,40.8
		c0,0-12.9,60.5,8.6,60.5c18.3,0,179.5,0,179.5,0s161.2,0,179.5,0C234,509,221.1,448.5,221.1,448.5z"/>
</g>
<g id="Layer_6" class="st1">
	<rect id="XMLID_7_" x="-223" y="25" class="st4" width="512" height="512"/>
</g>
<g>
	<g>
		<path d="M33,325c53,0,96-50.1,96-112S86,101,33,101s-96,50.1-96,112S-20,325,33,325z M221.1,444.5c-4.1-16.9-8.2-32-11.5-40.8
			c-10.8-28.4-62.8-48.9-109.1-63.2l-7.4-1.7C75.3,350.4,54.8,357,33,357s-42.3-6.6-60.1-18.2l-7.4,1.7
			c-46.4,14.3-98.3,34.8-109.1,63.2c-3.3,8.8-7.4,23.9-11.5,40.8c0,0-12.9,60.5,8.6,60.5c18.3,0,179.5,0,179.5,0s161.2,0,179.5,0
			C234,505,221.1,444.5,221.1,444.5z"/>
	</g>
</g>
</svg>
