<?xml version="1.0" encoding="utf-8"?>
<!-- Generator: Adobe Illustrator 19.0.0, SVG Export Plug-In . SVG Version: 6.00 Build 0)  -->
<svg version="1.1" id="Layer_1" xmlns="http://www.w3.org/2000/svg" xmlns:xlink="http://www.w3.org/1999/xlink" x="0px" y="0px"
	 viewBox="-223 25 512 512" style="enable-background:new -223 25 512 512;" xml:space="preserve">
<style type="text/css">
	.st0{fill:none;stroke:#B35047;}
	.st1{display:none;}
	.st2{display:inline;opacity:0.68;enable-background:new    ;}
	.st3{display:inline;}
	.st4{display:inline;fill:#FFFFFF;}
	.st5{display:inline;fill:#1B08FF;}
</style>
<g id="grid">
	<g id="svgGrid">
		<line id="XMLID_53_" class="st0" x1="-191" y1="25" x2="-191" y2="537"/>
		<line id="XMLID_52_" class="st0" x1="-159" y1="25" x2="-159" y2="537"/>
		<line id="XMLID_51_" class="st0" x1="-127" y1="25" x2="-127" y2="537"/>
		<line id="XMLID_50_" class="st0" x1="-95" y1="25" x2="-95" y2="537"/>
		<line id="XMLID_49_" class="st0" x1="-63" y1="25" x2="-63" y2="537"/>
		<line id="XMLID_48_" class="st0" x1="-31" y1="25" x2="-31" y2="537"/>
		<line id="XMLID_47_" class="st0" x1="1" y1="25" x2="1" y2="537"/>
		<line id="XMLID_46_" class="st0" x1="33" y1="25" x2="33" y2="537"/>
		<line id="XMLID_45_" class="st0" x1="65" y1="25" x2="65" y2="537"/>
		<line id="XMLID_44_" class="st0" x1="97" y1="25" x2="97" y2="537"/>
		<line id="XMLID_43_" class="st0" x1="129" y1="25" x2="129" y2="537"/>
		<line id="XMLID_42_" class="st0" x1="161" y1="25" x2="161" y2="537"/>
		<line id="XMLID_41_" class="st0" x1="193" y1="25" x2="193" y2="537"/>
		<line id="XMLID_40_" class="st0" x1="225" y1="25" x2="225" y2="537"/>
		<line id="XMLID_39_" class="st0" x1="257" y1="25" x2="257" y2="537"/>
		<line id="XMLID_38_" class="st0" x1="-223" y1="57" x2="289" y2="57"/>
		<line id="XMLID_37_" class="st0" x1="-223" y1="89" x2="289" y2="89"/>
		<line id="XMLID_36_" class="st0" x1="-223" y1="121" x2="289" y2="121"/>
		<line id="XMLID_35_" class="st0" x1="-223" y1="153" x2="289" y2="153"/>
		<line id="XMLID_34_" class="st0" x1="-223" y1="185" x2="289" y2="185"/>
		<line id="XMLID_32_" class="st0" x1="-223" y1="217" x2="289" y2="217"/>
		<line id="XMLID_31_" class="st0" x1="-223" y1="249" x2="289" y2="249"/>
		<line id="XMLID_30_" class="st0" x1="-223" y1="281" x2="289" y2="281"/>
		<line id="XMLID_29_" class="st0" x1="-223" y1="313" x2="289" y2="313"/>
		<line id="XMLID_28_" class="st0" x1="-223" y1="345" x2="289" y2="345"/>
		<line id="XMLID_27_" class="st0" x1="-223" y1="377" x2="289" y2="377"/>
		<line id="XMLID_23_" class="st0" x1="-223" y1="409" x2="289" y2="409"/>
		<line id="XMLID_22_" class="st0" x1="-223" y1="441" x2="289" y2="441"/>
		<line id="XMLID_21_" class="st0" x1="-223" y1="473" x2="289" y2="473"/>
		<line id="XMLID_20_" class="st0" x1="-223" y1="505" x2="289" y2="505"/>
		<rect id="XMLID_9_" x="-223" y="25" class="st0" width="512" height="512"/>
	</g>
</g>
<g id="Layer_11" class="st1">
	<path id="XMLID_33_" class="st2" d="M-224.9,498.5c-4.1-16.9-8.2-32-11.5-40.8c-10.8-28.4-62.8-48.9-109.1-63.2
		c0.3-5,0-14-5.5-19.4c-3.5-3.4-8.9-4.7-13.8-5.1v-38.2c6.1-6.3,12.9-13.9,15.2-19.3c4.3-10.2,4.7-22.7,5.9-25.3
		c2.6-5.9,7.9-4.9,12.2-11.7c3.3-5.1,8.9-35.6,7.4-41s-8.9-8.7-9.6-28.3c-0.1-3.6-0.2-10.5-1.6-18.9l0,0l0,0c-0.5-2.9-1.1-5.9-2-9
		c-5.5-22.9-10.7-29.1-27.2-43.2c-18.6-15.8-53.6-11.6-53.6-11.6c-14.1,0.9-7.9-14.5-7.9-14.5c-14,4.6-20.5,12.7-23.4,18.8
		c-7.1-4-3.8-13.6-3.8-13.6c-13.9,7-18,22.2-19.2,30.2c-15.6,15.3-17.8,40.7-17.8,40.7l0,0c-1.8,9.3-1.9,17.2-2,21.1
		c-0.7,19.6-8.1,22.9-9.6,28.3s4.2,35.9,7.4,41c4.3,6.8,9.6,5.8,12.2,11.7c1.2,2.7,1.5,15.2,5.9,25.3c2.3,5.3,9,13,15.2,19.3V370
		c-4.9,0.4-10.3,1.7-13.8,5.1c-5.5,5.4-5.8,14.5-5.5,19.4c-46.4,14.3-98.3,34.8-109.1,63.2c-3.3,8.8-7.4,23.9-11.5,40.8
		c0,0-12.9,60.5,8.6,60.5c18.3,0,179.5,0,179.5,0s161.2,0,179.5,0C-212,559-224.9,498.5-224.9,498.5z"/>
</g>
<g id="Layer_3" class="st1">
	<path id="XMLID_1_" class="st2" d="M-345.5,394.5c46.4,14.3,98.3,34.8,109.1,63.2c3.3,8.8,7.4,23.9,11.5,40.8
		c0,0,12.9,60.5-8.6,60.5c-18.3,0-179.5,0-179.5,0s-161.2,0-179.5,0c-21.5,0-8.6-60.5-8.6-60.5c4.1-16.9,8.2-32,11.5-40.8
		c10.8-28.4,62.8-48.9,109.1-63.2L-413,379L-345.5,394.5z"/>
	<ellipse id="XMLID_2_" class="st3" cx="-413" cy="267" rx="96" ry="112"/>
	<ellipse id="XMLID_3_" class="st3" cx="-413" cy="267" rx="123.4" ry="144"/>
</g>
<g id="Layer_4" class="st1">
	<ellipse id="XMLID_5_" class="st3" cx="-413" cy="267" rx="96" ry="112"/>
	<path id="XMLID_8_" class="st3" d="M-224.9,498.5c-4.1-16.9-8.2-32-11.5-40.8c-10.8-28.4-62.8-48.9-109.1-63.2l-7.4-1.7
		c-17.8,11.6-38.3,18.2-60.1,18.2s-42.3-6.6-60.1-18.2l-7.4,1.7c-46.4,14.3-98.3,34.8-109.1,63.2c-3.3,8.8-7.4,23.9-11.5,40.8
		c0,0-12.9,60.5,8.6,60.5c18.3,0,179.5,0,179.5,0s161.2,0,179.5,0C-212,559-224.9,498.5-224.9,498.5z"/>
</g>
<g id="Layer_5" class="st1">
	<ellipse id="XMLID_6_" class="st3" cx="-413" cy="267" rx="96" ry="112"/>
	<path id="XMLID_4_" class="st3" d="M-224.9,498.5c-4.1-16.9-8.2-32-11.5-40.8c-10.8-28.4-62.8-48.9-109.1-63.2l-7.4-1.7
		c-17.8,11.6-38.3,18.2-60.1,18.2s-42.3-6.6-60.1-18.2l-7.4,1.7c-46.4,14.3-98.3,34.8-109.1,63.2c-3.3,8.8-7.4,23.9-11.5,40.8
		c0,0-12.9,60.5,8.6,60.5c18.3,0,179.5,0,179.5,0s161.2,0,179.5,0C-212,559-224.9,498.5-224.9,498.5z"/>
</g>
<g id="Layer_6" class="st1">
	<ellipse id="XMLID_10_" class="st3" cx="-500.9" cy="259.9" rx="76" ry="88.7"/>
	<path id="XMLID_7_" class="st3" d="M-352,443.1c-3.2-13.4-6.5-25.4-9.1-32.3c-8.5-22.5-49.7-38.7-86.4-50l-5.9-1.3
		c-14.1,9.2-30.3,14.4-47.6,14.4c-17.3,0-33.5-5.2-47.6-14.4l-5.9,1.3c-36.7,11.4-77.9,27.5-86.4,50c-2.6,6.9-5.9,18.9-9.1,32.3
		c0,0-10.2,47.9,6.8,47.9c14.5,0,142.1,0,142.1,0s127.6,0,142.1,0C-341.8,491-352,443.1-352,443.1z"/>
	<ellipse id="XMLID_13_" class="st3" cx="-325.1" cy="259.9" rx="76" ry="88.7"/>
	<path id="XMLID_12_" class="st3" d="M-176.1,443.1c-3.2-13.4-6.5-25.4-9.1-32.3c-8.5-22.5-49.7-38.7-86.4-50l-5.9-1.3
		c-14.1,9.2-30.3,14.4-47.6,14.4c-17.3,0-33.5-5.2-47.6-14.4l-5.9,1.3c-36.7,11.4-77.9,27.5-86.4,50c-2.6,6.9-5.9,18.9-9.1,32.3
		c0,0-10.2,47.9,6.8,47.9c14.5,0,142.1,0,142.1,0s127.6,0,142.1,0C-166,491-176.1,443.1-176.1,443.1z"/>
</g>
<g id="Layer_7" class="st1">
	<ellipse id="XMLID_18_" class="st3" cx="-500.9" cy="259.9" rx="76" ry="88.7"/>
	<ellipse id="XMLID_16_" class="st3" cx="-325.1" cy="259.9" rx="76" ry="88.7"/>
	<path id="XMLID_15_" class="st3" d="M-176.1,443.1c-3.2-13.4-6.5-25.4-9.1-32.3c-8.5-22.5-49.7-38.7-86.4-50l-5.9-1.3
		c-14.1,9.2-30.3,14.4-47.6,14.4c-17.3,0-33.5-5.2-47.6-14.4l-5.9,1.3c-36.7,11.4-77.9,27.5-86.4,50c-2.6,6.9-5.9,18.9-9.1,32.3
		c0,0-10.2,47.9,6.8,47.9c14.5,0,142.1,0,142.1,0s127.6,0,142.1,0C-166,491-176.1,443.1-176.1,443.1z"/>
	<path id="XMLID_24_" class="st3" d="M-505.3,446.9c3.9-16.2,7.8-30.7,11-39.1c6.7-17.6,29.8-32,57.3-43.7c-3.5-1.2-7-2.3-10.5-3.3
		l-5.9-1.3c-14.1,9.2-30.3,14.4-47.6,14.4c-17.3,0-33.5-5.2-47.6-14.4l-5.9,1.3c-36.7,11.4-77.9,27.5-86.4,50
		c-2.6,6.9-5.9,18.9-9.1,32.3c0,0-10.2,47.9,6.8,47.9c12.4,0,107.6,0,134.9,0C-511.1,473.9-505.3,446.9-505.3,446.9z"/>
</g>
<g id="smaller_couple" class="st1">
	<ellipse id="XMLID_19_" class="st3" cx="-508.9" cy="271" rx="72" ry="84"/>
	<path id="XMLID_17_" class="st3" d="M-367.9,444.6c-3.1-12.7-6.1-24-8.6-30.6c-8.1-21.3-47.1-36.7-81.8-47.4l-5.6-1.3
		c-13.3,8.7-28.7,13.6-45.1,13.6c-16.4,0-31.7-5-45.1-13.6l-5.6,1.3c-34.8,10.8-73.8,26.1-81.8,47.4c-2.5,6.6-5.6,17.9-8.6,30.6
		c0,0-9.6,45.3,6.5,45.3c13.7,0,134.6,0,134.6,0s120.9,0,134.6,0C-358.2,490-367.9,444.6-367.9,444.6z"/>
	<ellipse id="XMLID_25_" class="st3" cx="-316.9" cy="271" rx="72" ry="84"/>
	<path id="XMLID_14_" class="st3" d="M-175.9,444.6c-3.1-12.7-6.1-24-8.6-30.6c-8.1-21.3-47.1-36.7-81.8-47.4l-5.6-1.3
		c-13.3,8.7-28.7,13.6-45.1,13.6s-31.7-5-45.1-13.6l-5.6,1.3c-34.8,10.8-73.8,26.1-81.8,47.4c-2.5,6.6-5.6,17.9-8.6,30.6
		c0,0-9.6,45.3,6.5,45.3c13.7,0,134.6,0,134.6,0s120.9,0,134.6,0C-166.2,490-175.9,444.6-175.9,444.6z"/>
</g>
<g id="Layer_10" class="st1">
	<rect id="XMLID_72_" x="-669" y="75" class="st4" width="512" height="512"/>
</g>
<g id="Layer_9" class="st1">
	<ellipse id="XMLID_55_" class="st5" cx="-508.9" cy="271" rx="72" ry="84"/>
	<ellipse id="XMLID_26_" class="st5" cx="-316.9" cy="271" rx="72" ry="84"/>
	<path id="XMLID_11_" class="st5" d="M-175.9,444.6c-3.1-12.7-6.1-24-8.6-30.6c-8.1-21.3-47.1-36.7-81.8-47.4l-5.6-1.3
		c-13.3,8.7-28.7,13.6-45.1,13.6s-31.7-5-45.1-13.6l-5.6,1.3c-34.8,10.8-73.8,26.1-81.8,47.4c-2.5,6.6-5.6,17.9-8.6,30.6
		c0,0-9.6,45.3,6.5,45.3c13.7,0,134.6,0,134.6,0s120.9,0,134.6,0C-166.2,490-175.9,444.6-175.9,444.6z"/>
	<path id="XMLID_58_" class="st5" d="M-489.4,448.4c3.7-15.5,7.5-29.4,10.5-37.4c5.4-14.3,22.3-26.5,43.5-36.7
		c-7.6-2.8-15.4-5.4-23-7.7l-5.6-1.3c-13.3,8.7-28.7,13.6-45.1,13.6s-31.7-5-45.1-13.6l-5.6,1.3c-34.8,10.8-73.8,26.1-81.8,47.4
		c-2.5,6.6-5.6,17.9-8.6,30.6c0,0-9.6,45.3,6.5,45.3c13.7,0,134.6,0,134.6,0s6.5,0,16.7,0C-494.7,473.6-489.4,448.4-489.4,448.4z"/>
</g>
<g id="Layer_12" class="st1">
	<path id="XMLID_57_" class="st3" d="M-367.9,444.6c-3.1-12.7-6.1-24-8.6-30.6c-8.1-21.3-47.1-36.7-81.8-47.4l-5.6-1.3
		c-13.3,8.7-28.7,13.6-45.1,13.6c-16.4,0-31.7-5-45.1-13.6l-5.6,1.3c-34.8,10.8-73.8,26.1-81.8,47.4c-2.5,6.6-5.6,17.9-8.6,30.6
		c0,0-9.6,45.3,6.5,45.3c13.7,0,134.6,0,134.6,0s120.9,0,134.6,0C-358.2,490-367.9,444.6-367.9,444.6z"/>
	<path id="XMLID_60_" class="st4" d="M-148.1,445.3c-3.7-15.9-7.4-30.3-10.4-38.5c-9.8-26.9-56.9-46.2-98.9-59.7l-6.7-1.6
		c-16.1,10.9-34.7,17.2-54.4,17.2c-19.8,0-38.3-6.2-54.4-17.2l-6.7,1.6c-42,13.5-89.1,32.9-98.9,59.7c-3,8.3-6.7,22.6-10.4,38.5
		c0,0-11.6,57.1,7.8,57.1c16.6,0,162.7,0,162.7,0s146.1,0,162.7,0C-136.5,502.4-148.1,445.3-148.1,445.3z"/>
	<ellipse id="XMLID_59_" class="st3" cx="-508.9" cy="271" rx="72" ry="84"/>
	<ellipse id="XMLID_56_" class="st3" cx="-316.9" cy="271" rx="72" ry="84"/>
	<path id="XMLID_54_" class="st3" d="M-175.9,444.6c-3.1-12.7-6.1-24-8.6-30.6c-8.1-21.3-47.1-36.7-81.8-47.4l-5.6-1.3
		c-13.3,8.7-28.7,13.6-45.1,13.6s-31.7-5-45.1-13.6l-5.6,1.3c-34.8,10.8-73.8,26.1-81.8,47.4c-2.5,6.6-5.6,17.9-8.6,30.6
		c0,0-9.6,45.3,6.5,45.3c13.7,0,134.6,0,134.6,0s120.9,0,134.6,0C-166.2,490-175.9,444.6-175.9,444.6z"/>
</g>
<g>
	<g>
		<path d="M129.1,306.1c39.8,0,72-37.6,72-84s-32.2-84-72-84c-39.8,0-72,37.6-72,84S89.3,306.1,129.1,306.1z M-62.9,306.1
			c39.8,0,72-37.6,72-84s-32.2-84-72-84c-39.8,0-72,37.6-72,84S-102.7,306.1-62.9,306.1z M-12.3,317.7l-5.6-1.3
			C-31.2,325.1-46.6,330-63,330s-31.7-5-45.1-13.6l-5.6,1.3c-34.8,10.8-73.8,26.1-81.8,47.4c-2.5,6.6-5.6,17.9-8.6,30.6
			c0,0-9.6,45.3,6.5,45.3c13.7,0,134.6,0,134.6,0s6.8,0,17.4,0c-3.1-16.7,2.6-44.6,2.6-44.6c3.7-15.9,7.4-30.3,10.4-38.5
			c4.9-13.3,18.9-24.8,37-34.7C-1.2,321.3-6.8,319.4-12.3,317.7z M270.1,395.7c-3.1-12.7-6.1-24-8.6-30.6
			c-8.1-21.3-47.1-36.7-81.8-47.4l-5.6-1.3c-13.3,8.7-28.7,13.6-45.1,13.6c-16.4,0-31.7-5-45.1-13.6l-5.6,1.3
			c-34.8,10.8-73.8,26.1-81.8,47.4c-2.5,6.6-5.6,17.9-8.6,30.6c0,0-9.6,45.3,6.5,45.3c13.7,0,134.6,0,134.6,0s120.9,0,134.6,0
			C279.8,441.1,270.1,395.7,270.1,395.7z"/>
	</g>
</g>
</svg>
