<svg xmlns="http://www.w3.org/2000/svg" width="512" height="512" viewBox="0 0 512 512">
  <g id="svgGrid">
    <line fill="none" stroke="#B35047" x1="32" y1="0" x2="32" y2="512" />
    <line fill="none" stroke="#B35047" x1="64" y1="0" x2="64" y2="512" />
    <line fill="none" stroke="#B35047" x1="96" y1="0" x2="96" y2="512" />
    <line fill="none" stroke="#B35047" x1="128" y1="0" x2="128" y2="512" />
    <line fill="none" stroke="#B35047" x1="160" y1="0" x2="160" y2="512" />
    <line fill="none" stroke="#B35047" x1="192" y1="0" x2="192" y2="512" />
    <line fill="none" stroke="#B35047" x1="224" y1="0" x2="224" y2="512" />
    <line fill="none" stroke="#B35047" x1="256" y1="0" x2="256" y2="512" />
    <line fill="none" stroke="#B35047" x1="288" y1="0" x2="288" y2="512" />
    <line fill="none" stroke="#B35047" x1="320" y1="0" x2="320" y2="512" />
    <line fill="none" stroke="#B35047" x1="352" y1="0" x2="352" y2="512" />
    <line fill="none" stroke="#B35047" x1="384" y1="0" x2="384" y2="512" />
    <line fill="none" stroke="#B35047" x1="416" y1="0" x2="416" y2="512" />
    <line fill="none" stroke="#B35047" x1="448" y1="0" x2="448" y2="512" />
    <line fill="none" stroke="#B35047" x1="480" y1="0" x2="480" y2="512" />
    <line fill="none" stroke="#B35047" x1="0" y1="32" x2="512" y2="32" />
    <line fill="none" stroke="#B35047" x1="0" y1="64" x2="512" y2="64" />
    <line fill="none" stroke="#B35047" x1="0" y1="96" x2="512" y2="96" />
    <line fill="none" stroke="#B35047" x1="0" y1="128" x2="512" y2="128" />
    <line fill="none" stroke="#B35047" x1="0" y1="160" x2="512" y2="160" />
    <line fill="none" stroke="#B35047" x1="0" y1="192" x2="512" y2="192" />
    <line fill="none" stroke="#B35047" x1="0" y1="224" x2="512" y2="224" />
    <line fill="none" stroke="#B35047" x1="0" y1="256" x2="512" y2="256" />
    <line fill="none" stroke="#B35047" x1="0" y1="288" x2="512" y2="288" />
    <line fill="none" stroke="#B35047" x1="0" y1="320" x2="512" y2="320" />
    <line fill="none" stroke="#B35047" x1="0" y1="352" x2="512" y2="352" />
    <line fill="none" stroke="#B35047" x1="0" y1="384" x2="512" y2="384" />
    <line fill="none" stroke="#B35047" x1="0" y1="416" x2="512" y2="416" />
    <line fill="none" stroke="#B35047" x1="0" y1="448" x2="512" y2="448" />
    <line fill="none" stroke="#B35047" x1="0" y1="480" x2="512" y2="480" />
    <rect fill="none" stroke="#B35047" width="512" height="512" />
  </g>
  <path d="M444.1 423.5c-4.1-16.9-8.2-32-11.5-40.8-10.8-28.4-62.8-48.9-109.1-63.2l-7.4-1.7c-17.8 11.6-38.3 18.2-60.1 18.2s-42.3-6.6-60.1-18.2l-7.4 1.7c-46.4 14.3-98.3 34.8-109.1 63.2-3.3 8.8-7.4 23.9-11.5 40.8 0 0-12.9 60.5 8.6 60.5h359c21.5 0 8.6-60.5 8.6-60.5zm-188.1-119.5c53 0 96-50.1 96-112s-43-112-96-112-96 50.1-96 112 43 112 96 112z" />
</svg>
