<?xml version="1.0" encoding="UTF-8" standalone="no"?>
<!DOCTYPE svg PUBLIC "-//W3C//DTD SVG 1.1//EN" "http://www.w3.org/Graphics/SVG/1.1/DTD/svg11.dtd">
<svg width="100%" height="100%" viewBox="0 0 16 16" version="1.1" xmlns="http://www.w3.org/2000/svg" xmlns:xlink="http://www.w3.org/1999/xlink" xml:space="preserve" xmlns:serif="http://www.serif.com/" style="fill-rule:evenodd;clip-rule:evenodd;stroke-linejoin:round;stroke-miterlimit:2;">
    <rect id="icon-bound" x="0" y="0" width="16" height="16" style="fill:none;"/>
    <g id="way1">
        <path d="M12.256,3.037C12.078,2.736 11.976,2.386 11.976,2.012C11.976,0.902 12.878,0 13.988,0C15.098,0 16,0.902 16,2.012C16,3.122 15.098,4.024 13.988,4.024C13.614,4.024 13.264,3.922 12.963,3.744L3.744,12.963C3.922,13.264 4.024,13.614 4.024,13.988C4.024,15.098 3.122,16 2.012,16C0.902,16 0,15.098 0,13.988C0,12.878 0.902,11.976 2.012,11.976C2.386,11.976 2.736,12.078 3.037,12.256L12.256,3.037Z" style="fill:rgb(34,34,34);"/>
        <path d="M14.04,0.001L14.091,0.003L14.143,0.006L14.194,0.01L14.244,0.016L14.294,0.023L14.344,0.031L14.393,0.041L14.442,0.052L14.491,0.063L14.539,0.076L14.586,0.091L14.633,0.106L14.679,0.122L14.725,0.14L14.771,0.158L14.816,0.178L14.86,0.199L14.904,0.22L14.947,0.243L14.989,0.267L15.031,0.291L15.072,0.317L15.113,0.344L15.152,0.371L15.191,0.4L15.23,0.429L15.268,0.46L15.304,0.491L15.341,0.523L15.376,0.556L15.41,0.59L15.444,0.624L15.477,0.659L15.509,0.696L15.54,0.732L15.571,0.77L15.6,0.809L15.629,0.848L15.656,0.887L15.683,0.928L15.709,0.969L15.733,1.011L15.757,1.053L15.78,1.096L15.801,1.14L15.822,1.184L15.842,1.229L15.86,1.275L15.878,1.321L15.894,1.367L15.909,1.414L15.924,1.461L15.937,1.509L15.948,1.558L15.959,1.607L15.969,1.656L15.977,1.706L15.984,1.756L15.99,1.806L15.994,1.857L15.997,1.909L15.999,1.96L16,2.012L15.999,2.064L15.997,2.115L15.994,2.167L15.99,2.218L15.984,2.268L15.977,2.318L15.969,2.368L15.959,2.417L15.948,2.466L15.937,2.515L15.924,2.563L15.909,2.61L15.894,2.657L15.878,2.704L15.86,2.749L15.842,2.795L15.822,2.84L15.801,2.884L15.78,2.928L15.757,2.971L15.733,3.013L15.709,3.055L15.683,3.096L15.656,3.137L15.629,3.176L15.6,3.216L15.571,3.254L15.54,3.292L15.509,3.328L15.477,3.365L15.444,3.4L15.41,3.434L15.376,3.468L15.341,3.501L15.304,3.533L15.268,3.564L15.23,3.595L15.191,3.624L15.152,3.653L15.113,3.68L15.072,3.707L15.031,3.733L14.989,3.757L14.947,3.781L14.904,3.804L14.86,3.825L14.816,3.846L14.771,3.866L14.725,3.884L14.679,3.902L14.633,3.918L14.586,3.933L14.539,3.948L14.491,3.961L14.442,3.972L14.393,3.983L14.344,3.993L14.294,4.001L14.244,4.008L14.194,4.014L14.143,4.018L14.091,4.021L14.04,4.023L13.988,4.024L13.918,4.023L13.849,4.019L13.78,4.013L13.712,4.005L13.645,3.995L13.579,3.982L13.513,3.967L13.448,3.951L13.384,3.932L13.321,3.911L13.259,3.888L13.198,3.863L13.137,3.836L13.078,3.807L13.02,3.776L12.963,3.744L3.744,12.963L3.776,13.02L3.807,13.078L3.836,13.137L3.863,13.198L3.888,13.259L3.911,13.321L3.932,13.384L3.951,13.448L3.967,13.513L3.982,13.579L3.995,13.645L4.005,13.712L4.013,13.78L4.019,13.849L4.023,13.918L4.024,13.988L4.023,14.04L4.021,14.091L4.018,14.143L4.014,14.194L4.008,14.244L4.001,14.294L3.993,14.344L3.983,14.393L3.972,14.442L3.961,14.491L3.948,14.539L3.933,14.586L3.918,14.633L3.902,14.679L3.884,14.725L3.866,14.771L3.846,14.816L3.825,14.86L3.804,14.904L3.781,14.947L3.757,14.989L3.733,15.031L3.707,15.072L3.68,15.113L3.653,15.152L3.624,15.191L3.595,15.23L3.564,15.268L3.533,15.304L3.501,15.341L3.468,15.376L3.434,15.41L3.4,15.444L3.365,15.477L3.328,15.509L3.292,15.54L3.254,15.571L3.216,15.6L3.176,15.629L3.137,15.656L3.096,15.683L3.055,15.709L3.013,15.733L2.971,15.757L2.928,15.78L2.884,15.801L2.84,15.822L2.795,15.842L2.749,15.86L2.704,15.878L2.657,15.894L2.61,15.909L2.563,15.924L2.515,15.937L2.466,15.948L2.417,15.959L2.368,15.969L2.318,15.977L2.268,15.984L2.218,15.99L2.167,15.994L2.115,15.997L2.064,15.999L2.012,16L1.96,15.999L1.909,15.997L1.857,15.994L1.806,15.99L1.756,15.984L1.706,15.977L1.656,15.969L1.607,15.959L1.558,15.948L1.509,15.937L1.461,15.924L1.414,15.909L1.367,15.894L1.321,15.878L1.275,15.86L1.229,15.842L1.184,15.822L1.14,15.801L1.096,15.78L1.053,15.757L1.011,15.733L0.969,15.709L0.928,15.683L0.887,15.656L0.848,15.629L0.809,15.6L0.77,15.571L0.732,15.54L0.696,15.509L0.659,15.477L0.624,15.444L0.59,15.41L0.556,15.376L0.523,15.341L0.491,15.304L0.46,15.268L0.429,15.23L0.4,15.191L0.371,15.152L0.344,15.113L0.317,15.072L0.291,15.031L0.267,14.989L0.243,14.947L0.22,14.904L0.199,14.86L0.178,14.816L0.158,14.771L0.14,14.725L0.122,14.679L0.106,14.633L0.091,14.586L0.076,14.539L0.063,14.491L0.052,14.442L0.041,14.393L0.031,14.344L0.023,14.294L0.016,14.244L0.01,14.194L0.006,14.143L0.003,14.091L0.001,14.04L0,13.988L0.001,13.936L0.003,13.885L0.006,13.833L0.01,13.782L0.016,13.732L0.023,13.682L0.031,13.632L0.041,13.583L0.052,13.534L0.063,13.485L0.076,13.437L0.091,13.39L0.106,13.343L0.122,13.296L0.14,13.251L0.158,13.205L0.178,13.16L0.199,13.116L0.22,13.072L0.243,13.029L0.267,12.987L0.291,12.945L0.317,12.904L0.344,12.863L0.371,12.824L0.4,12.784L0.429,12.746L0.46,12.708L0.491,12.672L0.523,12.635L0.556,12.6L0.59,12.566L0.624,12.532L0.659,12.499L0.696,12.467L0.732,12.436L0.77,12.405L0.809,12.376L0.848,12.347L0.887,12.32L0.928,12.293L0.969,12.267L1.011,12.243L1.053,12.219L1.096,12.196L1.14,12.175L1.184,12.154L1.229,12.134L1.275,12.116L1.321,12.098L1.367,12.082L1.414,12.067L1.461,12.052L1.509,12.039L1.558,12.028L1.607,12.017L1.656,12.007L1.706,11.999L1.756,11.992L1.806,11.986L1.857,11.982L1.909,11.979L1.96,11.977L2.012,11.976L2.082,11.977L2.151,11.981L2.22,11.987L2.288,11.995L2.355,12.005L2.421,12.018L2.487,12.033L2.552,12.049L2.616,12.068L2.679,12.089L2.741,12.112L2.802,12.137L2.863,12.164L2.922,12.193L2.98,12.224L3.037,12.256L12.256,3.037L12.224,2.98L12.193,2.922L12.164,2.863L12.137,2.802L12.112,2.741L12.089,2.679L12.068,2.616L12.049,2.552L12.033,2.487L12.018,2.421L12.005,2.355L11.995,2.288L11.987,2.22L11.981,2.151L11.977,2.082L11.976,2.012L11.977,1.96L11.979,1.909L11.982,1.857L11.986,1.806L11.992,1.756L11.999,1.706L12.007,1.656L12.017,1.607L12.028,1.558L12.039,1.509L12.052,1.461L12.067,1.414L12.082,1.367L12.098,1.321L12.116,1.275L12.134,1.229L12.154,1.184L12.175,1.14L12.196,1.096L12.219,1.053L12.243,1.011L12.267,0.969L12.293,0.928L12.32,0.887L12.347,0.848L12.376,0.809L12.405,0.77L12.436,0.732L12.467,0.696L12.499,0.659L12.532,0.624L12.566,0.59L12.6,0.556L12.635,0.523L12.672,0.491L12.708,0.46L12.746,0.429L12.784,0.4L12.824,0.371L12.863,0.344L12.904,0.317L12.945,0.291L12.987,0.267L13.029,0.243L13.072,0.22L13.116,0.199L13.16,0.178L13.205,0.158L13.251,0.14L13.296,0.122L13.343,0.106L13.39,0.091L13.437,0.076L13.485,0.063L13.534,0.052L13.583,0.041L13.632,0.031L13.682,0.023L13.732,0.016L13.782,0.01L13.833,0.006L13.885,0.003L13.936,0.001L13.988,0L14.04,0.001ZM2.009,13.976L2.009,13.976L2.008,13.976L2.008,13.976L2.008,13.976L2.008,13.977L2.008,13.977L2.007,13.977L2.007,13.977L2.007,13.978L2.006,13.978L2.006,13.978L2.005,13.979L2.005,13.979L2.004,13.979L2.004,13.98L2.003,13.98L2.003,13.981L2.003,13.981L2.002,13.982L2.002,13.982L2.002,13.983L2.001,13.983L2.001,13.983L2.001,13.984L2.001,13.984L2,13.984L2,13.984L2,13.984L2,13.985L2,13.985L2,13.986L2,13.987L2,13.988L2.004,13.996L2.009,14L2.012,14L2.013,14L2.014,14L2.015,14L2.015,14L2.016,14L2.016,14L2.016,14L2.016,13.999L2.016,13.999L2.017,13.999L2.017,13.999L2.017,13.998L2.018,13.998L2.018,13.998L2.019,13.997L2.019,13.997L2.02,13.997L2.02,13.996L2.021,13.996L2.021,13.995L2.021,13.995L2.022,13.994L2.022,13.994L2.022,13.993L2.023,13.993L2.023,13.993L2.023,13.992L2.023,13.992L2.024,13.992L2.024,13.992L2.024,13.992L2.024,13.991L2.024,13.991L2.024,13.991L2.024,13.986L2.024,13.985L2.024,13.985L2.024,13.984L2.024,13.984L2.021,13.979L2.016,13.976L2.016,13.976L2.015,13.976L2.015,13.976L2.014,13.976L2.009,13.976L2.009,13.976ZM13.987,2L13.986,2L13.985,2L13.985,2L13.984,2L13.984,2L13.984,2L13.984,2.001L13.984,2.001L13.983,2.001L13.983,2.001L13.983,2.002L13.982,2.002L13.982,2.002L13.981,2.003L13.981,2.003L13.98,2.003L13.98,2.004L13.979,2.004L13.979,2.005L13.979,2.005L13.978,2.006L13.978,2.006L13.978,2.007L13.977,2.007L13.977,2.007L13.977,2.008L13.977,2.008L13.976,2.008L13.976,2.008L13.976,2.008L13.976,2.009L13.976,2.009L13.976,2.009L13.976,2.016L13.979,2.021L13.985,2.024L13.991,2.024L13.991,2.024L13.991,2.024L13.992,2.024L13.992,2.024L13.992,2.024L13.992,2.023L13.992,2.023L13.993,2.023L13.993,2.023L13.993,2.022L13.994,2.022L13.994,2.022L13.995,2.021L13.995,2.021L13.996,2.021L13.996,2.02L13.997,2.02L13.997,2.019L13.997,2.019L13.998,2.018L13.998,2.018L13.998,2.017L13.999,2.017L13.999,2.017L13.999,2.016L13.999,2.016L14,2.016L14,2.016L14,2.016L14,2.015L14,2.015L14,2.014L14,2.013L14,2.012L14,2.011L14,2.01L14,2.009L14,2.009L14,2.008L14,2.008L14,2.008L13.999,2.008L13.999,2.008L13.999,2.007L13.999,2.007L13.998,2.007L13.998,2.006L13.998,2.006L13.997,2.005L13.997,2.005L13.997,2.004L13.996,2.004L13.996,2.003L13.995,2.003L13.995,2.003L13.994,2.002L13.994,2.002L13.993,2.002L13.993,2.001L13.993,2.001L13.992,2.001L13.992,2.001L13.992,2L13.992,2L13.992,2L13.991,2L13.991,2L13.99,2L13.989,2L13.988,2L13.987,2Z"/>
    </g>
</svg>
