<?xml version="1.0" encoding="UTF-8" standalone="no"?>
<!DOCTYPE svg PUBLIC "-//W3C//DTD SVG 1.1//EN" "http://www.w3.org/Graphics/SVG/1.1/DTD/svg11.dtd">
<svg width="100%" height="100%" viewBox="0 0 16 16" version="1.1" xmlns="http://www.w3.org/2000/svg" xmlns:xlink="http://www.w3.org/1999/xlink" xml:space="preserve" xmlns:serif="http://www.serif.com/" style="fill-rule:evenodd;clip-rule:evenodd;">
    <rect id="icon-bound" x="0" y="0" width="16" height="16" style="fill:none;"/>
    <g id="Way2" transform="matrix(1,0,0,1,-0.260922,0.524991)">
        <path d="M3.035,11.051C3.035,11.051 2.608,14.322 5.547,14.322C8.158,14.322 8,11.002 8,11.002L8,4.764C8,3.13 8.738,0.994 11.133,0.994C14.018,0.994 13.992,4.955 13.992,4.955" style="fill:none;stroke:black;stroke-width:2px;"/>
        <g transform="matrix(1,0,0,1,1.00144,0.798393)">
            <path d="M2.033,6.677C3.42,6.677 4.546,7.803 4.546,9.189C4.546,10.576 3.42,11.702 2.033,11.702C0.646,11.702 -0.48,10.576 -0.48,9.189C-0.48,7.803 0.646,6.677 2.033,6.677ZM2.033,8.188C2.586,8.188 3.035,8.637 3.035,9.189C3.035,9.742 2.586,10.191 2.033,10.191C1.48,10.191 1.032,9.742 1.032,9.189C1.032,8.637 1.48,8.188 2.033,8.188Z"/>
            <path d="M2.098,6.677L2.162,6.68L2.226,6.684L2.29,6.69L2.353,6.697L2.416,6.706L2.478,6.716L2.539,6.728L2.6,6.741L2.661,6.756L2.721,6.772L2.78,6.79L2.839,6.809L2.897,6.829L2.954,6.851L3.011,6.874L3.067,6.899L3.122,6.925L3.177,6.952L3.23,6.98L3.283,7.01L3.336,7.041L3.387,7.073L3.438,7.106L3.487,7.14L3.536,7.176L3.584,7.213L3.631,7.251L3.677,7.29L3.722,7.33L3.766,7.371L3.81,7.413L3.852,7.456L3.893,7.5L3.933,7.545L3.972,7.591L4.01,7.638L4.046,7.686L4.082,7.735L4.116,7.785L4.15,7.835L4.182,7.887L4.213,7.939L4.242,7.992L4.271,8.046L4.298,8.1L4.324,8.156L4.348,8.212L4.371,8.268L4.393,8.326L4.414,8.384L4.433,8.442L4.45,8.502L4.467,8.562L4.481,8.622L4.495,8.683L4.507,8.745L4.517,8.807L4.526,8.869L4.533,8.933L4.539,8.996L4.543,9.06L4.545,9.125L4.546,9.189L4.545,9.254L4.543,9.319L4.539,9.383L4.533,9.446L4.526,9.509L4.517,9.572L4.507,9.634L4.495,9.695L4.481,9.757L4.467,9.817L4.45,9.877L4.433,9.936L4.414,9.995L4.393,10.053L4.371,10.11L4.348,10.167L4.324,10.223L4.298,10.278L4.271,10.333L4.242,10.387L4.213,10.44L4.182,10.492L4.15,10.543L4.116,10.594L4.082,10.644L4.046,10.692L4.01,10.74L3.972,10.787L3.933,10.833L3.893,10.878L3.852,10.923L3.81,10.966L3.766,11.008L3.722,11.049L3.677,11.089L3.631,11.128L3.584,11.166L3.536,11.203L3.487,11.238L3.438,11.273L3.387,11.306L3.336,11.338L3.283,11.369L3.23,11.399L3.177,11.427L3.122,11.454L3.067,11.48L3.011,11.504L2.954,11.528L2.897,11.549L2.839,11.57L2.78,11.589L2.721,11.607L2.661,11.623L2.6,11.638L2.539,11.651L2.478,11.663L2.416,11.673L2.353,11.682L2.29,11.689L2.226,11.695L2.162,11.699L2.098,11.701L2.033,11.702L1.968,11.701L1.904,11.699L1.84,11.695L1.776,11.689L1.713,11.682L1.651,11.673L1.589,11.663L1.527,11.651L1.466,11.638L1.405,11.623L1.346,11.607L1.286,11.589L1.228,11.57L1.17,11.549L1.112,11.528L1.055,11.504L0.999,11.48L0.944,11.454L0.89,11.427L0.836,11.399L0.783,11.369L0.731,11.338L0.679,11.306L0.629,11.273L0.579,11.238L0.53,11.203L0.482,11.166L0.435,11.128L0.389,11.089L0.344,11.049L0.3,11.008L0.257,10.966L0.215,10.923L0.173,10.878L0.133,10.833L0.094,10.787L0.057,10.74L0.02,10.692L-0.016,10.644L-0.05,10.594L-0.084,10.543L-0.116,10.492L-0.146,10.44L-0.176,10.387L-0.205,10.333L-0.232,10.278L-0.257,10.223L-0.282,10.167L-0.305,10.11L-0.327,10.053L-0.347,9.995L-0.367,9.936L-0.384,9.877L-0.4,9.817L-0.415,9.757L-0.429,9.695L-0.44,9.634L-0.451,9.572L-0.459,9.509L-0.467,9.446L-0.472,9.383L-0.476,9.319L-0.479,9.254L-0.48,9.189L-0.479,9.125L-0.476,9.06L-0.472,8.996L-0.467,8.933L-0.459,8.869L-0.451,8.807L-0.44,8.745L-0.429,8.683L-0.415,8.622L-0.4,8.562L-0.384,8.502L-0.367,8.442L-0.347,8.384L-0.327,8.326L-0.305,8.268L-0.282,8.212L-0.257,8.156L-0.232,8.1L-0.205,8.046L-0.176,7.992L-0.146,7.939L-0.116,7.887L-0.084,7.835L-0.05,7.785L-0.016,7.735L0.02,7.686L0.057,7.638L0.094,7.591L0.133,7.545L0.173,7.5L0.215,7.456L0.257,7.413L0.3,7.371L0.344,7.33L0.389,7.29L0.435,7.251L0.482,7.213L0.53,7.176L0.579,7.14L0.629,7.106L0.679,7.073L0.731,7.041L0.783,7.01L0.836,6.98L0.89,6.952L0.944,6.925L0.999,6.899L1.055,6.874L1.112,6.851L1.17,6.829L1.228,6.809L1.286,6.79L1.346,6.772L1.405,6.756L1.466,6.741L1.527,6.728L1.589,6.716L1.651,6.706L1.713,6.697L1.776,6.69L1.84,6.684L1.904,6.68L1.968,6.677L2.033,6.677L2.098,6.677ZM1.982,8.189L1.931,8.193L1.881,8.199L1.831,8.208L1.783,8.219L1.735,8.233L1.689,8.249L1.643,8.267L1.599,8.287L1.556,8.309L1.514,8.333L1.473,8.359L1.434,8.387L1.396,8.417L1.36,8.448L1.325,8.481L1.292,8.516L1.26,8.552L1.231,8.59L1.203,8.63L1.177,8.67L1.153,8.712L1.13,8.755L1.11,8.8L1.092,8.845L1.077,8.892L1.063,8.939L1.052,8.988L1.043,9.037L1.037,9.087L1.033,9.138L1.032,9.189L1.033,9.241L1.037,9.292L1.043,9.342L1.052,9.391L1.063,9.44L1.077,9.487L1.092,9.534L1.11,9.579L1.13,9.623L1.153,9.667L1.177,9.708L1.203,9.749L1.231,9.788L1.26,9.826L1.292,9.863L1.325,9.897L1.36,9.931L1.396,9.962L1.434,9.992L1.473,10.02L1.514,10.046L1.556,10.07L1.599,10.092L1.643,10.112L1.689,10.13L1.735,10.146L1.783,10.159L1.831,10.17L1.881,10.179L1.931,10.186L1.982,10.19L2.033,10.191L2.085,10.19L2.135,10.186L2.186,10.179L2.235,10.17L2.283,10.159L2.331,10.146L2.377,10.13L2.423,10.112L2.467,10.092L2.51,10.07L2.552,10.046L2.593,10.02L2.632,9.992L2.67,9.962L2.706,9.931L2.741,9.897L2.774,9.863L2.806,9.826L2.836,9.788L2.863,9.749L2.89,9.708L2.914,9.667L2.936,9.623L2.956,9.579L2.974,9.534L2.99,9.487L3.003,9.44L3.014,9.391L3.023,9.342L3.029,9.292L3.033,9.241L3.035,9.189L3.033,9.138L3.029,9.087L3.023,9.037L3.014,8.988L3.003,8.939L2.99,8.892L2.974,8.845L2.956,8.8L2.936,8.755L2.914,8.712L2.89,8.67L2.863,8.63L2.836,8.59L2.806,8.552L2.774,8.516L2.741,8.481L2.706,8.448L2.67,8.417L2.632,8.387L2.593,8.359L2.552,8.333L2.51,8.309L2.467,8.287L2.423,8.267L2.377,8.249L2.331,8.233L2.283,8.219L2.235,8.208L2.186,8.199L2.135,8.193L2.085,8.189L2.033,8.188L1.982,8.189Z"/>
        </g>
        <g transform="matrix(1,0,0,1,0,0.484599)">
            <circle cx="13.992" cy="4.983" r="2.008"/>
            <path d="M14.044,2.976L14.096,2.978L14.147,2.981L14.197,2.985L14.248,2.991L14.298,2.998L14.348,3.006L14.397,3.016L14.445,3.027L14.494,3.038L14.542,3.051L14.589,3.065L14.636,3.081L14.682,3.097L14.728,3.114L14.773,3.133L14.818,3.153L14.862,3.173L14.906,3.195L14.949,3.218L14.991,3.241L15.033,3.266L15.074,3.292L15.115,3.318L15.154,3.346L15.193,3.374L15.232,3.403L15.269,3.434L15.306,3.465L15.342,3.497L15.377,3.53L15.412,3.563L15.445,3.598L15.478,3.633L15.51,3.669L15.541,3.706L15.572,3.744L15.601,3.782L15.629,3.821L15.657,3.861L15.684,3.901L15.709,3.942L15.734,3.984L15.758,4.026L15.78,4.069L15.802,4.113L15.823,4.157L15.842,4.202L15.861,4.247L15.878,4.293L15.894,4.339L15.91,4.386L15.924,4.433L15.937,4.481L15.949,4.53L15.959,4.578L15.969,4.628L15.977,4.677L15.984,4.727L15.99,4.778L15.994,4.828L15.997,4.879L15.999,4.931L16,4.983L15.999,5.035L15.997,5.086L15.994,5.137L15.99,5.188L15.984,5.238L15.977,5.288L15.969,5.338L15.959,5.387L15.949,5.436L15.937,5.484L15.924,5.532L15.91,5.579L15.894,5.626L15.878,5.673L15.861,5.719L15.842,5.764L15.823,5.809L15.802,5.853L15.78,5.896L15.758,5.939L15.734,5.982L15.709,6.023L15.684,6.065L15.657,6.105L15.629,6.145L15.601,6.184L15.572,6.222L15.541,6.259L15.51,6.296L15.478,6.332L15.445,6.368L15.412,6.402L15.377,6.436L15.342,6.469L15.306,6.501L15.269,6.532L15.232,6.562L15.193,6.591L15.154,6.62L15.115,6.647L15.074,6.674L15.033,6.7L14.991,6.724L14.949,6.748L14.906,6.771L14.862,6.792L14.818,6.813L14.773,6.833L14.728,6.851L14.682,6.869L14.636,6.885L14.589,6.9L14.542,6.914L14.494,6.927L14.445,6.939L14.397,6.95L14.348,6.959L14.298,6.967L14.248,6.974L14.197,6.98L14.147,6.985L14.096,6.988L14.044,6.99L13.992,6.99L13.941,6.99L13.889,6.988L13.838,6.985L13.787,6.98L13.737,6.974L13.687,6.967L13.637,6.959L13.588,6.95L13.539,6.939L13.491,6.927L13.443,6.914L13.396,6.9L13.349,6.885L13.302,6.869L13.256,6.851L13.211,6.833L13.166,6.813L13.122,6.792L13.079,6.771L13.036,6.748L12.993,6.724L12.952,6.7L12.911,6.674L12.87,6.647L12.83,6.62L12.791,6.591L12.753,6.562L12.716,6.532L12.679,6.501L12.643,6.469L12.607,6.436L12.573,6.402L12.539,6.368L12.506,6.332L12.474,6.296L12.443,6.259L12.413,6.222L12.384,6.184L12.355,6.145L12.328,6.105L12.301,6.065L12.275,6.023L12.251,5.982L12.227,5.939L12.204,5.896L12.183,5.853L12.162,5.809L12.143,5.764L12.124,5.719L12.107,5.673L12.09,5.626L12.075,5.579L12.061,5.532L12.048,5.484L12.036,5.436L12.025,5.387L12.016,5.338L12.008,5.288L12.001,5.238L11.995,5.188L11.991,5.137L11.987,5.086L11.985,5.035L11.985,4.983L11.985,4.931L11.987,4.879L11.991,4.828L11.995,4.778L12.001,4.727L12.008,4.677L12.016,4.628L12.025,4.578L12.036,4.53L12.048,4.481L12.061,4.433L12.075,4.386L12.09,4.339L12.107,4.293L12.124,4.247L12.143,4.202L12.162,4.157L12.183,4.113L12.204,4.069L12.227,4.026L12.251,3.984L12.275,3.942L12.301,3.901L12.328,3.861L12.355,3.821L12.384,3.782L12.413,3.744L12.443,3.706L12.474,3.669L12.506,3.633L12.539,3.598L12.573,3.563L12.607,3.53L12.643,3.497L12.679,3.465L12.716,3.434L12.753,3.403L12.791,3.374L12.83,3.346L12.87,3.318L12.911,3.292L12.952,3.266L12.993,3.241L13.036,3.218L13.079,3.195L13.122,3.173L13.166,3.153L13.211,3.133L13.256,3.114L13.302,3.097L13.349,3.081L13.396,3.065L13.443,3.051L13.491,3.038L13.539,3.027L13.588,3.016L13.637,3.006L13.687,2.998L13.737,2.991L13.787,2.985L13.838,2.981L13.889,2.978L13.941,2.976L13.992,2.975L14.044,2.976ZM13.991,4.975L13.99,4.975L13.99,4.975L13.99,4.975L13.99,4.976L13.989,4.976L13.989,4.976L13.989,4.976L13.988,4.977L13.988,4.977L13.988,4.977L13.987,4.978L13.987,4.978L13.987,4.978L13.986,4.979L13.986,4.979L13.986,4.98L13.985,4.98L13.985,4.98L13.985,4.98L13.985,4.981L13.985,4.981L13.985,4.982L13.985,4.983L13.99,4.99L13.992,4.99L13.993,4.99L13.994,4.99L13.994,4.99L13.995,4.99L13.995,4.99L13.995,4.99L13.995,4.989L13.996,4.989L13.996,4.989L13.997,4.989L13.997,4.988L13.997,4.988L13.998,4.987L13.998,4.987L13.998,4.987L13.999,4.986L13.999,4.986L13.999,4.986L14,4.985L14,4.985L14,4.985L14,4.985L14,4.984L14,4.983L14,4.982L14,4.981L14,4.981L14,4.98L14,4.98L13.999,4.98L13.999,4.98L13.999,4.979L13.998,4.979L13.998,4.978L13.998,4.978L13.997,4.978L13.997,4.977L13.997,4.977L13.996,4.977L13.996,4.976L13.995,4.976L13.995,4.976L13.995,4.976L13.995,4.975L13.994,4.975L13.994,4.975L13.993,4.975L13.992,4.975L13.991,4.975Z"/>
        </g>
    </g>
</svg>
