<?xml version="1.0" encoding="UTF-8"?>
<!-- Generator: Adobe Illustrator 17.1.0, SVG Export Plug-In . SVG Version: 6.00 Build 0)  -->
<!DOCTYPE svg PUBLIC "-//W3C//DTD SVG 1.1//EN" "http://www.w3.org/Graphics/SVG/1.1/DTD/svg11.dtd">
<svg xmlns="http://www.w3.org/2000/svg" xmlns:xlink="http://www.w3.org/1999/xlink" version="1.1" id="Layer_1" x="0px" y="0px" width="512px" height="512px" viewBox="0 0 512 512" enable-background="new 0 0 512 512" xml:space="preserve">

<path d="M448,0v86.7C401.1,33.5,332.5,0,256,0C114.6,0,0,114.6,0,256c0,141.4,114.6,256,256,256s256-114.6,256-256h-64  c0,51.3-20,99.5-56.2,135.8S307.3,448,256,448s-99.5-20-135.8-56.2C84,355.5,64,307.3,64,256c0-51.3,20-99.5,56.2-135.8  C156.5,84,204.7,64,256,64c51.3,0,99.5,20,135.8,56.2c2.5,2.5,5,5.1,7.3,7.8H320v64h192V0H448z"/>
</svg>
