<?xml version="1.0" encoding="UTF-8"?>
<!-- Generator: Adobe Illustrator 17.1.0, SVG Export Plug-In . SVG Version: 6.00 Build 0)  -->
<!DOCTYPE svg PUBLIC "-//W3C//DTD SVG 1.1//EN" "http://www.w3.org/Graphics/SVG/1.1/DTD/svg11.dtd">
<svg xmlns="http://www.w3.org/2000/svg" xmlns:xlink="http://www.w3.org/1999/xlink" version="1.1" id="Layer_1" x="0px" y="0px" width="512px" height="512px" viewBox="0 0 512 512" enable-background="new 0 0 512 512" xml:space="preserve">

<path d="M192,128h-79.1c2.4-2.6,4.8-5.2,7.3-7.8C156.5,84,204.7,64,256,64c51.3,0,99.5,20,135.8,56.2C428,156.5,448,204.7,448,256  h64C512,114.6,397.4,0,256,0C179.5,0,110.9,33.5,64,86.7V0H0v192h192V128z M320,384h79.1c-2.4,2.6-4.8,5.2-7.3,7.8  C355.5,428,307.3,448,256,448s-99.5-20-135.8-56.2C84,355.5,64,307.3,64,256H0c0,141.4,114.6,256,256,256  c76.5,0,145.1-33.5,192-86.7V512h64V320H320V384z"/>
</svg>
