<?xml version="1.0" encoding="UTF-8"?>
<!-- Generator: Adobe Illustrator 17.0.0, SVG Export Plug-In . SVG Version: 6.00 Build 0)  -->
<!DOCTYPE svg PUBLIC "-//W3C//DTD SVG 1.1//EN" "http://www.w3.org/Graphics/SVG/1.1/DTD/svg11.dtd">
<svg xmlns="http://www.w3.org/2000/svg" xmlns:xlink="http://www.w3.org/1999/xlink" version="1.1" id="Layer_1" x="0px" y="0px" width="512px" height="512px" viewBox="0 0 512 512" enable-background="new 0 0 512 512" xml:space="preserve">

<path d="M455.627,184.373C419.275,148.02,371.108,128,320,128H122.51l73.373-73.373L150.628,9.373L0,160l150.627,150.628  l45.255-45.256L122.51,192H320c34.014,0,66.108,13.363,90.373,37.627C434.637,253.892,448,285.986,448,320  s-13.363,66.108-37.627,90.373C386.108,434.637,354.014,448,320,448H192v64h128c51.108,0,99.275-20.021,135.627-56.373  S512,371.108,512,320S491.979,220.725,455.627,184.373z"/>
</svg>
