<?xml version="1.0" encoding="UTF-8"?>
<!-- Generator: Adobe Illustrator 17.1.0, SVG Export Plug-In . SVG Version: 6.00 Build 0)  -->
<!DOCTYPE svg PUBLIC "-//W3C//DTD SVG 1.1//EN" "http://www.w3.org/Graphics/SVG/1.1/DTD/svg11.dtd">
<svg xmlns="http://www.w3.org/2000/svg" xmlns:xlink="http://www.w3.org/1999/xlink" version="1.1" id="Layer_1" x="0px" y="0px" width="512px" height="512px" viewBox="0 0 512 512" enable-background="new 0 0 512 512" xml:space="preserve">

<g>
	<path d="M194,448c7.1,27.6,32.2,48,62,48s54.9-20.4,62-48H194z"/>
	<path d="M416,288v-80c0-73.8-56.3-135.1-128-143.1V48c0-17.7-14.3-32-32-32s-32,14.3-32,32v16.9c-71.7,8-128,69.3-128,143.1v80   c0,35.3-28.7,64-64,64v64h448v-64C444.7,352,416,323.3,416,288z"/>
</g>
</svg>
