<?xml version="1.0" encoding="UTF-8"?>
<!-- Generator: Adobe Illustrator 17.0.0, SVG Export Plug-In . SVG Version: 6.00 Build 0)  -->
<!DOCTYPE svg PUBLIC "-//W3C//DTD SVG 1.1//EN" "http://www.w3.org/Graphics/SVG/1.1/DTD/svg11.dtd">
<svg xmlns="http://www.w3.org/2000/svg" xmlns:xlink="http://www.w3.org/1999/xlink" version="1.1" id="Layer_1" x="0px" y="0px" width="512px" height="512px" viewBox="0 0 512 512" enable-background="new 0 0 512 512" xml:space="preserve">

<path d="M192,64c0,0,128,0,128,0v32h64V64c0-35.2-28.8-64-64-64H192c-35.2,0-64,28.8-64,64v32h64L192,64z M0,448  c0,17.6,14.4,32,32,32h448c17.6,0,32-14.4,32-32V256H0V448z M224,288h64v32c0,17.7-14.3,32-32,32s-32-14.3-32-32V288z M480,128H32  c-17.6,0-32,14.4-32,32v64h512v-64C512,142.4,497.6,128,480,128z"/>
</svg>
