<?xml version="1.0" encoding="UTF-8"?>
<!-- Generator: Adobe Illustrator 17.1.0, SVG Export Plug-In . SVG Version: 6.00 Build 0)  -->
<!DOCTYPE svg PUBLIC "-//W3C//DTD SVG 1.1//EN" "http://www.w3.org/Graphics/SVG/1.1/DTD/svg11.dtd">
<svg xmlns="http://www.w3.org/2000/svg" xmlns:xlink="http://www.w3.org/1999/xlink" version="1.1" id="Layer_1" x="0px" y="0px" width="512px" height="512px" viewBox="0 0 512 512" enable-background="new 0 0 512 512" xml:space="preserve">

<path d="M192,224h-64v64h64V224z M192,320h-64v64h64V320z M288,224h-64v64h64V224z M288,320h-64v64h64V320z M384,224h-64v64h64V224z   M384,320h-64v64h64V320z M480,64h-32v64h-96V64H160v64H64V64H32C14.3,64,0,78.3,0,96v352c0,17.7,14.3,32,32,32h448  c17.7,0,32-14.3,32-32V96C512,78.3,497.7,64,480,64z M448,416H64V192h384V416z M128,15.8C128,7.1,120.9,0,112.2,0h-0.3  C103.1,0,96,7.1,96,15.8V96h32V15.8z M416,15.8C416,7.1,408.9,0,400.2,0h-0.3C391.1,0,384,7.1,384,15.8V96h32V15.8z"/>
</svg>
