<?xml version="1.0" encoding="UTF-8"?>
<!-- Generator: Adobe Illustrator 17.1.0, SVG Export Plug-In . SVG Version: 6.00 Build 0)  -->
<!DOCTYPE svg PUBLIC "-//W3C//DTD SVG 1.1//EN" "http://www.w3.org/Graphics/SVG/1.1/DTD/svg11.dtd">
<svg xmlns="http://www.w3.org/2000/svg" xmlns:xlink="http://www.w3.org/1999/xlink" version="1.1" id="Layer_1" x="0px" y="0px" width="512px" height="512px" viewBox="0 0 512 512" enable-background="new 0 0 512 512" xml:space="preserve">

<path d="M192,272c0,35.3,28.7,64,64,64s64-28.7,64-64s-28.7-64-64-64S192,236.7,192,272z M480,96H368c-8-32-16-64-48-64H192  c-32,0-40,32-48,64H32c-17.6,0-32,14.4-32,32v288c0,17.6,14.4,32,32,32h448c17.6,0,32-14.4,32-32V128C512,110.4,497.6,96,480,96z   M256,400c-70.7,0-128-57.3-128-128c0-70.7,57.3-128,128-128c70.7,0,128,57.3,128,128C384,342.7,326.7,400,256,400z"/>
</svg>
