<?xml version="1.0" encoding="UTF-8"?>
<!-- Generator: Adobe Illustrator 17.1.0, SVG Export Plug-In . SVG Version: 6.00 Build 0)  -->
<!DOCTYPE svg PUBLIC "-//W3C//DTD SVG 1.1//EN" "http://www.w3.org/Graphics/SVG/1.1/DTD/svg11.dtd">
<svg xmlns="http://www.w3.org/2000/svg" xmlns:xlink="http://www.w3.org/1999/xlink" version="1.1" id="Layer_1" x="0px" y="0px" width="512px" height="512px" viewBox="0 0 512 512" enable-background="new 0 0 512 512" xml:space="preserve">

<path d="M64,0H0v512h512v-64H64V0z M144,416c26.5,0,48-21.5,48-48c0-9.7-2.9-18.7-7.8-26.2l51.6-86c1.4,0.1,2.8,0.2,4.2,0.2  s2.8-0.1,4.2-0.2l51.6,86c-4.9,7.5-7.8,16.5-7.8,26.2c0,26.5,21.5,48,48,48s48-21.5,48-48c0-10-3.1-19.4-8.4-27.1l85.2-149.1  c1.1,0.1,2.1,0.1,3.2,0.1c26.5,0,48-21.5,48-48c0-26.5-21.5-48-48-48s-48,21.5-48,48c0,10,3.1,19.4,8.4,27.1l-85.2,149.1  c-1.1-0.1-2.1-0.1-3.2-0.1c-1.4,0-2.8,0.1-4.2,0.2l-51.6-86c4.9-7.5,7.8-16.5,7.8-26.2c0-26.5-21.5-48-48-48s-48,21.5-48,48  c0,9.7,2.9,18.7,7.8,26.2l-51.6,86c-1.4-0.1-2.8-0.2-4.2-0.2c-26.5,0-48,21.5-48,48S117.5,416,144,416z"/>
</svg>
