<?xml version="1.0" encoding="UTF-8"?>
<!-- Generator: Adobe Illustrator 17.1.0, SVG Export Plug-In . SVG Version: 6.00 Build 0)  -->
<!DOCTYPE svg PUBLIC "-//W3C//DTD SVG 1.1//EN" "http://www.w3.org/Graphics/SVG/1.1/DTD/svg11.dtd">
<svg xmlns="http://www.w3.org/2000/svg" xmlns:xlink="http://www.w3.org/1999/xlink" version="1.1" id="Layer_3" x="0px" y="0px" width="512px" height="512px" viewBox="0 0 512 512" enable-background="new 0 0 512 512" xml:space="preserve">

<path d="M224,288h64V128h-64V288z M288,352c0-17.7-14.3-32-32-32c-17.7,0-32,14.3-32,32s14.3,32,32,32C273.7,384,288,369.7,288,352z   M512,256C512,114.6,397.4,0,256,0S0,114.6,0,256c0,141.4,114.6,256,256,256S512,397.4,512,256z M448,256c0,51.3-20,99.5-56.2,135.8  C355.5,428,307.3,448,256,448s-99.5-20-135.8-56.2C84,355.5,64,307.3,64,256s20-99.5,56.2-135.8C156.5,84,204.7,64,256,64  s99.5,20,135.8,56.2C428,156.5,448,204.7,448,256z"/>
</svg>
