<?xml version="1.0" encoding="UTF-8"?>
<!-- Generator: Adobe Illustrator 17.1.0, SVG Export Plug-In . SVG Version: 6.00 Build 0)  -->
<!DOCTYPE svg PUBLIC "-//W3C//DTD SVG 1.1//EN" "http://www.w3.org/Graphics/SVG/1.1/DTD/svg11.dtd">
<svg xmlns="http://www.w3.org/2000/svg" xmlns:xlink="http://www.w3.org/1999/xlink" version="1.1" id="Layer_3" x="0px" y="0px" width="512px" height="512px" viewBox="0 0 512 512" enable-background="new 0 0 512 512" xml:space="preserve">

<path fill="none" d="M391.8,120.2C355.5,84,307.3,64,256,64c-51.3,0-99.5,20-135.8,56.2C84,156.5,64,204.7,64,256  c0,51.3,20,99.5,56.2,135.8C156.5,428,204.7,448,256,448c51.3,0,99.5-20,135.8-56.2C428,355.5,448,307.3,448,256  C448,204.7,428,156.5,391.8,120.2z M288,384h-64V224h64V384z M256,192c-17.7,0-32-14.3-32-32c0-17.7,14.3-32,32-32  c17.7,0,32,14.3,32,32C288,177.7,273.7,192,256,192z"/>
<path d="M329.4,137.4L256,210.7l-73.4-73.4l-45.3,45.3l73.4,73.4l-73.4,73.4l45.3,45.3l73.4-73.4l73.4,73.4l45.3-45.3L301.3,256  l73.4-73.4L329.4,137.4z M256,0C114.6,0,0,114.6,0,256c0,141.4,114.6,256,256,256s256-114.6,256-256C512,114.6,397.4,0,256,0z   M391.8,391.8C355.5,428,307.3,448,256,448c-51.3,0-99.5-20-135.8-56.2C84,355.5,64,307.3,64,256c0-51.3,20-99.5,56.2-135.8  C156.5,84,204.7,64,256,64c51.3,0,99.5,20,135.8,56.2C428,156.5,448,204.7,448,256C448,307.3,428,355.5,391.8,391.8z"/>
</svg>
