<?xml version="1.0" encoding="UTF-8"?>
<!-- Generator: Adobe Illustrator 16.0.0, SVG Export Plug-In . SVG Version: 6.00 Build 0)  -->
<!DOCTYPE svg PUBLIC "-//W3C//DTD SVG 1.1//EN" "http://www.w3.org/Graphics/SVG/1.1/DTD/svg11.dtd">
<svg xmlns="http://www.w3.org/2000/svg" xmlns:xlink="http://www.w3.org/1999/xlink" version="1.1" id="Layer_3" x="0px" y="0px" width="512px" height="512px" viewBox="0 0 512 512" enable-background="new 0 0 512 512" xml:space="preserve">

<path d="M224,384h64V224h-64V384z M256,128c-17.673,0-32,14.327-32,32s14.327,32,32,32c17.674,0,32-14.327,32-32  S273.674,128,256,128z M256,0C114.615,0,0,114.615,0,256c0,141.384,114.615,256,256,256c141.385,0,256-114.616,256-256  C512,114.615,397.385,0,256,0z M391.765,391.764C355.5,428.028,307.285,448,256,448s-99.5-19.972-135.765-56.236  C83.972,355.5,64,307.285,64,256s19.972-99.5,56.235-135.765C156.5,83.972,204.715,64,256,64s99.5,19.972,135.765,56.235  C428.028,156.5,448,204.715,448,256C448,307.284,428.028,355.5,391.765,391.764z"/>
</svg>
