<?xml version="1.0" encoding="UTF-8"?>
<!-- Generator: IcoMoon.io -->
<!DOCTYPE svg PUBLIC "-//W3C//DTD SVG 1.1//EN" "http://www.w3.org/Graphics/SVG/1.1/DTD/svg11.dtd">
<svg xmlns="http://www.w3.org/2000/svg" xmlns:xlink="http://www.w3.org/1999/xlink" width="512" height="512" viewBox="0 0 512 512" fill="#000000">
  <path d="M 415.886,64.00c 0.039,0.033, 0.081,0.075, 0.114,0.115l0.00,383.771 c-0.033,0.039-0.075,0.081-0.114,0.114L 96.114,448.00 c-0.04-0.033-0.081-0.075-0.114-0.114L 96.00,64.114 c 0.033-0.04, 0.075-0.081, 0.115-0.114L 32.00,64.00 l0.00,384.00 c0.00,35.20, 28.80,64.00, 64.00,64.00l 320.00,0.00 c 35.20,0.00, 64.00-28.80, 64.00-64.00L 480.00,64.00 L 415.886,64.00 zM 128.00,160.00L 192.00,160.00L 192.00,224.00L 128.00,224.00zM 224.00,160.00L 384.00,160.00L 384.00,224.00L 224.00,224.00zM 128.00,256.00L 192.00,256.00L 192.00,320.00L 128.00,320.00zM 224.00,256.00L 384.00,256.00L 384.00,320.00L 224.00,320.00zM 128.00,352.00L 192.00,352.00L 192.00,416.00L 128.00,416.00zM 224.00,352.00L 384.00,352.00L 384.00,416.00L 224.00,416.00zM 320.00,64.00L 320.00,32.00 c0.00-17.673-14.327-32.00-32.00-32.00l-64.00,0.00 c-17.673,0.00-32.00,14.327-32.00,32.00l0.00,32.00 l-64.00,0.00 l0.00,64.00 l 256.00,0.00 L 384.00,64.00 L 320.00,64.00 z M 288.00,64.00l-64.00,0.00 L 224.00,32.00 l 64.00,0.00 L 288.00,64.00 z"/>
</svg>
