<?xml version="1.0" encoding="UTF-8"?>
<!-- Generator: Adobe Illustrator 17.1.0, SVG Export Plug-In . SVG Version: 6.00 Build 0)  -->
<!DOCTYPE svg PUBLIC "-//W3C//DTD SVG 1.1//EN" "http://www.w3.org/Graphics/SVG/1.1/DTD/svg11.dtd">
<svg xmlns="http://www.w3.org/2000/svg" xmlns:xlink="http://www.w3.org/1999/xlink" version="1.1" id="Layer_1" x="0px" y="0px" width="512px" height="512px" viewBox="0 0 512 512" enable-background="new 0 0 512 512" xml:space="preserve">

<rect x="224" y="32" fill="none" width="64" height="32"/>
<path d="M384,64h-64V32c0-17.7-14.3-32-32-32h-64c-17.7,0-32,14.3-32,32v32h-64v64h256V64z M288,64h-64V32h64V64z M415.9,64  c0,0,0.1,0.1,0.1,0.1v383.8c0,0-0.1,0.1-0.1,0.1H96.1c0,0-0.1-0.1-0.1-0.1V64.1c0,0,0.1-0.1,0.1-0.1H32v384c0,35.2,28.8,64,64,64  h320c35.2,0,64-28.8,64-64V64H415.9z M390.6,218.8L343.1,176L222.5,310l-56.1-55.4l-45,45.5l103.8,102.6L390.6,218.8z"/>
</svg>
