<?xml version="1.0" encoding="UTF-8"?>
<!-- Generator: Adobe Illustrator 17.1.0, SVG Export Plug-In . SVG Version: 6.00 Build 0)  -->
<!DOCTYPE svg PUBLIC "-//W3C//DTD SVG 1.1//EN" "http://www.w3.org/Graphics/SVG/1.1/DTD/svg11.dtd">
<svg xmlns="http://www.w3.org/2000/svg" xmlns:xlink="http://www.w3.org/1999/xlink" version="1.1" id="Layer_1" x="0px" y="0px" width="512px" height="512px" viewBox="0 0 512 512" enable-background="new 0 0 512 512" xml:space="preserve">

<path fill="#010101" d="M256,0C179.5,0,110.8,33.5,64,86.7V0H0v192h192v-64h-79.1c2.3-2.7,4.9-5.2,7.3-7.8C156.5,84,204.7,64,256,64  s99.5,20,135.8,56.2C428,156.5,448,204.7,448,256s-20,99.5-56.2,135.8C355.5,428,307.3,448,256,448s-99.6-19.8-135.8-56.2  S64,307.3,64,256H0c0,141.4,114.6,256,256,256s256-114.6,256-256S397.4,0,256,0z M224,128v141.3l105.3,105.3l45.3-45.3L288,242.7  V128H224z"/>
</svg>
