<?xml version="1.0" encoding="UTF-8"?>
<!-- Generator: Adobe Illustrator 17.1.0, SVG Export Plug-In . SVG Version: 6.00 Build 0)  -->
<!DOCTYPE svg PUBLIC "-//W3C//DTD SVG 1.1//EN" "http://www.w3.org/Graphics/SVG/1.1/DTD/svg11.dtd">
<svg xmlns="http://www.w3.org/2000/svg" xmlns:xlink="http://www.w3.org/1999/xlink" version="1.1" id="Layer_1" x="0px" y="0px" width="512px" height="512px" viewBox="0 0 512 512" enable-background="new 0 0 512 512" xml:space="preserve">

<path d="M384,0H128v64h256V0z M346.5,378.5C322.3,402.7,290.2,416,256,416s-66.3-13.3-90.5-37.5C141.3,354.3,128,322.2,128,288  s13.3-66.3,37.5-90.5c24.2-24.2,56.3-37.5,90.5-37.5s66.3,13.3,90.5,37.5c16.4,16.4,27.8,36.6,33.5,58.5h65.3  C430.1,165.2,351.1,96,256,96C150,96,64,182,64,288s86,192,192,192c95.1,0,174.1-69.2,189.3-160H380  C374.4,341.9,362.9,362.1,346.5,378.5z"/>
</svg>
