<?xml version="1.0" encoding="UTF-8"?>
<!-- Generator: Adobe Illustrator 17.1.0, SVG Export Plug-In . SVG Version: 6.00 Build 0)  -->
<!DOCTYPE svg PUBLIC "-//W3C//DTD SVG 1.1//EN" "http://www.w3.org/Graphics/SVG/1.1/DTD/svg11.dtd">
<svg xmlns="http://www.w3.org/2000/svg" xmlns:xlink="http://www.w3.org/1999/xlink" version="1.1" id="Layer_3" x="0px" y="0px" width="512px" height="512px" viewBox="0 0 512 512" enable-background="new 0 0 512 512" xml:space="preserve">

<path d="M256,0C114.6,0,0,114.6,0,256s114.6,256,256,256s256-114.6,256-256S397.4,0,256,0z M391.8,391.8  c-28.6,28.6-64.6,47.1-103.8,53.6V352h-64v93.4c-39.1-6.5-75.2-25-103.8-53.6C91.6,363.2,73.2,327.1,66.6,288H160v-64H66.6  c6.5-39.1,25-75.2,53.6-103.8c28.6-28.6,64.6-47.1,103.8-53.6V160h64V66.6c39.1,6.5,75.2,25,103.8,53.6  c28.6,28.6,47.1,64.6,53.6,103.8H352v64h93.4C438.8,327.1,420.4,363.2,391.8,391.8z"/>
</svg>
