<?xml version="1.0" encoding="UTF-8"?>
<!-- Generator: Adobe Illustrator 17.1.0, SVG Export Plug-In . SVG Version: 6.00 Build 0)  -->
<!DOCTYPE svg PUBLIC "-//W3C//DTD SVG 1.1//EN" "http://www.w3.org/Graphics/SVG/1.1/DTD/svg11.dtd">
<svg xmlns="http://www.w3.org/2000/svg" xmlns:xlink="http://www.w3.org/1999/xlink" version="1.1" id="Layer_3" x="0px" y="0px" width="512px" height="512px" viewBox="0 0 512 512" enable-background="new 0 0 512 512" xml:space="preserve">

<path d="M445.3,224C431.8,143.6,368.4,80.2,288,66.7V0h-64v66.7C143.6,80.2,80.2,143.6,66.7,224H0v64h66.7  c13.5,80.4,76.9,143.8,157.3,157.3V512h64v-66.7c80.4-13.5,143.8-76.9,157.3-157.3H512v-64H445.3z M346.5,346.5  C322.3,370.7,290.2,384,256,384s-66.3-13.3-90.5-37.5C141.3,322.3,128,290.2,128,256s13.3-66.3,37.5-90.5  c24.2-24.2,56.3-37.5,90.5-37.5s66.3,13.3,90.5,37.5c24.2,24.2,37.5,56.3,37.5,90.5S370.7,322.3,346.5,346.5z M256,192  c-35.3,0-64,28.7-64,64s28.7,64,64,64s64-28.7,64-64S291.3,192,256,192z"/>
</svg>
