<?xml version="1.0" encoding="UTF-8"?>
<!-- Generator: Adobe Illustrator 17.1.0, SVG Export Plug-In . SVG Version: 6.00 Build 0)  -->
<!DOCTYPE svg PUBLIC "-//W3C//DTD SVG 1.1//EN" "http://www.w3.org/Graphics/SVG/1.1/DTD/svg11.dtd">
<svg xmlns="http://www.w3.org/2000/svg" xmlns:xlink="http://www.w3.org/1999/xlink" version="1.1" id="Layer_1" x="0px" y="0px" width="512px" height="512px" viewBox="0 0 512 512" enable-background="new 0 0 512 512" xml:space="preserve">

<path d="M385.3,207.3c-7.9,7.5-31.6,37.5-31.6,37.5c1.3-42.4,12-87.9,39.1-119.6c-37.7,24.8-59,85.6-68.8,122.8  c-3.8,14.9-48.4,101.7-27.7,148.3c4-17,13.6-33.5,24.2-48.1c4.9-6.6,25.7-39.7,46.5-86.9c18.3-47.5,48.3-75.2,90.5-98.8  C425.8,167.3,407.6,185.6,385.3,207.3z M289.8,433.9c-0.1-10.4,2.6-19.4,7-28.8c-9.3,8.2-13,17.5-16.3,30.1  c0.9-14.8,8.1-111.6,8.1-116.4c24.8-70.7,13.7-281.9,45.2-308.2c-36.4,6.6-48.7,43.7-60.4,73.2C262.1,49.1,271.2,27.2,233,15  c30.5,25.8,24.4,48.1,30.7,83.8C245.4,75.1,251,45.5,230,21.2C224.1,15,204.3,0,204.3,0l0,0c0,0.9,15.8,32.6,18.8,49.4  s9.9,50.3,8.9,62.7c2.6,68.6,19.8,134.9,31.7,202.1c2,11.5,7.9,45,7.9,45l1.3,13.9c-2.1-9.2-4.1-17.5-5.3-21  c-3.5-10.1-11.9-35.7-13.9-46.3c-28.8-59.2-81.5-175.2-151.8-192.4c39.9,35.4,82.9,82.1,92.5,127.1c-21.5-30.1-105.7-94.3-140-117.8  C119,189.6,170.9,259,227,333.5c16.3,21.2,36.6,64,38.1,73.7c1.1,7.2,2.4,33.9,3.2,50.4c-31.4-75.8-48.6-114.3-106.6-148.4  c-9.9-5.3-40.6-15.9-40.6-15.9c13.9,15.4,31,16.2,43.8,37.7c-26.4-17.3-53.7-20.3-83.8-21.3c96.7,50,149,64,181.6,160  c2.6,15.8-1.4,27.6-1,42.2h21.4c-0.1-10.2,0.1-19.8,0-21.9c1.1-6.7,1.3-26.9,4.2-33c10.1-25.7,26.5-37.8,49.3-52.7  C316,411.1,305.6,408.6,289.8,433.9z M392.7,125.3L392.7,125.3L392.7,125.3L392.7,125.3z"/>
</svg>
