<?xml version="1.0" encoding="UTF-8"?>
<!-- Generator: Adobe Illustrator 17.1.0, SVG Export Plug-In . SVG Version: 6.00 Build 0)  -->
<!DOCTYPE svg PUBLIC "-//W3C//DTD SVG 1.1//EN" "http://www.w3.org/Graphics/SVG/1.1/DTD/svg11.dtd">
<svg xmlns="http://www.w3.org/2000/svg" xmlns:xlink="http://www.w3.org/1999/xlink" version="1.1" id="Layer_1" x="0px" y="0px" width="512px" height="512px" viewBox="0 0 512 512" enable-background="new 0 0 512 512" xml:space="preserve">

<path d="M256,0C114.6,0,0,114.6,0,256s114.6,256,256,256s256-114.6,256-256S397.4,0,256,0z M384,192H197.8  c-8.7,0-15.8,7.1-15.8,15.8v0.3c0,8.7,7.1,15.8,15.8,15.8H320c35.3,0,64,28.7,64,64v32c0,35.3-28.7,64-64,64h-32v32h-64v-32h-96v-64  h176.2c8.7,0,15.8-7.1,15.8-15.8v-0.3c0-8.7-7.1-15.8-15.8-15.8H192h-0.6c-35,0-63.4-28.4-63.4-63.4V192c0-35.3,28.7-64,64-64h32V96  h64v32h96V192z"/>
</svg>
