<?xml version="1.0" encoding="UTF-8"?>
<!-- Generator: Adobe Illustrator 17.1.0, SVG Export Plug-In . SVG Version: 6.00 Build 0)  -->
<!DOCTYPE svg PUBLIC "-//W3C//DTD SVG 1.1//EN" "http://www.w3.org/Graphics/SVG/1.1/DTD/svg11.dtd">
<svg xmlns="http://www.w3.org/2000/svg" xmlns:xlink="http://www.w3.org/1999/xlink" version="1.1" id="Layer_1" x="0px" y="0px" width="512px" height="512px" viewBox="0 0 512 512" enable-background="new 0 0 512 512" xml:space="preserve">

<path d="M256,416c64,0,143.9-48,128-128C352,288,192,416,256,416z M256,0c0,0-224,160-224,320c0,128,118,192,224,192s224-64,224-192  C480,160,256,0,256,0z M403.4,374c-7.8,14.6-19.2,27.7-34,38.7c-14.9,11.2-32.6,19.9-52.5,26.1c-19.5,6-40.5,9.2-60.9,9.2  c-20.4,0-41.4-3.2-60.9-9.2c-19.9-6.1-37.6-14.9-52.5-26.1c-14.8-11.1-26.2-24.1-34-38.7c-8.4-15.8-12.6-34-12.6-54  c0-25.2,8.9-53.9,26.4-85.4c15.8-28.5,38.4-58.6,67-89.4c23.7-25.5,47.6-47.4,66.6-63.5c19,16.1,42.9,37.9,66.7,63.5  c28.6,30.9,51.2,61,67,89.4c17.4,31.5,26.3,60.2,26.3,85.4C416,340,411.7,358.2,403.4,374z"/>
</svg>
