<?xml version="1.0" encoding="UTF-8"?>
<!-- Generator: Adobe Illustrator 17.1.0, SVG Export Plug-In . SVG Version: 6.00 Build 0)  -->
<!DOCTYPE svg PUBLIC "-//W3C//DTD SVG 1.1//EN" "http://www.w3.org/Graphics/SVG/1.1/DTD/svg11.dtd">
<svg xmlns="http://www.w3.org/2000/svg" xmlns:xlink="http://www.w3.org/1999/xlink" version="1.1" id="Layer_1" x="0px" y="0px" width="512px" height="512px" viewBox="0 0 512 512" enable-background="new 0 0 512 512" xml:space="preserve">

<path d="M256,64C64,64,0,256,0,256s64,192,256,192s256-192,256-192S448,64,256,64z M256,208c0,26.5-21.5,48-48,48s-48-21.5-48-48  s21.5-48,48-48S256,181.5,256,208z M404.4,313.9c-17.9,20.9-38.1,37.3-59.9,48.9C318,376.9,288.2,384,256,384  c-32.2,0-62-7.1-88.5-21.2c-21.8-11.6-41.9-28-59.9-48.9c-18.1-21.1-30.5-42.7-38-57.9c7.5-15.2,19.9-36.8,38-57.9  c6.8-7.9,13.9-15.2,21.3-21.8c-0.6,5.2-1,10.4-1,15.8c0,70.7,57.3,128,128,128s128-57.3,128-128c0-5.3-0.3-10.6-1-15.8  c7.4,6.6,14.5,13.9,21.3,21.8c18.1,21.1,30.5,42.7,38,57.9C434.9,271.2,422.5,292.8,404.4,313.9z"/>
</svg>
