<?xml version="1.0" encoding="UTF-8"?>
<!-- Generator: Adobe Illustrator 17.1.0, SVG Export Plug-In . SVG Version: 6.00 Build 0)  -->
<!DOCTYPE svg PUBLIC "-//W3C//DTD SVG 1.1//EN" "http://www.w3.org/Graphics/SVG/1.1/DTD/svg11.dtd">
<svg xmlns="http://www.w3.org/2000/svg" xmlns:xlink="http://www.w3.org/1999/xlink" version="1.1" id="Layer_1" x="0px" y="0px" width="512px" height="512px" viewBox="0 0 512 512" enable-background="new 0 0 512 512" xml:space="preserve">

<path d="M308.8,129.6c4.8,4.8,9.6,9.6,14.4,14.4c28.8,30.4,51.2,60.8,67.2,89.6c17.6,32,27.2,60.8,27.2,84.8  c0,19.2-4.8,38.4-12.8,54.4c-8,14.4-19.2,27.2-33.6,38.4c-14.4,11.2-32,19.2-52.8,25.6c-20.8,8-41.6,11.2-62.4,11.2  s-41.6-3.2-60.8-9.6c-19.2-6.4-36.8-14.4-52.8-25.6c-14.4-11.2-25.6-24-33.6-38.4c-8-16-12.8-33.6-12.8-54.4  c0-19.2,6.4-41.6,20.8-67.2c3.2-6.4,6.4-12.8,11.2-19.2c25.6,20.8,49.6,25.6,65.6,25.6c27.2,0,52.8-12.8,73.6-35.2  c12.8-16,24-35.2,32-59.2C302.4,153.6,305.6,142.4,308.8,129.6 M256,0c0,124.8-27.2,195.2-62.4,195.2c-19.2,0-43.2-20.8-65.6-67.2  c-52.8,59.2-96,128-96,192c0,128,118.4,192,224,192l0,0c105.6,0,224-64,224-192C480,160,256,0,256,0L256,0z"/>
</svg>
