<?xml version="1.0" encoding="UTF-8"?>
<!-- Generator: Adobe Illustrator 17.1.0, SVG Export Plug-In . SVG Version: 6.00 Build 0)  -->
<!DOCTYPE svg PUBLIC "-//W3C//DTD SVG 1.1//EN" "http://www.w3.org/Graphics/SVG/1.1/DTD/svg11.dtd">
<svg xmlns="http://www.w3.org/2000/svg" xmlns:xlink="http://www.w3.org/1999/xlink" version="1.1" id="Layer_1" x="0px" y="0px" width="512px" height="512px" viewBox="0 0 512 512" enable-background="new 0 0 512 512" xml:space="preserve">

<path d="M256,0C114.6,0,0,114.6,0,256s114.6,256,256,256s256-114.6,256-256S397.4,0,256,0z M256,448c-106,0-192-86-192-192  S150,64,256,64s192,86,192,192S362,448,256,448z M263.2,256.5l-65.7-84.1l18.4,105.2c-5,7.6-7.9,16.6-7.9,26.4c0,26.5,21.5,48,48,48  s48-21.5,48-48C304,280,286.3,260,263.2,256.5z M256,96c-77.4,0-142,55-156.8,128h36.5c5.5-21,16.5-40.2,32.3-56  c23.5-23.5,54.8-36.4,88-36.4s64.5,12.9,88,36.4c15.8,15.8,26.8,35,32.3,56h36.5C398,151,333.4,96,256,96z"/>
</svg>
