<?xml version="1.0" encoding="UTF-8"?>
<!-- Generator: Adobe Illustrator 17.1.0, SVG Export Plug-In . SVG Version: 6.00 Build 0)  -->
<!DOCTYPE svg PUBLIC "-//W3C//DTD SVG 1.1//EN" "http://www.w3.org/Graphics/SVG/1.1/DTD/svg11.dtd">
<svg xmlns="http://www.w3.org/2000/svg" xmlns:xlink="http://www.w3.org/1999/xlink" version="1.1" id="Layer_1" x="0px" y="0px" width="512px" height="512px" viewBox="0 0 512 512" enable-background="new 0 0 512 512" xml:space="preserve">

<path d="M262.7,294.7c-14.3-10.1-41.7-34.8-41.7-49.3c0-17,4.9-25.4,30.4-45.4c26.2-20.5,44.8-49.3,44.8-82.8  c0-34.7-13.4-68.5-38.8-85.2H288l32-32h-9.2c0,0-56.2,0-100.8,0h-37.7c-71.1,0-138,53.9-138,116.2c0,63.8,48.5,115.2,120.8,115.2  c5,0,9.9-0.1,14.7-0.4c-4.7,9-8,19.1-8,29.6c0,17.7,9.5,32.1,21.6,43.8c-9.1,0-17.9,0.3-27.5,0.3C67.8,304.7,0,360.8,0,418.9  C0,476.2,74.3,512,162.3,512c100.4,0,155.8-57,155.8-114.2C318.2,351.8,304.6,324.3,262.7,294.7z M178,215.3  c-40.9-1.2-79.7-45.7-86.7-99.3c-7.1-53.7,20.3-94.7,61.2-93.5c40.8,1.2,79.7,44.3,86.7,97.9C246.3,174,218.9,216.5,178,215.3z   M162,486.7c-60.9,0-104.8-38.5-104.8-84.8c0-45.4,54.5-83.1,115.4-82.5c14.2,0.2,27.4,2.4,39.5,6.3c33,23,56.7,36,63.4,62.1  c1.3,5.3,1.9,10.8,1.9,16.3C277.4,450.5,247.6,486.7,162,486.7z M416,224v-96h-32v96h-96v32h96v96h32v-96h96v-32H416z"/>
</svg>
