<?xml version="1.0" encoding="UTF-8"?>
<!-- Generator: Adobe Illustrator 17.1.0, SVG Export Plug-In . SVG Version: 6.00 Build 0)  -->
<!DOCTYPE svg PUBLIC "-//W3C//DTD SVG 1.1//EN" "http://www.w3.org/Graphics/SVG/1.1/DTD/svg11.dtd">
<svg xmlns="http://www.w3.org/2000/svg" xmlns:xlink="http://www.w3.org/1999/xlink" version="1.1" id="Layer_1" x="0px" y="0px" width="512px" height="512px" viewBox="0 0 512 512" enable-background="new 0 0 512 512" xml:space="preserve">

<path d="M247.6,0c10.7,5.9,47,30,47,73.5c0,38.5-62.1,153.3-38,183.1l154-192c0,0,38.3,46.6,15.3,86c-23.9,41-82.8,89-106.4,124.7  c-14.6,22.1-7.5,33.9-7.5,33.9l186.7-102.2c0,0,15,44.5-20.5,76.5c-37.5,33.8-125.8,47.2-125.8,82.4h128.2c0,0-13.1,38.9-37.9,44.3  c-21.9,4.8-68.6-7.9-90.6,11.9c-23.3,21-49.4,89.9-127.5,89.9c-52.5,0-93.2-37.9-118.5-87.6c-29.2-57.5-62-85.2-95.7-92.2  c0,0,18.4-43.5,66.8-43.5c66.6,0,95.1,109.1,145.4,109.1c14.5,0,29.9-7.5,29.9-28.9c0-23.2-33.4-42.4-42.7-48.8  c-22.1-15.4-39.8-39.9-28.4-81L247.6,0"/>
</svg>
