<?xml version="1.0" encoding="UTF-8"?>
<!-- Generator: Adobe Illustrator 17.1.0, SVG Export Plug-In . SVG Version: 6.00 Build 0)  -->
<!DOCTYPE svg PUBLIC "-//W3C//DTD SVG 1.1//EN" "http://www.w3.org/Graphics/SVG/1.1/DTD/svg11.dtd">
<svg xmlns="http://www.w3.org/2000/svg" xmlns:xlink="http://www.w3.org/1999/xlink" version="1.1" id="Layer_1" x="0px" y="0px" width="512px" height="512px" viewBox="0 0 512 512" enable-background="new 0 0 512 512" xml:space="preserve">

<path d="M64,424h65.5V177H64V424z M64,147.6h65.5V88H64V147.6z M468.4,193.6c-4.2-19.3-12.2-37.3-23.8-53.9  c-14.5-20.5-33.5-34.7-56.9-42.4c-13.8-4.5-31-6.9-51.7-7.3H192v334h144c50.5,0,87.8-20.8,112-62.3c17.8-30.8,26.8-68.4,26.8-112.8  C474.8,231.3,472.7,212.9,468.4,193.6z M393.2,317.3c-13,32.5-36,48.7-69,48.7h-64.5V148h64.5c31.8,0,53,9.1,63.7,27.3  c10.7,18.2,16,44.3,16,78.3C403.9,278.2,400.3,299.5,393.2,317.3z"/>
</svg>
