<?xml version="1.0" encoding="UTF-8"?>
<!-- Generator: Adobe Illustrator 17.0.0, SVG Export Plug-In . SVG Version: 6.00 Build 0)  -->
<!DOCTYPE svg PUBLIC "-//W3C//DTD SVG 1.1//EN" "http://www.w3.org/Graphics/SVG/1.1/DTD/svg11.dtd">
<svg xmlns="http://www.w3.org/2000/svg" xmlns:xlink="http://www.w3.org/1999/xlink" version="1.1" id="Layer_1" x="0px" y="0px" width="512px" height="512px" viewBox="0 0 512 512" enable-background="new 0 0 512 512" xml:space="preserve">

<path d="M127.9,398.2c66.3,0,97.9-31.1,97.9-31.1l-18.8-51c0,0-30.5,34-76.2,34c-40.5,0-69.2-35.2-69.2-91.5  c0-72.1,36.4-97.9,72.1-97.9c51.6,0,68,33.4,82.1,76.2l18.8,58.6c18.8,56.9,54,102.6,155.4,102.6c72.7,0,122-22.3,122-80.9  c0-47.5-27-72.1-77.4-83.9l-37.5-8.2c-25.8-5.9-33.4-16.4-33.4-34c0-19.9,15.8-31.7,41.6-31.7c28.1,0,43.4,10.6,45.7,35.8l58.6-7  c-4.7-52.8-41.1-74.5-100.9-74.5c-52.8,0-104.4,19.9-104.4,83.9c0,39.9,19.4,65.1,68,76.8l39.9,9.4c29.9,7,39.9,19.4,39.9,36.4  c0,21.7-21.1,30.5-61,30.5c-59.2,0-83.9-31.1-97.9-73.9l-19.4-58.6C249.3,141.9,210,113.8,132,113.8C45.7,113.8,0,168.3,0,261  C0,350.1,45.7,398.2,127.9,398.2z"/>
</svg>
