<?xml version="1.0" encoding="UTF-8"?>
<!-- Generator: Adobe Illustrator 17.1.0, SVG Export Plug-In . SVG Version: 6.00 Build 0)  -->
<!DOCTYPE svg PUBLIC "-//W3C//DTD SVG 1.1//EN" "http://www.w3.org/Graphics/SVG/1.1/DTD/svg11.dtd">
<svg xmlns="http://www.w3.org/2000/svg" xmlns:xlink="http://www.w3.org/1999/xlink" version="1.1" id="Layer_1" x="0px" y="0px" width="512px" height="512px" viewBox="0 0 512 512" enable-background="new 0 0 512 512" xml:space="preserve">

<path d="M392,224h-8v-96c0-52.9-43.1-96-96-96h-64c-52.9,0-96,43.1-96,96v96h-8c-13.2,0-24,10.8-24,24v208c0,13.2,10.8,24,24,24h272  c13.2,0,24-10.8,24-24V248C416,234.8,405.2,224,392,224z M192,128c0-17.6,14.4-32,32-32h64c17.6,0,32,14.4,32,32v96H192V128z"/>
</svg>
