<?xml version="1.0" encoding="UTF-8"?>
<!-- Generator: Adobe Illustrator 17.1.0, SVG Export Plug-In . SVG Version: 6.00 Build 0)  -->
<!DOCTYPE svg PUBLIC "-//W3C//DTD SVG 1.1//EN" "http://www.w3.org/Graphics/SVG/1.1/DTD/svg11.dtd">
<svg xmlns="http://www.w3.org/2000/svg" xmlns:xlink="http://www.w3.org/1999/xlink" version="1.1" id="Layer_1" x="0px" y="0px" width="512px" height="512px" viewBox="0 0 512 512" enable-background="new 0 0 512 512" xml:space="preserve">

<path d="M448,224h-32v-96C416,57.4,358.6,0,288,0h-64C153.4,0,96,57.4,96,128v96H64c-17.6,0-32,14.4-32,32v224c0,17.6,14.4,32,32,32  h384c17.6,0,32-14.4,32-32V256C480,238.4,465.6,224,448,224z M288,407.4V432c0,17.6-14.4,32-32,32s-32-14.4-32-32v-24.6  c-19.1-11.1-32-31.7-32-55.4c0-35.3,28.7-64,64-64s64,28.7,64,64C320,375.7,307.1,396.3,288,407.4z M160,224v-96  c0-35.3,28.7-64,64-64h64c35.3,0,64,28.7,64,64v96H160z"/>
</svg>
