<?xml version="1.0" encoding="UTF-8"?>
<!-- Generator: Adobe Illustrator 17.1.0, SVG Export Plug-In . SVG Version: 6.00 Build 0)  -->
<!DOCTYPE svg PUBLIC "-//W3C//DTD SVG 1.1//EN" "http://www.w3.org/Graphics/SVG/1.1/DTD/svg11.dtd">
<svg xmlns="http://www.w3.org/2000/svg" xmlns:xlink="http://www.w3.org/1999/xlink" version="1.1" id="Layer_1" x="0px" y="0px" width="512px" height="512px" viewBox="0 0 512 512" enable-background="new 0 0 512 512" xml:space="preserve">

<path d="M9.3,480L32,502.7c12.4,12.4,32.8,12.4,45.3,0l117.6-117.6C226.6,404.7,264,416,304,416c114.9,0,208-93.1,208-208  S418.9,0,304,0C189.1,0,96,93.1,96,208c0,40,11.3,77.4,30.9,109.2L9.3,434.8C-3.1,447.2-3.1,467.6,9.3,480z M304,352  c-38.5,0-74.6-15-101.8-42.2S160,246.5,160,208s15-74.6,42.2-101.8S265.5,64,304,64s74.6,15,101.8,42.2S448,169.5,448,208  s-15,74.6-42.2,101.8C378.6,337,342.5,352,304,352z"/>
</svg>
