<?xml version="1.0" encoding="UTF-8"?>
<!-- Generator: Adobe Illustrator 17.1.0, SVG Export Plug-In . SVG Version: 6.00 Build 0)  -->
<!DOCTYPE svg PUBLIC "-//W3C//DTD SVG 1.1//EN" "http://www.w3.org/Graphics/SVG/1.1/DTD/svg11.dtd">
<svg xmlns="http://www.w3.org/2000/svg" xmlns:xlink="http://www.w3.org/1999/xlink" version="1.1" id="Layer_1" x="0px" y="0px" width="512px" height="512px" viewBox="0 0 512 512" enable-background="new 0 0 512 512" xml:space="preserve">

<path d="M368,0H144c-26.4,0-48,21.6-48,48v416c0,26.4,21.6,48,48,48h224c26.4,0,48-21.6,48-48V48C416,21.6,394.4,0,368,0z M256,480  c-17.7,0-32-14.3-32-32s14.3-32,32-32s32,14.3,32,32S273.7,480,256,480z M384,384H128V64h256V384z"/>
</svg>
