<?xml version="1.0" encoding="UTF-8"?>
<!-- Generator: Adobe Illustrator 17.1.0, SVG Export Plug-In . SVG Version: 6.00 Build 0)  -->
<!DOCTYPE svg PUBLIC "-//W3C//DTD SVG 1.1//EN" "http://www.w3.org/Graphics/SVG/1.1/DTD/svg11.dtd">
<svg xmlns="http://www.w3.org/2000/svg" xmlns:xlink="http://www.w3.org/1999/xlink" version="1.1" id="Layer_1" x="0px" y="0px" width="512px" height="512px" viewBox="0 0 512 512" enable-background="new 0 0 512 512" xml:space="preserve">

<path d="M470.6,134.6L345.4,9.4c-6-6-14.1-9.4-22.6-9.4H32v224h64V64h224v96h96v288H288v64h192V157.3  C480,148.8,476.6,140.6,470.6,134.6z M243,396.3l45-7.5v-41.2l-45-7.4c-2.2-8-5.3-15.4-9.2-22.3l26.6-37.2l-29.1-29.1l-37.1,26.6  c-7-3.8-14.3-7-22-9.1l-7.4-45h-41.2l-7.4,45c-7.8,2.1-15.2,5.3-22.1,9.1l-37.2-26.6l-29.1,29.1l26.6,37.2c-3.8,7-7,14.3-9.1,22.1  l-45,7.4v41.2l45,7.4c2.1,7.8,5.3,15.2,9.1,22.1l-26.6,37.2l29.1,29.1l37.2-26.6c7,3.8,14.3,7,22.1,9.1l7.4,45h41.2l7.4-45  c7.8-2.1,15.2-5.3,22-9.1l37.2,26.6l29.1-29.1l-26.5-36.9C237.7,411.4,240.9,404.1,243,396.3z M143.9,409.2  c-22.7,0-41.2-18.5-41.2-41.2c0-22.7,18.5-41.2,41.2-41.2c22.7,0,41.2,18.4,41.2,41.2C185.1,390.8,166.6,409.2,143.9,409.2z"/>
</svg>
