<?xml version="1.0" encoding="UTF-8"?>
<!-- Generator: Adobe Illustrator 17.1.0, SVG Export Plug-In . SVG Version: 6.00 Build 0)  -->
<!DOCTYPE svg PUBLIC "-//W3C//DTD SVG 1.1//EN" "http://www.w3.org/Graphics/SVG/1.1/DTD/svg11.dtd">
<svg xmlns="http://www.w3.org/2000/svg" xmlns:xlink="http://www.w3.org/1999/xlink" version="1.1" id="Layer_1" x="0px" y="0px" width="512px" height="512px" viewBox="0 0 512 512" enable-background="new 0 0 512 512" xml:space="preserve">

<path d="M470.6,134.6L345.4,9.4c-6-6-14.1-9.4-22.6-9.4H32v288h64V64h224v96h96v288H288v64h192V157.3  C480,148.8,476.6,140.6,470.6,134.6z M288,320h64v-32c0-52.9-43.1-96-96-96c-52.9,0-96,43.1-96,96v32H31.7C14.3,320,0,334.3,0,351.7  v128.6C0,497.7,14.3,512,31.7,512h192.6c17.4,0,31.7-14.3,31.7-31.7V351.7c0-17.4-14.3-31.7-31.7-31.7H224v-32c0-17.6,14.4-32,32-32  c17.6,0,32,14.4,32,32V320z M128,448c-17.7,0-32-14.3-32-32c0-17.7,14.3-32,32-32c17.7,0,32,14.3,32,32C160,433.7,145.7,448,128,448  z"/>
</svg>
