<?xml version="1.0" encoding="UTF-8"?>
<!-- Generator: IcoMoon.io -->
<!DOCTYPE svg PUBLIC "-//W3C//DTD SVG 1.1//EN" "http://www.w3.org/Graphics/SVG/1.1/DTD/svg11.dtd">
<svg xmlns="http://www.w3.org/2000/svg" xmlns:xlink="http://www.w3.org/1999/xlink" width="512" height="512" viewBox="0 0 512 512" fill="#000000">
  <path d="M 128.00,32.00L 384.00,32.00L 384.00,96.00L 128.00,96.00zM 480.00,128.00L 32.00,128.00 C 14.40,128.00,0.00,142.40,0.00,160.00l0.00,160.00 c0.00,17.60, 14.398,32.00, 32.00,32.00l 96.00,0.00 l0.00,128.00 l 256.00,0.00 L 384.00,352.00 l 96.00,0.00 c 17.60,0.00, 32.00-14.40, 32.00-32.00L 512.00,160.00 C 512.00,142.40, 497.60,128.00, 480.00,128.00z M 352.00,448.00L 160.00,448.00 L 160.00,288.00 l 192.00,0.00 L 352.00,448.00 z M 487.20,176.00c0.00,12.813-10.387,23.20-23.199,23.20 c-12.813,0.00-23.201-10.387-23.201-23.20s 10.388-23.20, 23.201-23.20C 476.814,152.80, 487.20,163.187, 487.20,176.00z"/>
</svg>
