<?xml version="1.0" encoding="UTF-8"?>
<!-- Generator: Adobe Illustrator 17.0.0, SVG Export Plug-In . SVG Version: 6.00 Build 0)  -->
<!DOCTYPE svg PUBLIC "-//W3C//DTD SVG 1.1//EN" "http://www.w3.org/Graphics/SVG/1.1/DTD/svg11.dtd">
<svg xmlns="http://www.w3.org/2000/svg" xmlns:xlink="http://www.w3.org/1999/xlink" version="1.1" id="Layer_1" x="0px" y="0px" width="512px" height="512px" viewBox="0 0 512 512" enable-background="new 0 0 512 512" xml:space="preserve">

<path d="M32,160v64c34.588,0,68.107,6.76,99.627,20.091c30.477,12.891,57.861,31.358,81.392,54.889s41.999,50.915,54.889,81.392  C281.24,411.893,288,445.412,288,480h64C352,303.269,208.731,160,32,160z M128,320c-35.346,0-64,28.654-64,64s28.654,64,64,64  s64-28.654,64-64S163.346,320,128,320z M32,32v64c51.868,0,102.15,10.144,149.451,30.15c45.719,19.337,86.792,47.034,122.078,82.321  c35.287,35.286,62.983,76.359,82.321,122.078C405.856,377.85,416,428.132,416,480h64C480,232.576,279.424,32,32,32z"/>
</svg>
