<?xml version="1.0" encoding="UTF-8"?>
<!-- Generator: Adobe Illustrator 17.1.0, SVG Export Plug-In . SVG Version: 6.00 Build 0)  -->
<!DOCTYPE svg PUBLIC "-//W3C//DTD SVG 1.1//EN" "http://www.w3.org/Graphics/SVG/1.1/DTD/svg11.dtd">
<svg xmlns="http://www.w3.org/2000/svg" xmlns:xlink="http://www.w3.org/1999/xlink" version="1.1" id="Layer_1" x="0px" y="0px" width="512px" height="512px" viewBox="0 0 512 512" enable-background="new 0 0 512 512" xml:space="preserve">

<path d="M361.4,284.1l-4.9,3.9h8.8L361.4,284.1z M389.3,312h-62.9l-10,8h81L389.3,312z M373.3,296h-26.8l-10,8h44.9L373.3,296z   M276.1,352h101.8l10.2-8h-102L276.1,352z M256,448l10.2-8h-20.3L256,448z M215.4,416h81.3l10.2-8H205.2L215.4,416z M195.1,400H317  l10.2-8H184.9L195.1,400z M235.7,432h40.6l10.2-8h-60.9L235.7,432z M174.7,384h162.5l10.2-8H164.6L174.7,384z M144.3,360l10.2,8H256  l-10-8H144.3z M306.2,328l-10,8h102l8.4-6.6l-1.4-1.4H306.2z M256,368h101.6l10.2-8H266L256,368z M150.6,284.1l-3.9,3.9h8.8  L150.6,284.1z M165.6,296h-26.8l-8,8h44.9L165.6,296z M225.9,344h-102l10.2,8h101.8L225.9,344z M205.8,328h-99l-1.4,1.4l8.4,6.6h102  L205.8,328z M185.7,312h-62.9l-8,8h81L185.7,312z M256,144l105.4,83.9l45.3-45.3L256,64L105.4,182.6l45.3,45.3L256,144z"/>
</svg>
