<?xml version="1.0" encoding="UTF-8"?>
<!-- Generator: Adobe Illustrator 17.0.0, SVG Export Plug-In . SVG Version: 6.00 Build 0)  -->
<!DOCTYPE svg PUBLIC "-//W3C//DTD SVG 1.1//EN" "http://www.w3.org/Graphics/SVG/1.1/DTD/svg11.dtd">
<svg xmlns="http://www.w3.org/2000/svg" xmlns:xlink="http://www.w3.org/1999/xlink" version="1.1" id="Layer_1" x="0px" y="0px" width="512px" height="512px" viewBox="0 0 512 512" enable-background="new 0 0 512 512" xml:space="preserve">

<g>
	<path d="M24.7,260.2c-1.1,0-2,0.9-2.1,2.1c0,0-5,46-5,46l5,45c0.1,1.2,1,2.1,2.1,2.1c1.1,0,2-0.8,2.1-2.1l5.7-45l-5.7-46   C26.7,261.1,25.8,260.2,24.7,260.2z"/>
	<path d="M5.8,277.8c-1.1,0-1.9,0.8-2.1,2L0,308.3l3.7,28c0.1,1.2,1,2,2.1,2c1,0,1.9-0.8,2-2l4.4-28l-4.4-28.4   C7.7,278.6,6.8,277.8,5.8,277.8z"/>
	<path d="M44.8,251.2c-1.4,0-2.4,1.1-2.6,2.5c0,0-4.8,54.6-4.8,54.6l4.8,52.6c0.1,1.5,1.2,2.5,2.6,2.5c1.3,0,2.4-1.1,2.6-2.5   l5.4-52.6l-5.4-54.6C47.2,252.2,46.2,251.2,44.8,251.2z"/>
	<path d="M65.1,249.3c-1.6,0-2.9,1.3-3,3l-4.5,56.1l4.5,54.2c0.1,1.7,1.4,2.9,3,2.9c1.6,0,2.9-1.3,3-2.9l5.1-54.2l-5.1-56.1   C68,250.5,66.7,249.3,65.1,249.3z"/>
	<polygon points="89,362.9 89,362.9 89,363  "/>
	<path d="M89,256.3c-0.1-1.9-1.6-3.4-3.4-3.4c-1.8,0-3.3,1.5-3.4,3.4l-4.3,52l4.3,54.7c0.1,1.9,1.6,3.4,3.4,3.4   c1.8,0,3.3-1.5,3.4-3.4l4.8-54.7L89,256.3z"/>
	<path d="M106.2,219.9c-2.1,0-3.8,1.7-3.9,3.8c0,0-4,84.6-4,84.6l4,54.7c0.1,2.1,1.8,3.8,3.9,3.8c2.1,0,3.8-1.7,3.9-3.8v0l4.5-54.7   l-4.5-84.6C109.9,221.5,108.2,219.9,106.2,219.9z"/>
	<path d="M126.6,200.4c-2.3,0-4.2,1.9-4.3,4.3c0,0-3.7,103.9-3.7,103.9l3.7,54.3c0.1,2.4,2,4.3,4.3,4.3c2.3,0,4.2-1.9,4.3-4.3l0,0   l4.2-54.3l-4.2-103.9C130.8,202.2,128.9,200.4,126.6,200.4z"/>
	<path d="M147.9,191c-2.6,0-4.7,2.1-4.8,4.7c0,0-3.5,112.6-3.5,112.6l3.5,53.8c0.1,2.6,2.2,4.7,4.8,4.7c2.6,0,4.6-2.1,4.8-4.7l0,0   l3.9-53.8l-3.9-112.6C152.5,193,150.4,191,147.9,191z"/>
	<path d="M174.2,191.9c-0.1-2.9-2.4-5.2-5.2-5.2c-2.8,0-5.1,2.3-5.2,5.2l-3.2,116.4l3.2,53.4c0.1,2.9,2.4,5.1,5.2,5.1   c2.8,0,5.1-2.3,5.2-5.1l3.6-53.4L174.2,191.9z"/>
	<polygon points="174.2,361.7 174.2,361.7 174.2,361.8  "/>
	<path d="M190.3,189.3c-3.1,0-5.6,2.5-5.6,5.6l-3,113.4l3,52.9c0.1,3.1,2.5,5.6,5.6,5.6c3.1,0,5.5-2.5,5.6-5.6v0l3.3-52.9   l-3.3-113.5C195.8,191.7,193.3,189.3,190.3,189.3z"/>
	<path d="M211.7,193c-3.3,0-6,2.7-6.1,6l-2.7,109.3l2.7,52.6c0.1,3.3,2.7,6,6.1,6c3.3,0,6-2.6,6.1-6v0l3-52.6l-3-109.3   C217.7,195.6,215,193,211.7,193z"/>
	<path d="M236.9,172.9c-1-0.7-2.3-1.1-3.6-1.1c-1.3,0-2.5,0.4-3.5,1.1c-1.8,1.2-3,3.2-3,5.4l0,1.2l-2.4,128.8   c0,0.1,2.5,52.3,2.5,52.3c0,0.1,0,0.1,0,0.2c0.1,1.5,0.6,2.8,1.5,3.9c1.2,1.4,3,2.4,5,2.4c1.8,0,3.4-0.7,4.5-1.9   c1.2-1.2,1.9-2.8,2-4.6l0.3-5.2l2.5-47l-2.7-130.1C239.7,176,238.6,174.1,236.9,172.9z"/>
	<polygon points="239.8,360.6 239.8,360.6 239.8,360.6 239.8,360.6 239.8,360.6 239.8,360.6 239.8,360.6  "/>
	<path d="M258.3,160.6c-1-0.6-2.2-1-3.5-1c-1.7,0-3.2,0.6-4.4,1.6c-1.5,1.3-2.5,3.2-2.6,5.3l0,0.7L245,308.4l1.4,26.1l1.4,25.4   c0,3.8,3.2,6.9,6.9,6.9c3.8,0,6.9-3.1,6.9-6.9v0.1v0l3.1-51.5v0l-3.1-141.9C261.7,164,260.3,161.8,258.3,160.6z"/>
	<path d="M449,241.2c-8.6,0-16.9,1.7-24.4,4.9c-5-56.8-52.6-101.3-110.7-101.3c-14.2,0-28.1,2.8-40.3,7.5c-4.8,1.8-6,3.7-6.1,7.4   c0,0,0,199.9,0,199.9c0.1,3.9,3,6.9,6.8,7.2c0.2,0,174.6,0,174.6,0c34.8,0,63-27.9,63-62.7C512,269.4,483.8,241.2,449,241.2z"/>
</g>
</svg>
