<?xml version="1.0" encoding="UTF-8"?>
<!-- Generator: Adobe Illustrator 17.1.0, SVG Export Plug-In . SVG Version: 6.00 Build 0)  -->
<!DOCTYPE svg PUBLIC "-//W3C//DTD SVG 1.1//EN" "http://www.w3.org/Graphics/SVG/1.1/DTD/svg11.dtd">
<svg xmlns="http://www.w3.org/2000/svg" xmlns:xlink="http://www.w3.org/1999/xlink" version="1.1" id="Layer_1" x="0px" y="0px" width="512px" height="512px" viewBox="0 0 512 512" enable-background="new 0 0 512 512" xml:space="preserve">

<path fill="none" d="M224,288v-64h64v64h64h32c35.3,0,64-28.7,64-64c0-19.7-8.5-33.7-15.6-41.9c-10-11.5-23.7-19.1-38.7-21.4  l-35.3-5.3l-14-32.9C329.3,87,294.6,64,256,64c-52.9,0-96,43.1-96,96v64H96c-17.6,0-32,14.4-32,32s14.4,32,32,32h64H224z"/>
<path d="M224,512h64V320h-64V512z M403.3,97.4C379,40.2,322.2,0,256,0C167.6,0,96,71.6,96,160c-53,0-96,43-96,96s43,96,96,96h9.1  L128,480h64l-32-192H96c-17.6,0-32-14.4-32-32s14.4-32,32-32h64v-64c0-52.9,43.1-96,96-96c38.6,0,73.3,23,88.4,58.5l14,32.9  l35.3,5.3c14.9,2.3,28.7,9.8,38.7,21.4c7.1,8.2,15.6,22.1,15.6,41.9c0,35.3-28.7,64-64,64h-32l-32,192h64l23.2-130.1  C466.8,339,512,286.8,512,224C512,159.9,464.8,106.8,403.3,97.4z"/>
</svg>
