<?xml version="1.0" encoding="UTF-8"?>
<!-- Generator: IcoMoon.io -->
<!DOCTYPE svg PUBLIC "-//W3C//DTD SVG 1.1//EN" "http://www.w3.org/Graphics/SVG/1.1/DTD/svg11.dtd">
<svg xmlns="http://www.w3.org/2000/svg" xmlns:xlink="http://www.w3.org/1999/xlink" width="512" height="512" viewBox="0 0 512 512" fill="#000000">
  <path d="M 463.906,0.00L 319.625,0.00 c-26.453,0.00-63.398,15.303-82.102,34.007L 14.028,257.502c-18.704,18.704-18.704,49.312,0.00,68.016 l 172.455,172.453c 18.704,18.705, 49.311,18.705, 68.015,0.00l 223.495-223.494C 496.697,255.772, 512.00,218.826, 512.00,192.375L 512.00,48.094 C 512.00,21.642, 490.357,0.00, 463.906,0.00z M 400.00,160.00c-26.51,0.00-48.00-21.49-48.00-48.00s 21.49-48.00, 48.00-48.00s 48.00,21.49, 48.00,48.00S 426.51,160.00, 400.00,160.00z"/>
</svg>
