<?xml version="1.0" encoding="UTF-8"?>
<!-- Generator: Adobe Illustrator 17.0.0, SVG Export Plug-In . SVG Version: 6.00 Build 0)  -->
<!DOCTYPE svg PUBLIC "-//W3C//DTD SVG 1.1//EN" "http://www.w3.org/Graphics/SVG/1.1/DTD/svg11.dtd">
<svg xmlns="http://www.w3.org/2000/svg" xmlns:xlink="http://www.w3.org/1999/xlink" version="1.1" id="Layer_1" x="0px" y="0px" width="512px" height="512px" viewBox="0 0 512 512" enable-background="new 0 0 512 512" xml:space="preserve">

<path d="M319.329,364.992c-12.634-2.01-12.922-36.751-12.922-36.751s37.125-36.752,45.216-86.173  c21.766,0,35.21-52.541,13.441-71.026C365.973,151.583,393.041,18.286,256,18.286S146.029,151.583,146.935,171.042  c-21.768,18.486-8.326,71.026,13.441,71.026c8.09,49.421,45.216,86.173,45.216,86.173s-0.288,34.741-12.922,36.751  C151.973,371.467,0,438.497,0,512h256h256C512,438.497,360.027,371.467,319.329,364.992z"/>
</svg>
