<?xml version="1.0" encoding="UTF-8"?>
<!-- Generator: Adobe Illustrator 17.1.0, SVG Export Plug-In . SVG Version: 6.00 Build 0)  -->
<!DOCTYPE svg PUBLIC "-//W3C//DTD SVG 1.1//EN" "http://www.w3.org/Graphics/SVG/1.1/DTD/svg11.dtd">
<svg xmlns="http://www.w3.org/2000/svg" xmlns:xlink="http://www.w3.org/1999/xlink" version="1.1" id="Layer_1" x="0px" y="0px" width="512px" height="512px" viewBox="0 0 512 512" enable-background="new 0 0 512 512" xml:space="preserve">

<path d="M295.6,260.1c-7.9-1.3-8.1-23-8.1-23s23.2-23,28.3-53.9c13.6,0,22-32.8,8.4-44.4c0.6-12.2,17.5-95.5-68.2-95.5  s-68.7,83.3-68.2,95.5c-13.6,11.6-5.2,44.4,8.4,44.4c5.1,30.9,28.3,53.9,28.3,53.9s-0.2,21.7-8.1,23C191,264.2,96,306.1,96,352  c0,64,32,128,32,128h256c0,0,32-64,32-128C416,306.1,321,264.2,295.6,260.1z"/>
<path fill="none" d="M153.8,208.3c-3.5,21.6-19.8,37.7-19.8,37.7s0.1,8.5,2.4,13.2c14.1-8.2,31.2-16.6,47.2-22.6  c-5.5-8.7-11.2-19.6-15.1-32c-1.9-1.7-3.8-3.6-5.5-5.7C161.2,204.2,157.9,208.3,153.8,208.3z"/>
<path fill="none" d="M343.5,204.5c-3.9,12.4-9.6,23.3-15.1,32c14.3,5.4,30.9,13.1,47.2,22.6c2.3-4.7,2.4-13.1,2.4-13.1  s-16.2-16.1-19.8-37.7c-4,0-7.4-4.1-9.2-9.5C347.2,200.9,345.4,202.8,343.5,204.5z"/>
<path d="M295.6,260.1c-7.9-1.3-8.1-23-8.1-23s23.2-23,28.3-53.9c13.6,0,22-32.8,8.4-44.4c0.6-12.2,17.5-95.5-68.2-95.5  s-68.7,83.3-68.2,95.5c-13.6,11.6-5.2,44.4,8.4,44.4c5.1,30.9,28.3,53.9,28.3,53.9s-0.2,21.7-8.1,23C191,264.2,96,306.1,96,352  c0,64,32,128,32,128h256c0,0,32-64,32-128C416,306.1,321,264.2,295.6,260.1z M129.8,263.2c2.1-1.3,4.4-2.7,6.7-4  c-2.3-4.7-2.4-13.2-2.4-13.2s16.2-16.1,19.8-37.7c4,0,7.4-4.1,9.2-9.5c2.5-7.3,2.2-16.9-3.3-21.6c0.2-5.2,4.7-28.6-5.2-46.3  c-6.4-11.5-18.9-20.6-42.5-20.6c-60,0-48.1,58.3-47.7,66.8c-9.5,8.1-3.6,31.1,5.9,31.1c3.5,21.6,19.8,37.7,19.8,37.7  s-0.1,15.2-5.7,16.1C66.5,264.9,0,294.2,0,326.4C0,371.2,22.4,416,22.4,416H72c-4.6-19.8-8-41.8-8-64  C64,320.2,86.1,290.3,129.8,263.2z M427.7,262.1c-5.5-0.9-5.7-16.1-5.7-16.1s16.2-16.1,19.8-37.7c9.5,0,15.4-23,5.9-31.1  c0.4-8.5,12.2-66.8-47.7-66.8c-23.6,0-36.1,9.1-42.5,20.6c-9.9,17.7-5.4,41.1-5.2,46.3c-5.5,4.7-5.9,14.3-3.3,21.6  c1.8,5.3,5.2,9.5,9.2,9.5c3.5,21.6,19.8,37.7,19.8,37.7s-0.1,8.5-2.4,13.1c2.2,1.3,4.5,2.6,6.7,4c43.7,27.1,65.8,57,65.8,88.8  c0,22.2-3.3,44.2-8,64h49.6c0,0,22.4-44.8,22.4-89.6C512,294.2,445.5,264.9,427.7,262.1z"/>
</svg>
