<?xml version="1.0" encoding="utf-8"?>
<!-- Generator: Adobe Illustrator 19.0.0, SVG Export Plug-In . SVG Version: 6.00 Build 0)  -->
<svg version="1.1" xmlns="http://www.w3.org/2000/svg" xmlns:xlink="http://www.w3.org/1999/xlink" x="0px" y="0px"
	 viewBox="0 0 512 512" enable-background="new 0 0 512 512" xml:space="preserve">
<g id="grid">
	<g id="svgGrid">
		<line fill="none" stroke="#B35047" x1="32" y1="0" x2="32" y2="512"/>
		<line fill="none" stroke="#B35047" x1="64" y1="0" x2="64" y2="512"/>
		<line fill="none" stroke="#B35047" x1="96" y1="0" x2="96" y2="512"/>
		<line fill="none" stroke="#B35047" x1="128" y1="0" x2="128" y2="512"/>
		<line fill="none" stroke="#B35047" x1="160" y1="0" x2="160" y2="512"/>
		<line fill="none" stroke="#B35047" x1="192" y1="0" x2="192" y2="512"/>
		<line fill="none" stroke="#B35047" x1="224" y1="0" x2="224" y2="512"/>
		<line fill="none" stroke="#B35047" x1="256" y1="0" x2="256" y2="512"/>
		<line fill="none" stroke="#B35047" x1="288" y1="0" x2="288" y2="512"/>
		<line fill="none" stroke="#B35047" x1="320" y1="0" x2="320" y2="512"/>
		<line fill="none" stroke="#B35047" x1="352" y1="0" x2="352" y2="512"/>
		<line fill="none" stroke="#B35047" x1="384" y1="0" x2="384" y2="512"/>
		<line fill="none" stroke="#B35047" x1="416" y1="0" x2="416" y2="512"/>
		<line fill="none" stroke="#B35047" x1="448" y1="0" x2="448" y2="512"/>
		<line fill="none" stroke="#B35047" x1="480" y1="0" x2="480" y2="512"/>
		<line fill="none" stroke="#B35047" x1="0" y1="32" x2="512" y2="32"/>
		<line fill="none" stroke="#B35047" x1="0" y1="64" x2="512" y2="64"/>
		<line fill="none" stroke="#B35047" x1="0" y1="96" x2="512" y2="96"/>
		<line fill="none" stroke="#B35047" x1="0" y1="128" x2="512" y2="128"/>
		<line fill="none" stroke="#B35047" x1="0" y1="160" x2="512" y2="160"/>
		<line fill="none" stroke="#B35047" x1="0" y1="192" x2="512" y2="192"/>
		<line fill="none" stroke="#B35047" x1="0" y1="224" x2="512" y2="224"/>
		<line fill="none" stroke="#B35047" x1="0" y1="256" x2="512" y2="256"/>
		<line fill="none" stroke="#B35047" x1="0" y1="288" x2="512" y2="288"/>
		<line fill="none" stroke="#B35047" x1="0" y1="320" x2="512" y2="320"/>
		<line fill="none" stroke="#B35047" x1="0" y1="352" x2="512" y2="352"/>
		<line fill="none" stroke="#B35047" x1="0" y1="384" x2="512" y2="384"/>
		<line fill="none" stroke="#B35047" x1="0" y1="416" x2="512" y2="416"/>
		<line fill="none" stroke="#B35047" x1="0" y1="448" x2="512" y2="448"/>
		<line fill="none" stroke="#B35047" x1="0" y1="480" x2="512" y2="480"/>
		<rect fill="none" stroke="#B35047" width="512" height="512"/>
	</g>
</g>
<g id="whiteness" display="none">
	<rect id="XMLID_18_" display="inline" fill="#FFFFFF" width="512" height="512"/>
</g>
<g id="Layer_3">
	<rect id="XMLID_1_" y="448" width="512" height="64"/>
	<rect id="XMLID_2_" width="64" height="448"/>
</g>
<g id="Layer_4" display="none">
	<circle id="XMLID_3_" display="inline" cx="160" cy="352" r="40"/>
	<circle id="XMLID_4_" display="inline" cx="256" cy="192" r="40"/>
	<circle id="XMLID_5_" display="inline" cx="352" cy="336" r="40"/>
	<circle id="XMLID_6_" display="inline" cx="448" cy="128" r="40"/>
</g>
<g id="Layer_5" display="none">
	
		<polyline id="XMLID_8_" display="inline" fill="none" stroke="#000000" stroke-width="34" stroke-linecap="round" stroke-linejoin="round" stroke-miterlimit="10" points="
		160,352 256,192 352,336 448,128 	"/>
</g>
<g id="Layer_6">
	
		<polyline id="XMLID_9_" fill="none" stroke="#000000" stroke-width="39" stroke-linecap="round" stroke-linejoin="round" stroke-miterlimit="10" points="
		112,400 208,208 256,336 352,144 384,224 464,48 	"/>
</g>
<g id="Layer_7" display="none">
	<circle id="XMLID_7_" display="inline" cx="112" cy="400" r="32"/>
	<circle id="XMLID_16_" display="inline" cx="192" cy="208" r="32"/>
	<circle id="XMLID_15_" display="inline" cx="256" cy="336" r="32"/>
	<circle id="XMLID_14_" display="inline" cx="352" cy="144" r="32"/>
	<circle id="XMLID_13_" display="inline" cx="384" cy="224" r="32"/>
	<circle id="XMLID_11_" display="inline" cx="464" cy="48" r="32"/>
</g>
</svg>
